<?xml version="1.0" standalone="no"?>
<!DOCTYPE svg PUBLIC "-//W3C//DTD SVG 20010904//EN"
 "http://www.w3.org/TR/2001/REC-SVG-20010904/DTD/svg10.dtd">
<svg version="1.0" xmlns="http://www.w3.org/2000/svg"
 width="480.000000pt" height="160.000000pt" viewBox="0 0 480.000000 160.000000"
 preserveAspectRatio="xMidYMid meet">
<metadata>
Created by potrace 1.16, written by Peter Selinger 2001-2019
</metadata>
<g transform="translate(0.000000,160.000000) scale(0.100000,-0.100000)"
fill="#000000" stroke="none">
<path d="M3617 1498 c-9 -7 -21 -25 -26 -40 -6 -16 -26 -35 -49 -47 -24 -12
-44 -32 -52 -51 -8 -19 -28 -39 -51 -50 -26 -14 -41 -30 -49 -55 -8 -25 -21
-39 -45 -49 -19 -8 -41 -28 -49 -44 -9 -17 -30 -40 -48 -53 -61 -41 -58 -15
-58 -511 0 -445 1 -459 20 -478 11 -11 27 -20 35 -20 25 0 55 -38 55 -70 l0
-30 500 0 c499 0 500 0 500 21 0 31 18 57 51 75 17 8 39 30 50 48 10 18 36 39
58 49 26 12 43 27 49 47 7 18 25 36 49 48 24 13 45 34 56 56 9 20 27 40 40 45
60 23 57 0 57 507 l0 465 -22 19 c-29 25 -83 79 -108 108 l-19 22 -464 0
c-355 0 -467 -3 -480 -12z m859 -120 c8 -7 15 -24 16 -38 2 -20 -3 -26 -29
-35 -37 -12 -73 -43 -73 -61 0 -8 -18 -23 -41 -34 -27 -14 -45 -33 -55 -55 -7
-18 -17 -36 -22 -39 -4 -2 -194 -6 -422 -7 -390 -2 -414 -1 -427 16 -23 33
-16 54 27 71 24 10 47 29 59 50 11 19 29 37 38 41 25 8 63 44 63 59 0 36 24
39 409 45 416 6 439 5 457 -13z m103 -103 c11 -11 13 -86 12 -420 -1 -223 -4
-412 -7 -419 -3 -7 -20 -20 -40 -29 -20 -10 -41 -31 -51 -51 -9 -20 -29 -40
-46 -47 -20 -8 -35 -26 -48 -56 -14 -34 -23 -43 -42 -43 -49 0 -49 2 -49 440
0 225 3 414 7 420 3 6 22 17 41 25 24 10 39 26 50 50 8 20 22 39 32 42 25 9
62 45 62 60 0 8 5 23 11 34 11 21 42 19 68 -6z m-407 -303 c15 -15 17 -63 23
-427 l7 -410 -22 -20 c-21 -19 -34 -20 -423 -16 -221 2 -411 7 -423 11 -21 8
-21 12 -28 412 -8 410 -6 446 29 465 9 5 193 7 418 5 357 -3 404 -6 419 -20z"/>
<path d="M3907 1282 c-22 -24 -21 -45 1 -65 36 -33 102 -10 102 35 0 42 -73
63 -103 30z"/>
<path d="M4422 994 c-31 -22 -30 -69 3 -90 23 -15 27 -15 50 0 33 21 34 68 3
90 -12 9 -25 16 -28 16 -3 0 -16 -7 -28 -16z"/>
<path d="M4422 594 c-31 -22 -30 -69 3 -90 23 -15 27 -15 50 0 33 21 34 68 3
90 -12 9 -25 16 -28 16 -3 0 -16 -7 -28 -16z"/>
<path d="M3422 883 c-20 -17 -21 -30 -24 -186 -3 -167 -3 -169 21 -188 30 -24
46 -24 71 1 18 18 20 33 20 183 0 115 -4 168 -12 179 -21 26 -53 30 -76 11z"/>
<path d="M3722 610 c-49 -20 -48 -101 3 -120 55 -21 106 30 85 85 -7 19 -50
49 -63 44 -1 0 -12 -4 -25 -9z"/>
<path d="M4010 590 c-18 -18 -20 -33 -20 -183 0 -146 2 -166 18 -180 23 -21
56 -22 76 -1 13 12 16 42 18 137 4 193 2 209 -22 229 -29 23 -45 23 -70 -2z"/>
<path d="M132 1403 l-132 -4 0 -699 0 -700 200 0 200 0 0 100 0 100 85 -2 c67
-2 87 0 101 13 15 15 16 63 16 489 0 425 -1 474 -16 489 -13 12 -35 16 -91 16
-40 0 -77 4 -82 8 -4 5 -8 42 -8 84 0 66 -3 77 -24 94 -17 14 -36 18 -70 17
-25 -1 -106 -4 -179 -5z m266 -704 l2 -496 -69 -7 c-70 -6 -113 2 -126 25 -4
6 -8 223 -8 482 1 548 -11 499 118 495 l80 -3 3 -496z"/>
<path d="M813 1383 c-19 -18 -23 -33 -23 -81 0 -87 18 -105 100 -103 42 1 71
-4 87 -14 l23 -15 0 -470 c0 -413 -2 -470 -16 -484 -11 -11 -35 -16 -82 -16
-37 0 -72 -4 -79 -8 -23 -14 -32 -61 -26 -127 l6 -65 298 0 299 0 0 83 c0 107
-9 117 -103 117 -46 0 -70 5 -81 16 -14 14 -16 71 -16 483 0 542 -8 501 101
501 35 0 69 4 75 8 37 25 47 134 16 173 -19 22 -21 22 -288 23 -265 1 -269 1
-291 -21z"/>
<path d="M1629 1398 c-10 -4 -23 -18 -27 -30 -4 -13 -6 -326 -4 -696 l3 -672
299 0 300 0 0 83 c0 127 -6 131 -200 117 -142 -10 -172 -6 -192 24 -4 6 -8
221 -8 477 0 453 1 466 20 484 18 17 34 18 179 12 196 -9 203 -6 209 94 3 53
1 69 -16 89 l-20 25 -262 0 c-143 0 -270 -3 -281 -7z"/>
<path d="M2429 1398 c-10 -4 -23 -18 -27 -30 -4 -13 -6 -326 -4 -696 l3 -672
298 0 298 0 6 66 c6 79 -7 122 -40 135 -15 5 -78 5 -164 -1 -140 -10 -171 -6
-191 24 -4 6 -8 86 -8 177 0 201 0 201 105 197 86 -3 105 15 105 102 0 87 -19
105 -105 102 -105 -4 -105 -4 -105 198 0 219 -14 205 200 197 l161 -7 24 24
c21 21 25 35 25 84 0 44 -5 66 -19 83 l-19 24 -262 0 c-143 0 -270 -3 -281 -7z"/>
</g>
</svg>
