<?xml version="1.0" encoding="utf-8"?>
<svg width="5973px" height="1378px" version="1.1" style="shape-rendering:geometricPrecision; text-rendering:geometricPrecision; image-rendering:optimizeQuality; fill-rule:evenodd; clip-rule:evenodd" viewBox="0 0 5923.42 1366.31" xmlns="http://www.w3.org/2000/svg">
  <rect id="Back" width="5923.42" height="1366.31" fill="black"/>
  <polygon id="_6Pink" points="4909.74,1249.18 5806.29,1249.18 5806.29,1154.15 4909.74,1154.15 " fill="#FF007F"/>
  <polygon id="_5Blue" points="3951.22,1249.18 4847.77,1249.18 4847.77,1154.15 3951.22,1154.15 " fill="#00FFFF"/>
  <polygon id="_4Green" points="2992.7,1249.18 3889.25,1249.18 3889.25,1154.15 2992.7,1154.15 " fill="#00FF00"/>
  <polygon id="_3Yellow" points="2034.17,1249.18 2930.72,1249.18 2930.72,1154.15 2034.17,1154.15 " fill="yellow"/>
  <polygon id="_2Orange" points="1075.65,1249.18 1972.2,1249.18 1972.2,1154.15 1075.65,1154.15 " fill="#FF7F00"/>
  <polygon id="_1Red" points="117.13,1249.18 1013.68,1249.18 1013.68,1154.15 117.13,1154.15 " fill="red"/>
  <path d="M5310.5 232.81l82.64 0 0 756.08 -82.64 0 0 115.68 206.58 0 0 -987.44 -206.58 0 0 115.68zm-5193.37 0l82.63 0 0 756.08 -82.63 0 0 115.68 206.58 0 0 -987.44 -206.58 0 0 115.68zm380.1 756.08l-140.47 0 0 115.68 256.16 0 0 -280.94 -115.69 0 0 165.26zm-140.47 -756.08l140.47 0 0 115.69 115.69 0 0 -231.37 -256.16 0 0 115.68zm0 417.29l173.53 0 0 -115.68 -173.53 0 0 115.68zm322.26 -417.29l82.63 0 380.11 871.76 173.52 0 0 -115.68 -82.63 0 -380.1 -871.76 -173.53 0 0 115.68zm429.68 413.16l123.95 282.06 0 -695.22 82.63 0 0 -115.68 -206.58 0 0 528.84zm-347.05 342.92l-82.63 0 0 115.68 206.58 0 0 -528.84 -123.95 -281.81 0 694.97zm842.84 0l-107.42 0 0 115.68 338.79 0 0 -115.68 -107.42 0 0 -871.76 -123.95 0 0 871.76zm-243.76 -607.34l115.68 0 0 -148.74 95.03 0 0 -115.68 -210.71 0 0 264.42zm400.76 -148.74l95.03 0 0 148.74 115.68 0 0 -264.42 -210.71 0 0 115.68zm256.16 0l82.63 0 0 756.08 -82.63 0 0 115.68 206.58 0 0 -987.44 -206.58 0 0 115.68zm380.1 756.08l-140.47 0 0 115.68 256.16 0 0 -280.94 -115.69 0 0 165.26zm-140.47 -756.08l140.47 0 0 115.69 115.69 0 0 -231.37 -256.16 0 0 115.68zm0 417.29l173.52 0 0 -115.68 -173.52 0 0 115.68zm322.26 -417.29l78.5 0 0 756.08 -78.5 0 0 115.68 202.45 0 0 -987.44 -202.45 0 0 115.68zm235.5 0l115.68 0 61.98 61.98 0 177.65 -61.98 61.98 -115.68 0 0 115.68 177.66 0 123.94 -123.94 0 -285.08 -123.94 -123.95 -177.66 0 0 115.68zm177.66 871.76l148.73 0 0 -115.68 -60.79 0 -87.94 -305.74 -123.95 0 123.95 421.42zm206.58 -871.76l78.5 0 0 756.08 -78.5 0 0 115.68 280.94 0 0 -115.68 -78.5 0 0 -871.76 -202.44 0 0 115.68zm235.49 0l115.69 0 61.97 61.98 0 177.65 -61.97 61.98 -115.69 0 0 115.68 177.66 0 123.95 -123.94 0 -285.08 -123.95 -123.95 -177.66 0 0 115.68zm351.19 0l78.5 0 0 756.08 -78.5 0 0 115.68 202.44 0 0 -987.44 -202.44 0 0 115.68zm235.5 0l115.68 0 61.97 61.98 0 177.65 -61.97 61.98 -115.68 0 0 115.68 177.66 0 123.94 -123.94 0 -285.08 -123.95 -123.95 -177.65 0 0 115.68zm177.65 871.76l148.74 0 0 -115.68 -60.77 0 -87.97 -305.74 -123.94 0 123.94 421.42zm198.32 -871.76l95.03 0 0 756.08 -95.03 0 0 115.68 314 0 0 -115.68 -95.03 0 0 -756.08 95.03 0 0 -115.68 -314 0 0 115.68zm388.37 8.27l0 285.08 123.94 123.94 148.74 0 61.97 61.97 0 214.85 -61.97 61.97 -128.08 0 0 115.68 190.05 0 123.95 -123.94 0 -322.26 -123.95 -123.95 -148.73 0 -61.98 -61.98 0 -177.65 61.98 -61.98 128.07 0 0 -115.68 -190.05 0 -123.94 123.95zm0 863.49l115.68 0 0 -280.94 -115.68 0 0 280.94zm904.81 -115.68l-140.47 0 0 115.68 256.15 0 0 -280.94 -115.68 0 0 165.26zm-140.47 -756.08l140.47 0 0 115.69 115.68 0 0 -231.37 -256.15 0 0 115.68zm0 417.29l173.52 0 0 -115.68 -173.52 0 0 115.68zm-421.42 -301.6l115.68 0 0 -231.37 -115.68 0 0 231.37z" fill="white"/>
</svg>