<svg width="566.929" height="129.21" xmlns="http://www.w3.org/2000/svg" xml:space="preserve" enable-background="new 0 0 566.929 129.21" version="1.1">

 <g>
  <title>Layer 1</title>
  <g stroke-width="10" id="Layer_3">
   <g id="svg_25">
    <g id="svg_26">
     <path fill="#bd2136" id="svg_27" d="m553.64798,22.859l-540.366,0c-4.734,0 -8.573,3.838 -8.573,8.573l0,66.346c0,4.735 3.838,8.573 8.573,8.573l540.366,0c4.734,0 8.572,-3.838 8.572,-8.573l0,-66.346c0,-4.734 -3.837,-8.573 -8.572,-8.573zm7.039,74.693c0,4.109 -3.331,7.441 -7.44,7.441l-539.564,0c-4.109,0 -7.441,-3.332 -7.441,-7.441l0,-65.893c0,-4.109 3.332,-7.441 7.441,-7.441l539.564,0c4.109,0 7.44,3.332 7.44,7.441l0,65.893z"/>
    </g>
   </g>
  </g>
  <g id="svg_1">
   <g id="svg_2">
    <path fill="#bfac8b" id="svg_3" d="m294.95299,73.518l6.785,-15.589l-8.479,-0.067l-4.37,10.112l-6.916,-6.197c5.153,-5.023 5.807,-6.196 6.067,-11.025c0.261,-4.825 -4.11,-10.762 -12.264,-10.762s-11.415,6.719 -11.415,11.156c0,4.435 2.414,7.174 5.415,10.044c-5.022,3.328 -9.002,6.393 -9.002,16.111c0,7.438 6.589,13.961 15.981,13.961c9.393,0 13.438,-7.504 14.676,-10.176c3.132,2.868 10.242,9.326 10.242,9.326l5.154,-5.673l-11.874,-11.221zm-18.784,-25.832c1.978,0 4.044,1.131 4.044,3.589c0,2.869 -3.979,5.217 -3.979,5.217c-3.282,-2.718 -4.109,-3.195 -4.109,-5.544c-0.001,-2.349 2.238,-3.262 4.044,-3.262zm0.521,35.878c-3.131,0 -8.349,-0.913 -8.349,-6.72c0,-5.805 2.217,-7.076 7.371,-10.438c0,0 8.153,7.373 9.915,8.872c-2.478,6.98 -5.805,8.286 -8.937,8.286z"/>
   </g>
  </g>
  <polygon fill="#bfac8b" id="svg_5" points="127.93498992919922,90.0379986539483 161.7679901123047,39.160000301897526 170.1169891357422,39.160000301897526 170.1169891357422,74.295002438128 193.77398681640625,39.245998837053776 202.29798889160156,39.245998837053776 202.29798889160156,90.0379986539483 193.77398681640625,90.0379986539483 193.77398681640625,54.90099761635065 170.1169891357422,90.21200225502253 161.6809844970703,90.21200225502253 161.6809844970703,54.72799728065729 138.19898986816406,90.0379986539483 "/>
  <polygon fill="#bfac8b" id="svg_6" points="209.60398864746094,90.12499663978815 209.60398864746094,39.245998837053776 235.78298950195312,39.245998837053776 235.78298950195312,47.85699889808893 218.21498107910156,47.85699889808893 218.21498107910156,60.815998531877995 235.78298950195312,60.815998531877995 235.78298950195312,69.5129971280694 218.12599182128906,69.5129971280694 218.12599182128906,81.51499602943659 235.6949920654297,81.51499602943659 235.6949920654297,90.12499663978815 "/>
  <g id="svg_7">
   <g id="svg_8">
    <path fill="#bfac8b" id="svg_9" d="m116.80299,39.246l-33.833,51.054l10.438,0l7.217,-11.135l16.352,0l0,11.135l8.436,0l0,-51.054l-8.61,0zm0.087,31.137l-10.35,0l10.35,-15.569l0,15.569z"/>
   </g>
  </g>
  <g id="svg_10">
   <g id="svg_11">
    <path fill="#bfac8b" id="svg_12" d="m88.63999,65.387l-26.63,0l0,8.3l17.268,0.078c-2.997,6.684 -9.709,11.339 -17.507,11.339c-10.592,0 -19.178,-8.587 -19.178,-19.18c0,-10.591 8.586,-19.177 19.178,-19.177c6.578,0 12.38,3.312 15.835,8.356l8.769,-0.008c-4.165,-9.449 -13.614,-16.046 -24.604,-16.046c-14.842,0 -26.875,12.033 -26.875,26.875c0,14.844 12.033,26.875 26.875,26.875c14.842,0 26.875,-12.031 26.875,-26.875c0,-0.179 -0.003,-0.359 -0.006,-0.537z"/>
   </g>
  </g>
  <g id="svg_15">
   <g id="svg_16">
    <g id="svg_17">
     <path fill="#bfac8b" id="svg_18" d="m408.35599,37.797l-33.831,51.053l10.436,0l7.219,-11.135l16.35,0l0,11.135l8.437,0l0,-51.053l-8.611,0zm0.087,31.135l-10.348,0l10.348,-15.567l0,15.567z"/>
    </g>
   </g>
   <g id="svg_19">
    <g id="svg_20">
     <path fill="#bfac8b" id="svg_21" d="m486.76799,75.152c-3.382,3.919 -8.384,6.397 -13.965,6.397c-10.184,0 -18.438,-8.254 -18.438,-18.438c0,-10.183 8.255,-18.439 18.438,-18.439c5.364,0 10.19,2.291 13.56,5.945l9.868,-0.003c-4.483,-8.45 -13.371,-14.203 -23.602,-14.203c-14.747,0 -26.7,11.953 -26.7,26.7c0,14.748 11.953,26.701 26.7,26.701c10.416,0 19.44,-5.966 23.842,-14.664l-9.703,0.004z"/>
    </g>
   </g>
   <polygon fill="#bfac8b" id="svg_22" points="327.6459655761719,37.975998379290104 327.6459655761719,88.94299743324518 336.4289855957031,88.94299743324518 359.6519775390625,54.1539997830987 359.6519775390625,88.85499999672174 368.5229797363281,88.85499999672174 402.0939636230469,38.061996914446354 391.57098388671875,38.061996914446354 368.43597412109375,73.20100066810846 368.43597412109375,38.14899871498346 359.7389831542969,38.14899871498346 336.4289855957031,73.28699920326471 336.4289855957031,37.975998379290104 "/>
   <polygon fill="#bfac8b" id="svg_23" points="420.011962890625,37.89099929481745 448.1879577636719,37.89099929481745 448.1879577636719,46.49899718910456 438.3619689941406,46.49899718910456 438.3619689941406,88.68199584633112 429.6629638671875,88.68199584633112 429.6629638671875,46.58699844032526 419.9239807128906,46.58699844032526 "/>
   <polygon fill="#bfac8b" id="svg_24" points="498.89495849609375,37.975998379290104 498.89495849609375,88.94499633461237 507.5049743652344,88.94499633461237 507.5049743652344,67.2879986539483 523.2470092773438,67.2879986539483 523.2470092773438,88.77000091224909 532.0330200195312,88.77000091224909 532.0330200195312,38.061996914446354 523.4229736328125,38.061996914446354 523.4229736328125,58.58899734169245 507.5049743652344,58.58899734169245 507.5049743652344,38.061996914446354 "/>
  </g>
 </g>
</svg>