<?xml version="1.0"?>
<svg width="386.64349" height="105.25655" xmlns="http://www.w3.org/2000/svg" xmlns:svg="http://www.w3.org/2000/svg" version="1.1">

 <metadata id="metadata5">image/svg+xml</metadata>
 <g class="layer">
  <title>Layer 1</title>
  <g display="inline" id="layer1" transform="translate(-101.9129,-192.29492)">
   <path d="m466.23,193.24l-19.32,7.24l0,7.38l4.22,-1.58l0,8.01l8.45,3.17l0,-14.35l6.65,-2.49l0,-7.38z" display="inline" fill="#308fab" id="path8969" stroke="#c8f4f3" stroke-miterlimit="4" stroke-width="1.3"/>
   <path d="m467.52,193.24l19.33,7.24l0,7.38l-4.23,-1.58l0,0.01l-8.45,-3.17l0,-0.01l-6.65,-2.49l0,-7.38z" display="inline" fill="#308fab" id="path9172" stroke="#c8f4f3" stroke-miterlimit="4" stroke-width="1.3"/>
   <path d="m467.26,192.86l0.93,0.35l0,7.38l-0.93,-0.35l0,-7.38z" display="inline" fill="#308fab" id="path8969-9-3" stroke="#c8f4f3" stroke-miterlimit="4" stroke-width="0.78"/>
   <path d="m467.52,227.88l19.33,-7.25l0,-7.38l-4.23,1.58l0,-8l-8.45,-3.17l0,14.34l-6.65,2.49l0,7.39z" display="inline" fill="#308fab" id="path8969-3" stroke="#c8f4f3" stroke-miterlimit="4" stroke-width="1.3"/>
   <path d="m466.23,227.88l-19.32,-7.25l0,-7.38l4.22,1.58l0,-0.01l8.45,3.17l0,0.01l6.65,2.49l0,7.39z" display="inline" fill="#308fab" id="path9172-8" stroke="#c8f4f3" stroke-miterlimit="4" stroke-width="1.3"/>
   <path d="m466.5,228.26l-0.94,-0.35l0,-7.39l0.94,0.35l0,7.39z" display="inline" fill="#308fab" id="path8969-9-3-6" stroke="#c8f4f3" stroke-miterlimit="4" stroke-width="0.78"/>
   <g display="inline" fill="#000000" font-family="&#x27;Microgramma D Extended&#x27;" font-size="27.09px" font-style="normal" font-weight="bold" id="text818" stroke="#000000" stroke-width="0.41" text-anchor="start" transform="matrix(1.4720031,0,0,1.4720031,75.413633,-32.507086)">
    <path d="m18.21,154.28l0,5.53l9.65,0l0,16.16l6.92,0l0,-16.16l9.66,0l0,-5.53l-26.23,0z" fill="#308fab" id="path854" stroke="#c8f4f3" stroke-width="0.41"/>
    <path d="m45.01,154.28l0,21.69l6.93,0l0,-7.84l14.92,0l0,7.84l6.92,0l0,-21.69l-6.92,0l0,7.77l-14.92,0l0,-7.77l-6.93,0z" fill="#308fab" id="path856" stroke="#c8f4f3" stroke-width="0.41"/>
    <path d="m91.26,153.96c-9.07,0 -11.09,0.23 -12.75,1.49c-1.66,1.27 -2.14,3.48 -2.14,9.53c0,6.37 0.45,8.52 2.14,9.82c1.66,1.26 3.68,1.49 12.81,1.49c8.97,0 11.02,-0.23 12.68,-1.49c1.66,-1.27 2.14,-3.45 2.14,-9.69c0,-6.21 -0.48,-8.39 -2.14,-9.66c-1.66,-1.26 -3.67,-1.49 -12.74,-1.49zm0,5.62c6.04,0 6.76,0.1 7.51,0.98c0.58,0.71 0.78,1.95 0.78,5.17c0,2.63 -0.23,3.57 -0.98,4.16c-0.88,0.65 -1.95,0.78 -7.25,0.78c-5.46,0 -6.5,-0.1 -7.38,-0.78c-0.78,-0.62 -0.97,-1.5 -0.97,-4.2c0,-2.76 0.13,-4 0.52,-4.74c0.65,-1.27 1.26,-1.37 7.77,-1.37z" fill="#308fab" id="path858" stroke="#c8f4f3" stroke-width="0.41"/>
    <path d="m108.76,154.28l0,21.69l6.5,0l-0.16,-16.23l1.17,0l8.16,16.23l5.49,0l8.16,-16.23l1.11,0l-0.17,16.23l6.51,0l0,-21.69l-11.9,0l-6.47,14.08l-6.44,-14.08l-11.96,0z" fill="#308fab" id="path860" stroke="#c8f4f3" stroke-width="0.41"/>
    <path d="m147.79,168.78l0,1.04c0,2.99 0.49,4.26 1.98,5.2c1.53,0.98 4.16,1.27 10.89,1.27c6.47,0 9.2,-0.16 10.5,-0.65c2.25,-0.84 3.16,-2.7 3.16,-6.47c0,-3.02 -0.56,-4.48 -2.05,-5.46c-1.4,-0.88 -2.8,-1.04 -9.95,-1.27c-4.58,-0.13 -6.37,-0.23 -6.96,-0.39c-0.68,-0.16 -0.97,-0.58 -0.97,-1.4c0,-1.59 0.45,-1.72 6.05,-1.72c4.68,0 5.49,0.07 6.04,0.39c0.49,0.29 0.59,0.59 0.65,1.79l6.37,0c0.04,-0.42 0.04,-0.88 0.04,-1.01c0,-2.57 -0.52,-3.93 -1.82,-4.81c-1.53,-1.04 -3.81,-1.33 -10.11,-1.33c-5.21,0 -8.2,0.13 -9.46,0.39c-3,0.65 -4.17,2.5 -4.17,6.63c0,4.78 1.5,6.14 6.86,6.31l1.76,0.06l3.51,0.16l5.2,0.2c2.11,0.03 2.6,0.36 2.6,1.66c0,1.91 0,1.91 -7.08,1.91c-4.65,0 -5.37,-0.06 -5.99,-0.45c-0.52,-0.33 -0.65,-0.75 -0.65,-2.05l-6.4,0z" fill="#308fab" id="path862" stroke="#c8f4f3" stroke-width="0.41"/>
    <path d="m191.07,153.96c-9.07,0 -11.09,0.23 -12.75,1.49c-1.65,1.27 -2.14,3.48 -2.14,9.53c0,6.37 0.45,8.52 2.14,9.82c1.66,1.26 3.68,1.49 12.81,1.49c8.98,0 11.02,-0.23 12.68,-1.49c1.66,-1.27 2.15,-3.45 2.15,-9.69c0,-6.21 -0.49,-8.39 -2.15,-9.66c-1.66,-1.26 -3.67,-1.49 -12.74,-1.49zm0,5.62c6.04,0 6.76,0.1 7.51,0.98c0.58,0.71 0.78,1.95 0.78,5.17c0,2.63 -0.23,3.57 -0.98,4.16c-0.88,0.65 -1.95,0.78 -7.25,0.78c-5.46,0 -6.5,-0.1 -7.38,-0.78c-0.78,-0.62 -0.97,-1.5 -0.97,-4.2c0,-2.76 0.13,-4 0.52,-4.74c0.65,-1.27 1.27,-1.37 7.77,-1.37z" fill="#308fab" id="path864" stroke="#c8f4f3" stroke-width="0.41"/>
    <path d="m208.57,154.28l0,21.69l6.73,0l-0.16,-16.19l0.71,0l11.41,16.19l11.48,0l0,-21.69l-6.73,0l0.16,16.16l-0.68,0l-11.35,-16.16l-11.57,0z" fill="#308fab" id="path866" stroke="#c8f4f3" stroke-width="0.41"/>
   </g>
   <text fill="#308fab" font-family="sans-serif" font-size="10.58px" font-style="normal" font-weight="normal" id="text844" letter-spacing="0px" stroke="#c8f4f3" stroke-width="0.26" word-spacing="0px" x="151.57" xml:space="preserve" y="228.21">
    <tspan fill="#308fab" id="tspan842" stroke="#c8f4f3" stroke-width="0.26" x="151.57" y="237.86"/>
   </text>
   <g display="inline" fill="#000000" font-family="&#x27;Microgramma D Extended&#x27;" font-size="38.74px" font-style="normal" font-weight="bold" id="text818-1" stroke-width="0.58" text-anchor="start" transform="matrix(1.4720031,0,0,1.4720031,75.413633,-32.507086)">
    <path d="m30.85,189.32l0,31.01l9.3,0l-0.23,-23.2l1.67,0l11.67,23.2l7.86,0l11.67,-23.2l1.58,0l-0.23,23.2l9.29,0l0,-31.01l-17.01,0l-9.25,20.13l-9.21,-20.13l-17.11,0z" fill="#308fab" id="path869" stroke="#c8f4f3" stroke-miterlimit="4" stroke-width="1.26"/>
    <path d="m108.43,188.86c-12.97,0 -15.85,0.32 -18.23,2.14c-2.37,1.81 -3.06,4.97 -3.06,13.62c0,9.11 0.65,12.18 3.06,14.04c2.38,1.81 5.26,2.14 18.32,2.14c12.83,0 15.76,-0.33 18.13,-2.14c2.38,-1.81 3.07,-4.93 3.07,-13.85c0,-8.88 -0.69,-12 -3.07,-13.81c-2.37,-1.82 -5.25,-2.14 -18.22,-2.14zm0,8.04c8.65,0 9.67,0.14 10.74,1.4c0.84,1.02 1.11,2.79 1.11,7.39c0,3.76 -0.32,5.11 -1.39,5.95c-1.26,0.93 -2.79,1.12 -10.37,1.12c-7.81,0 -9.3,-0.14 -10.55,-1.12c-1.12,-0.88 -1.4,-2.14 -1.4,-6c0,-3.95 0.19,-5.72 0.75,-6.79c0.93,-1.81 1.81,-1.95 11.11,-1.95z" fill="#308fab" id="path871" stroke="#c8f4f3" stroke-miterlimit="4" stroke-width="1.26"/>
    <path d="m163.29,185.68l-21.9,38.26l2.92,0l-0.02,0.03l5.05,0l21.94,-38.25l-2.93,0l0.02,-0.04l-5.08,0z" fill="#308fab" id="path873" stroke="#c8f4f3" stroke-width="0.5"/>
    <path d="m182.94,189.32l0,7.91l13.81,0l0,23.1l9.9,0l0,-23.1l13.81,0l0,-7.91l-37.52,0z" fill="#308fab" id="path875" stroke="#c8f4f3" stroke-width="0.58"/>
    <path d="m243.91,188.86c-12.97,0 -15.85,0.32 -18.23,2.14c-2.37,1.81 -3.06,4.97 -3.06,13.62c0,9.11 0.65,12.18 3.06,14.04c2.38,1.81 5.26,2.14 18.32,2.14c12.83,0 15.76,-0.33 18.13,-2.14c2.37,-1.81 3.07,-4.93 3.07,-13.85c0,-8.88 -0.7,-12 -3.07,-13.81c-2.37,-1.82 -5.25,-2.14 -18.22,-2.14zm0,8.04c8.65,0 9.67,0.14 10.74,1.4c0.84,1.02 1.11,2.79 1.11,7.39c0,3.76 -0.32,5.11 -1.39,5.95c-1.26,0.93 -2.79,1.12 -10.37,1.12c-7.81,0 -9.3,-0.14 -10.55,-1.12c-1.12,-0.88 -1.4,-2.14 -1.4,-6c0,-3.95 0.19,-5.72 0.75,-6.79c0.93,-1.81 1.81,-1.95 11.11,-1.95z" fill="#308fab" id="path877" stroke="#c8f4f3" stroke-width="0.58"/>
   </g>
  </g>
 </g>
</svg>