<?xml version="1.0"?>
<svg width="566.928" height="234.744" xmlns="http://www.w3.org/2000/svg" xmlns:svg="http://www.w3.org/2000/svg" version="1.2" xml:space="preserve">

 <g class="layer">
  <title>Layer 1</title>
  <rect fill="#003E99" height="234.74" id="rect3604" width="566.93" x="0.54" y="0"/>
  <path d="m37.73,201.47l43.06,-169.51l39.93,0l20.75,73.99l21.53,-73.99l37.59,0l35.23,124.88l85.96,-0.16c9.03,-0.09 9.58,-18.75 -0.67,-18.75l-50.06,-0.67c-21.5,0.21 -44.17,-23.05 -43.06,-54.02c0.23,-28.41 25,-50.79 56.7,-50.78l127.69,-0.11l32.49,44.24l31.71,-44.63l52.85,0.39l-57.94,81.43l62.64,88.29l-52.57,-0.16l-36.46,-50.66l-34.68,50.66l-53.63,-0.05l61.07,-87.3l-26.63,-38.76l-110.99,0.17c-12.12,0.11 -11.67,19.17 0.09,18.81l46.77,0.71c19.77,0.13 47.6,20.67 46.91,52.74c0.3,37.28 -33.27,54.31 -49.44,53.4l-122.42,0.16l-20.36,-76.27l-20.35,76.11l-38.65,0l-21.25,-75.72l-18.68,75.84l-45.13,-0.28z" fill="#FFFFFF" id="path2830"/>
 </g>
</svg>