<?xml version="1.0"?>
<svg width="2150" height="450" xmlns="http://www.w3.org/2000/svg" xmlns:svg="http://www.w3.org/2000/svg">
	<g class="layer">
		<title>Layer 1</title>
		<g clip-rule="evenodd" fill-rule="evenodd" id="svg_1">
			<path d="m-45,-845l2162.76,0l0,2162.76l-2162.76,0l0,-2162.76z" fill="none" id="svg_2"/>
			<path d="m387.53,411.19l0,-377.1l-62.72,0l1.01,242.46l-289.7,-239.32l1.01,378.11l54.42,0l0,-244.6l295.98,240.44zm40.06,6.17l48.25,-82.24l-44.21,0l0,-57.45l73.04,0l132.51,-240.44l211.61,380.13l-74.95,0l-43.2,-82.24l-187.93,0l-45.22,82.24l-69.9,0zm140.7,-140.7l135.65,0l-67.77,-124.43l-67.88,124.43zm816.93,140.7l-61.71,0l0,-379.12l209.59,243.47l211.72,-248.63l0,384.28l-65.75,0l-1.01,-206.56l-145.97,175.7l-146.87,-174.69l0,205.55zm478.76,0l1.01,-388.32l62.72,0l-1.01,388.32l-62.72,0zm121.29,-324.71l0,-54.42l-17.5,0l0,-10.32l48.25,0l0,10.32l-18.51,0l0,54.42l-12.23,0zm33.88,-1.01l0,-63.73l17.5,0l18.4,40.17l17.5,-40.17l13.35,0l0,64.74l-12.34,0l0,-42.07l-17.39,42.07l-24.68,-42.07l0,42.07l-12.34,-1.01z" fill="#2885DD" id="svg_3" />
			<path d="m846.76,231.44c0,-114.11 92.45,-206.56 206.56,-206.56c113.99,0 206.45,92.45 206.45,206.56c0,113.99 -92.45,206.45 -206.45,206.45c-114.11,0 -206.56,-92.45 -206.56,-206.45zm206.56,144.85c80.11,0 144.85,-64.74 144.85,-144.85c0,-79.1 -64.74,-143.84 -144.85,-143.84c-79.1,0 -143.84,64.74 -143.84,143.84c0,80.11 64.74,144.85 143.84,144.85z" fill="#cc2229" id="svg_4"/>
		</g>
	</g>
</svg>