<?xml version="1.0" encoding="UTF-8" standalone="no"?>
<!-- Created with Inkscape (http://www.inkscape.org/) -->

<svg
   id="svg3336"
   version="1.1"
   inkscape:version="1.3.2 (091e20e, 2023-11-25, custom)"
   width="873.35748"
   height="193.01132"
   viewBox="0 0 873.35748 193.01132"
   sodipodi:docname="pc88.svg"
   xmlns:inkscape="http://www.inkscape.org/namespaces/inkscape"
   xmlns:sodipodi="http://sodipodi.sourceforge.net/DTD/sodipodi-0.dtd"
   xmlns="http://www.w3.org/2000/svg"
   xmlns:svg="http://www.w3.org/2000/svg"
   xmlns:rdf="http://www.w3.org/1999/02/22-rdf-syntax-ns#"
   xmlns:cc="http://creativecommons.org/ns#"
   xmlns:dc="http://purl.org/dc/elements/1.1/">
  <metadata
     id="metadata3342">
    <rdf:RDF>
      <cc:Work
         rdf:about="">
        <dc:format>image/svg+xml</dc:format>
        <dc:type
           rdf:resource="http://purl.org/dc/dcmitype/StillImage" />
        <dc:title />
      </cc:Work>
    </rdf:RDF>
  </metadata>
  <defs
     id="defs3340" />
  <sodipodi:namedview
     pagecolor="#ffffff"
     bordercolor="#666666"
     borderopacity="1"
     objecttolerance="10"
     gridtolerance="10"
     guidetolerance="10"
     inkscape:pageopacity="0"
     inkscape:pageshadow="2"
     inkscape:window-width="1895"
     inkscape:window-height="988"
     id="namedview3338"
     showgrid="false"
     inkscape:zoom="0.71777778"
     inkscape:cx="438.15789"
     inkscape:cy="94.736842"
     inkscape:window-x="0"
     inkscape:window-y="0"
     inkscape:window-maximized="0"
     inkscape:current-layer="svg3336"
     fit-margin-top="0"
     fit-margin-left="0"
     fit-margin-right="0"
     fit-margin-bottom="0"
     inkscape:showpageshadow="2"
     inkscape:pagecheckerboard="0"
     inkscape:deskcolor="#d1d1d1" />
  <path
     style="fill:#666666"
     d="m 146.20477,191.65856 c -7.99466,-1.75244 -18.03772,-6.16735 -24.76638,-10.88723 -10.93888,-7.67319 -22.791864,-25.50965 -26.678714,-40.14633 -2.25807,-8.50319 -2.2663,-27.48353 -0.0153,-35.15625 6.410294,-21.849442 22.593674,-39.070324 43.228814,-46.000179 8.27834,-2.780096 25.29503,-4.170505 31.40625,-2.56616 l 3.28125,0.861407 0.83135,10.834531 c 0.45724,5.958991 0.55187,12.324267 0.21028,14.145057 l -0.62106,3.310527 -10.99154,0.354505 c -12.69991,0.409603 -18.04981,2.309475 -25.7227,9.134732 -15.21345,13.53278 -15.07605,41.45257 0.2776,56.4075 7.94905,7.7426 19.18753,11.66299 30.18132,10.52834 4.7645,-0.49175 5.12397,-0.38413 5.68209,1.70114 0.32769,1.22435 0.60157,7.8011 0.60862,14.61499 0.0117,11.29634 -0.14713,12.47447 -1.80058,13.35938 -2.52441,1.35102 -18.0877,1.04365 -25.11136,-0.49596 z m 107.28025,0.0248 c -18.61501,-3.70211 -27.89395,-14.31003 -30.85938,-35.27922 -1.98691,-14.04987 1.69211,-25.95978 10.45201,-33.83567 2.60664,-2.3436 4.73935,-4.46843 4.73935,-4.72186 0,-0.25341 -1.33072,-1.87647 -2.95717,-3.60678 -7.72162,-8.21472 -10.16204,-24.725958 -5.7305,-38.771021 2.92342,-9.26536 7.79505,-14.796977 16.65642,-18.913005 5.1987,-2.414747 6.51313,-2.614153 17.34375,-2.631127 11.39429,-0.01786 11.90771,0.07019 18.54354,3.180164 3.98857,1.869293 8.16316,4.679933 10.04528,6.763215 12.40264,13.728231 12.82393,37.093894 0.90779,50.347504 l -4.1526,4.61869 3.7692,2.49433 c 11.44278,7.57248 16.35232,28.41956 10.67547,45.3306 -4.96636,14.79451 -13.68932,22.49709 -28.46173,25.13241 -8.68838,1.54995 -12.73889,1.52905 -20.97143,-0.10823 z m 18.61481,-34.41769 c 7.54293,-6.927 5.66307,-19.95804 -3.40242,-23.58533 -10.84421,-4.33898 -20.40843,7.78661 -15.46808,19.61054 1.74309,4.17178 6.4219,7.01366 11.55457,7.01816 3.20789,0.003 4.65391,-0.59871 7.31593,-3.04337 z m -1.60484,-56.51505 c 9.48751,-7.98321 3.10014,-24.758353 -8.5919,-22.564912 -7.41622,1.39129 -11.56462,11.753742 -7.63014,19.059622 3.30573,6.13838 11.09302,7.82107 16.22204,3.50529 z M 2.6677844,191.37076 c -0.683629,-0.43342 -1.407199,-2.43086 -1.607932,-4.43877 -0.20073302,-2.00791 -0.57731902,-30.73937 -0.83685802,-63.84771 -0.424999,-54.215418 -0.32353,-60.345319 1.02115602,-61.690006 1.313726,-1.313726 4.950302,-1.458963 30.2790166,-1.209284 l 28.785972,0.28376 8.058511,3.994893 c 11.754728,5.827238 17.58433,12.91214 20.783766,25.259157 5.87297,22.66451 -7.881151,45.4691 -30.964273,51.33935 -7.266559,1.84795 -17.783022,2.21248 -19.325625,0.66987 -0.747405,-0.7474 -1.301042,-4.90651 -1.525306,-11.4586 -0.430672,-12.58254 0.427771,-14.51005 6.894106,-15.47973 10.839366,-1.62547 16.70077,-11.98513 11.873617,-20.98588 -2.469442,-4.604544 -6.832493,-6.62031 -14.329396,-6.62031 -3.845655,0 -6.600769,0.449212 -7.202581,1.17435 -0.651595,0.785119 -0.927937,17.74837 -0.833768,51.18091 0.1362,48.35465 0.08126,50.05014 -1.663105,51.32565 -1.35051,0.98752 -5.116963,1.31548 -14.984148,1.30474 -7.2491046,-0.007 -13.7395236,-0.36898 -14.4231526,-0.80239 z M 342.34825,191.22607 c -10.42298,-2.10128 -20.62306,-9.77784 -24.47001,-18.41609 -6.35003,-14.2589 -6.74099,-31.09798 -0.98051,-42.23206 1.76012,-3.40202 7.64396,-9.7821 10.39731,-11.2742 1.73758,-0.94164 1.68367,-1.14458 -1.16612,-4.39031 -6.39663,-7.28535 -9.17258,-16.47483 -8.34424,-27.622701 0.98591,-13.268599 4.89001,-21.286925 13.59868,-27.929247 5.43314,-4.143998 9.21586,-5.144337 21.44388,-5.670829 12.45119,-0.536101 19.36465,1.265444 27.02101,7.041268 14.9557,11.282325 16.89452,40.654829 3.56349,53.985859 l -3.3553,3.3553 4.78912,4.30583 c 3.07972,2.76893 5.88688,6.53569 7.86466,10.55313 3.0003,6.09448 3.07533,6.54592 3.06738,18.45451 -0.007,11.34414 -0.19978,12.66184 -2.71865,18.63736 -4.55098,10.79625 -13.76864,18.57018 -25.125,21.18974 -4.72445,1.08979 -20.20437,1.09731 -25.5857,0.0125 z m 18.81007,-32.53727 c 11.91974,-5.68412 7.40916,-26.22758 -5.69632,-25.94403 -7.50892,0.16247 -12.63524,5.75297 -12.64149,13.78616 -0.008,10.82999 8.83176,16.69099 18.33781,12.15787 z m -0.56616,-57.09712 c 3.79912,-2.2442 5.66234,-6.0335 5.66234,-11.515724 0,-4.147941 -0.43074,-5.261012 -3.20921,-8.292848 -2.8644,-3.125603 -3.69985,-3.501858 -7.77561,-3.501858 -5.90638,0 -9.0326,2.09639 -11.06594,7.420623 -2.15072,5.631571 -1.24203,10.255337 2.8122,14.309567 2.53697,2.53697 3.84199,3.11356 7.04704,3.11356 2.16341,0 5.10154,-0.68999 6.52918,-1.53332 z m 81.36164,89.578 c -23.93018,-5.63991 -38.37246,-34.49289 -37.01289,-73.94486 1.37542,-39.91226 19.50392,-63.303876 48.96984,-63.186898 15.24615,0.06052 24.70475,3.85463 33.62256,13.486938 8.28491,8.94869 13.73211,22.334234 16.20417,39.81889 1.22701,8.67857 1.2862,12.34293 0.3736,23.12747 -0.59643,7.04824 -1.92069,16.31632 -2.94281,20.59575 -2.06023,8.62588 -8.71907,22.68366 -13.48285,28.46428 -3.94139,4.78268 -11.59585,9.36226 -18.73726,11.21031 -6.07086,1.571 -21.13164,1.80986 -26.99436,0.42812 z m 19.83309,-32.21554 c 8.55463,-4.42377 12.42632,-14.60847 13.00273,-34.20442 0.53476,-18.18035 -1.10373,-26.11074 -7.09842,-34.356823 -3.42095,-4.705738 -7.93905,-6.955397 -13.96885,-6.955397 -8.19151,0 -14.65537,6.025144 -18.6066,17.34375 -2.17883,6.24143 -2.93407,25.49272 -1.36088,34.68962 2.6029,15.21673 10.65301,24.84163 20.77713,24.84163 2.54547,0 5.81016,-0.61126 7.25489,-1.35836 z m 87.31096,31.73254 c -9.38839,-2.52308 -19.14232,-10.41083 -24.40491,-19.73564 -1.50819,-2.67235 -3.16531,-5.12036 -3.68251,-5.44 -1.72426,-1.06565 -6.59111,-18.15151 -7.54708,-26.49524 -3.03151,-26.45902 0.65578,-48.154181 10.70762,-63.001068 12.67557,-18.722247 29.02547,-25.626975 50.15702,-21.181817 9.04214,1.902071 15.46229,5.366874 21.63638,11.676621 14.83859,15.164634 20.58369,44.171264 15.32933,77.396714 -4.14081,26.18399 -17.58497,43.85583 -36.02448,47.35281 -6.99461,1.3265 -20.17853,1.03816 -26.17137,-0.57238 z m 21.34383,-31.69673 c 5.14275,-2.68671 8.75484,-7.74749 10.98572,-15.39173 5.71324,-19.57678 2.83217,-46.19595 -5.96386,-55.102204 -6.22217,-6.300126 -14.18627,-7.261469 -21.40105,-2.583312 -4.41798,2.864665 -7.10047,6.833576 -9.85145,14.575856 -2.90187,8.16696 -3.13721,31.78481 -0.40707,40.854 2.15647,7.16357 6.81906,13.94315 11.56532,16.81642 4.12388,2.4965 11.14352,2.8835 15.07239,0.83097 z m 220.4963,26.16145 c -0.7563,-0.91128 -1.00638,-3.12541 -0.70603,-6.25113 0.51564,-5.36649 2.24584,-7.33777 6.44038,-7.33777 2.88274,0 10.43164,-6.51565 24.94233,-21.52837 8.39234,-8.68269 10.06453,-11.49831 7.42937,-12.50951 -0.70014,-0.26867 -9.03217,-0.7794 -18.51563,-1.13496 -19.76633,-0.7411 -20.10896,-0.88222 -19.18381,-7.90129 0.30214,-2.29234 1.07344,-4.51695 1.714,-4.94359 0.64056,-0.42664 10.51327,-0.66046 21.93934,-0.51962 l 20.77468,0.25609 3.60032,2.9118 c 2.28631,1.84908 4.21746,4.56655 5.29125,7.44572 2.43155,6.51977 1.00838,11.77935 -5.06546,18.72027 -2.62557,3.00039 -4.34385,5.75505 -3.98081,6.38186 0.3513,0.60657 1.8165,2.61857 3.25598,4.47112 2.40537,3.0956 6.7859,11.6984 9.22955,18.12567 1.48007,3.89289 -0.10406,5.22481 -6.2141,5.22481 -5.64002,0 -5.34014,0.30202 -12.04109,-12.12706 -3.94501,-7.3173 -5.28,-7.21459 -12.60789,0.97006 -4.33627,4.84325 -7.4258,7.34769 -11.03126,8.94219 -5.83739,2.58158 -13.46257,2.98288 -15.27112,0.80371 z m -159.13661,-0.5915 c -0.68934,-0.69701 -1.17187,-3.62898 -1.17187,-7.12057 0,-3.91776 0.3984,-6.06685 1.17187,-6.32152 0.64454,-0.21222 8.47634,-0.62052 17.40401,-0.90734 8.92766,-0.28681 17.03909,-0.95337 18.02539,-1.48122 3.71056,-1.98583 4.17536,-4.4494 4.2989,-22.78567 0.0715,-10.61855 0.50106,-18.03231 1.07813,-18.60938 1.46526,-1.46526 12.47731,-1.21422 13.44095,0.30642 0.44113,0.6961 0.8085,9.52251 0.8164,19.61425 0.0161,20.63641 -0.88618,25.28118 -5.96745,30.71791 -6.16951,6.6011 -8.31232,7.15032 -29.17445,7.47774 -14.18978,0.2227 -19.03502,0.006 -19.92188,-0.89062 z m 61.61743,-1.33968 c -1.25473,-3.30016 -1.14864,-5.5321 0.44411,-9.34408 l 1.35842,-3.25114 9.6572,-0.0529 c 11.07852,-0.0607 15.23459,-1.19993 18.00691,-4.93591 1.81933,-2.45172 1.9795,-4.02797 2.19113,-21.5625 0.20253,-16.78134 0.41425,-19.05814 1.875,-20.16365 2.13223,-1.61369 11.3344,-0.97929 12.49986,0.86177 0.46027,0.72708 0.84332,10.24926 0.85122,21.16041 0.0131,18.09607 -0.16367,20.30365 -2.01256,25.1351 -1.33982,3.50115 -3.28368,6.37239 -5.73431,8.47004 -5.82453,4.98555 -10.39408,6.08762 -25.24149,6.08762 l -12.9812,0 -0.91429,-2.40478 z m 52.5232,-22.65355 c -2.13161,-0.81144 -2.78238,-2.2476 -2.79815,-6.17518 -0.0302,-7.51764 -1.21031,-7.20399 27.10583,-7.20399 28.31759,0 26.31732,-0.57337 26.31732,7.54369 0,3.56649 -0.40061,4.79224 -1.81337,5.54833 -1.899,1.01631 -46.21131,1.27699 -48.81163,0.28715 z m -114.14063,-4.62506 c -1.54263,-0.62247 -1.58188,-11.7191 -0.0469,-13.25411 1.34233,-1.34233 25.78298,-1.56998 27.85321,-0.25943 0.78436,0.49652 1.50393,3.03101 1.76939,6.2322 0.63278,7.63044 0.0525,7.91989 -15.69241,7.82821 -6.99129,-0.0407 -13.23878,-0.2868 -13.88331,-0.54687 z M 693.6295,152.625 c -0.76985,-0.76985 -1.125,-5.34683 -1.125,-14.49827 0,-15.21291 0.0519,-15.31423 7.84015,-15.31423 6.75636,0 7.15985,0.89135 7.15985,15.81697 0,8.76041 -0.35926,13.22979 -1.125,13.99553 -0.61875,0.61875 -3.4875,1.125 -6.375,1.125 -2.8875,0 -5.75625,-0.50625 -6.375,-1.125 z m -59.06275,-15.54248 c -3.94451,-0.42497 -5.32345,-3.5493 -4.22357,-9.56955 l 0.77311,-4.23172 14.52223,0 14.52223,0 0.28272,5.99853 c 0.1555,3.29919 -0.13287,6.41412 -0.64081,6.92206 -0.90409,0.90409 -19.11867,1.53972 -25.23591,0.88068 z m 214.1768,-4.73446 c -0.85336,-0.94295 -1.55155,-2.55691 -1.55155,-3.58659 0,-2.17639 3.6739,-5.94897 5.79337,-5.94897 2.25799,0 6.39413,3.68263 6.39413,5.69304 0,4.65993 -7.45785,7.35427 -10.63595,3.84252 z m 15.6392,0.60654 c -2.38991,-1.15607 -3.13783,-3.33593 -2.10371,-6.1314 1.67723,-4.53399 8.63767,-4.90564 10.29383,-0.54963 1.21749,3.20225 1.11741,3.79065 -1.00587,5.91393 -2.05465,2.05465 -4.07629,2.27051 -7.18425,0.7671 z m -693.64349,-2.71732 c -1.30757,-2.11569 -1.66263,-19.52398 -0.42854,-21.01096 0.98021,-1.18109 4.54259,-1.41382 21.64109,-1.41382 l 20.46772,0 0.5612,3.04688 c 0.30866,1.67578 0.43325,6.84375 0.27686,11.48437 l -0.28434,8.4375 -20.79308,0.25213 c -14.56411,0.17661 -20.98713,-0.0619 -21.44091,-0.7961 z M 2.9938634,46.908358 C 2.7206344,46.466265 3.7643764,40.620329 5.3132894,33.91739 8.6740224,19.373786 8.8232354,16.374747 6.2544964,15 5.2232464,14.448092 4.3948784,13.48403 4.4136804,12.85764 4.4559924,11.447936 14.262651,0.9375 15.535649,0.9375 c 0.508765,0 1.478415,0.7900722 2.154779,1.755716 3.412117,4.87148 19.002292,21.607907 19.551441,20.988942 0.716364,-0.80744 4.654076,-17.747524 4.644114,-19.979033 -0.01928,-4.3181638 3.565147,-3.8126763 9.779919,1.379198 l 2.755156,2.30168 -3.136356,1.698624 C 46.049096,11.918186 44.998851,13.520585 43.338083,21.20709 38.960744,41.466656 37.581679,46.394075 36.233625,46.591433 35.471667,46.702987 30.629496,41.922173 25.473246,35.967406 13.992072,22.708208 13.25291,22.216675 11.905387,26.944934 c -0.552346,1.938098 -1.245071,5.211316 -1.539389,7.273816 -0.4917976,3.446387 -0.300385,3.887122 2.364187,5.443627 1.594621,0.931496 2.899311,2.023935 2.899311,2.427643 0,1.509591 -11.8805966,6.040012 -12.6356326,4.818338 z M 105.62343,46.050653 c -4.82953,-1.575122 -8.411694,-3.962374 -10.961104,-7.304769 -2.24861,-2.948048 -2.66916,-4.465906 -2.92246,-10.54786 -0.27676,-6.645216 -0.095,-7.434189 2.8125,-12.209956 2.09259,-3.437196 5.09976,-6.521273 9.202134,-9.437486 C 111.19266,1.2630888 114.63283,0 121.59576,0 l 5.37398,0 1.56808,4.453125 c 0.86243,2.449219 1.78433,5.110867 2.04866,5.914773 0.30908,0.940006 -0.39392,1.860103 -1.96981,2.578125 -3.94306,1.796582 -5.48299,1.303215 -8.28234,-2.65354 -1.45141,-2.05149 -3.16179,-3.729983 -3.80083,-3.729983 -2.32938,0 -9.72542,5.482371 -11.69476,8.668827 -1.11196,1.799181 -2.02017,4.698004 -2.01823,6.44183 0.005,4.090159 3.04112,9.038309 6.32505,10.30667 3.58967,1.386451 10.13037,0.317175 14.80022,-2.419545 2.16527,-1.268931 4.18265,-2.061354 4.48306,-1.76094 0.88121,0.881206 -7.54951,16.904184 -9.23461,17.550818 -2.74309,1.052624 -11.15914,1.487042 -13.5708,0.700493 z M 44.691996,44.951231 c 0,-0.542447 1.239093,-1.418218 2.753541,-1.946157 2.446871,-0.852983 2.916723,-1.677355 4.21875,-7.401924 1.835468,-8.069941 1.848192,-10.29065 0.05896,-10.29065 -2.206088,0 -1.644629,-1.611906 0.772797,-2.218641 1.869658,-0.469254 2.414717,-1.643607 3.838879,-8.27103 1.652818,-7.691485 1.651534,-7.730842 -0.304047,-9.314375 -2.702409,-2.188278 -2.459082,-3.6315518 0.614246,-3.6433549 1.417969,-0.00545 9.844781,-0.2787382 18.72625,-0.6073171 18.569204,-0.6869863 17.912954,-1.0006362 15.994994,7.644691 -1.38525,6.244127 -2.89807,7.439674 -4.305435,3.402499 -1.457906,-4.182148 -4.42574,-6.681834 -7.915809,-6.66717 -6.36234,0.02673 -6.88949,0.529111 -8.567292,8.164737 -0.856642,3.898546 -1.367878,7.277916 -1.136081,7.509712 0.846599,0.8466 4.516115,-0.923093 7.687083,-3.707241 1.788127,-1.569995 3.50753,-2.598145 3.820898,-2.284777 0.907664,0.907666 -2.759086,17.496142 -3.858547,17.456154 -0.546115,-0.01987 -1.845406,-1.390955 -2.887313,-3.046875 -1.290221,-2.050567 -2.624682,-3.010762 -4.184304,-3.010762 -2.082431,0 -2.434303,0.635968 -3.883287,7.018609 -0.876349,3.860235 -1.364377,7.389111 -1.084509,7.841947 0.798635,1.292221 9.269556,0.12921 11.976229,-1.64427 1.343419,-0.880242 3.582243,-3.248776 4.975167,-5.263409 2.35964,-3.412841 5.64698,-5.219657 4.618012,-2.538187 -0.252412,0.657766 -0.979584,3.716359 -1.61595,6.796875 -0.636356,3.080514 -1.635131,5.910881 -2.219503,6.289704 C 81.04781,46.34665 44.691996,46.090125 44.691996,44.951231 Z M 285.6947,42.725651 c -2.15451,-2.293373 -1.97451,-4.288151 0.38695,-4.288151 1.86267,0 6.89524,-4.485513 8.48777,-7.565115 0.75492,-1.45985 1.37258,-4.362723 1.37258,-6.450829 l 0,-3.796556 -9.375,0 -9.375,0 0,-3.28125 0,-3.28125 8.85092,0 c 10.51696,0 10.39868,0.09136 10.69379,-8.259717 l 0.14279,-4.0409678 3.51562,0.2909676 3.51563,0.2909672 0.46875,5.625 0.46875,5.625 8.20312,0.270875 8.20313,0.270874 0,3.20957 0,3.20957 -8.67188,0.269555 -8.67187,0.269556 -0.65974,5.982073 c -0.74179,6.726058 -3.43176,11.614071 -8.53248,15.504576 -3.95793,3.018863 -6.28896,3.056385 -9.02383,0.145252 z m 296.7175,-0.633129 c -2.90349,-3.450595 -2.36563,-4.189572 3.7194,-5.110217 4.19916,-0.635319 11.84186,-4.170444 12.35695,-5.715697 0.18212,-0.546362 -2.00385,-2.601547 -4.85771,-4.567077 -2.85387,-1.965528 -5.18884,-3.851902 -5.18884,-4.191941 0,-0.340038 1.01488,-1.571685 2.2553,-2.736994 2.55399,-2.399349 3.80203,-2.044162 10.06711,2.865055 1.87889,1.472267 3.68685,2.676849 4.01769,2.676849 0.76435,0 4.2849,-8.15166 4.2849,-9.921473 0,-1.045353 -1.74848,-1.327952 -8.20313,-1.325832 -8.09662,0.0026 -8.22747,0.03962 -10.07812,2.846838 -1.03125,1.564278 -3.74446,4.310903 -6.02934,6.103611 l -4.15435,3.25947 -2.69752,-2.584392 -2.69753,-2.584393 2.16437,-1.699644 c 7.10822,-5.581971 10.86187,-10.60665 13.27198,-17.76606 0.58435,-1.7358286 3.93578,-2.1784493 6.10197,-0.8058818 0.8788,0.5568281 1.07315,1.7117908 0.62865,3.7356438 L 596.73052,7.5 l 10.38699,0 c 11.65718,0 11.06213,-0.489703 9.34206,7.68823 -2.53,12.028722 -9.76676,21.48002 -19.96715,26.077341 -9.39397,4.233868 -11.12781,4.335698 -14.08022,0.826951 z m -435.96747,-0.368123 -2.77853,-2.27067 1.9696,-2.148739 c 4.28993,-4.680098 8.24201,-14.561441 10.19414,-25.488291 0.72733,-4.071128 1.45826,-7.537894 1.62429,-7.703924 0.16603,-0.166031 1.86788,0.178748 3.78189,0.766177 2.46711,0.757174 3.35562,1.498722 3.05261,2.547675 -0.23508,0.813793 -0.72049,3.588998 -1.07867,6.167123 -1.44815,10.42335 -9.94135,30.522452 -12.86082,30.435035 -0.61929,-0.01854 -2.37632,-1.055518 -3.90451,-2.304386 z m 35.34667,1.166226 C 178.32423,38.580522 171.4638,20.947762 169.84562,12.1875 c -0.33335,-1.804688 -0.78691,-3.934285 -1.00791,-4.732439 -0.26859,-0.970069 0.63141,-1.824807 2.71467,-2.578125 4.26644,-1.542764 4.14443,-1.614182 4.88217,2.857439 1.36602,8.279615 5.25516,18.450331 9.44347,24.696194 l 4.30507,6.419993 -2.91659,2.605969 c -3.25806,2.911085 -4.10791,3.133684 -5.4751,1.434094 z m 59.81676,-1.332488 c -1.08346,-1.377399 -1.64143,-2.79973 -1.23992,-3.160736 0.4015,-0.361006 3.22883,-1.424143 6.28294,-2.362526 11.4144,-3.507094 17.8084,-11.631406 18.97348,-24.107979 l 0.58847,-6.301896 3.55911,0 c 1.95751,0 3.76278,0.329549 4.01171,0.732331 0.79657,1.288882 -1.94958,14.799085 -3.90811,19.226668 -2.78088,6.286649 -9.15204,12.72049 -15.65259,15.806587 -7.12012,3.380235 -10.05731,3.419246 -12.61509,0.167551 z m 78.05536,0.496724 -2.00763,-2.007641 3.19272,-4.641407 c 4.11965,-5.988907 4.92464,-9.304614 5.25255,-21.634806 0.14825,-5.574384 0.51744,-10.53637 0.82044,-11.026635 0.303,-0.4902667 1.9411,-0.6133567 3.64021,-0.2735345 l 3.0893,0.6178595 -0.41919,12.283776 c -0.44409,13.012944 -1.90045,18.696465 -6.53504,25.503198 -2.50901,3.684935 -4.23777,3.974774 -7.03336,1.17919 z m 18.46598,-18.963447 0,-21.216414 3.28125,0 3.28125,0 0,15.882172 c 0,9.305882 0.37851,16.116098 0.91411,16.447121 0.50275,0.310721 2.8001,-1.173501 5.1052,-3.298272 3.37697,-3.112777 4.41211,-4.850789 5.32883,-8.947122 1.23228,-5.506364 1.40542,-5.640093 5.11452,-3.950114 2.30193,1.048826 2.44534,1.447911 1.91381,5.325809 -0.31602,2.305614 -1.75663,6.330567 -3.20136,8.944341 -2.19393,3.969202 -3.62444,5.258229 -8.68108,7.82245 -3.32985,1.688575 -7.62978,3.325805 -9.55541,3.63829 l -3.50112,0.568155 0,-21.216416 z m 68.45069,16.792292 c -0.62566,-1.895759 -0.99005,-3.567349 -0.80975,-3.714645 0.18029,-0.147295 4.36041,-1.185439 9.28915,-2.306985 5.06506,-1.152568 10.4115,-3.024588 12.29668,-4.305602 3.53699,-2.403447 8.99051,-10.034731 11.07243,-15.493974 0.68823,-1.804688 1.59999,-3.676444 2.02614,-4.159459 0.92739,-1.051122 5.48716,2.952891 5.48716,4.818363 0,1.984298 -5.18161,11.657489 -8.11912,15.157035 -5.21539,6.213243 -15.34429,11.17763 -26.22738,12.854586 -3.81329,0.587582 -3.89667,0.540215 -5.01531,-2.849319 z M 394.3795,41.33101 c 0,-0.614195 -5.24118,-1.064546 -14.29688,-1.228467 l -14.29687,-0.258793 -0.28949,-3.49091 -0.2895,-3.490909 14.352,-0.259091 14.35199,-0.25909 0.26832,-9.140625 0.26832,-9.140625 -14.56519,0 -14.5652,0 0,-3.28125 0,-3.28125 18.3024,0 18.3024,0 -0.25553,17.109375 -0.25552,17.109375 -3.51563,0.290967 c -1.98405,0.164209 -3.51562,-0.131466 -3.51562,-0.678707 z m 57.78268,-1.086554 -2.47018,-1.943043 0,-18.213207 0,-18.213206 3.18095,0 c 3.85853,0 4.31905,0.96455 4.31905,9.046102 0,5.349538 0.19717,6.02226 1.64062,5.597712 0.90235,-0.265395 4.38282,-1.176229 7.73438,-2.024074 3.35156,-0.847845 7.46484,-2.114168 9.14062,-2.814051 2.79984,-1.169339 3.04688,-1.615773 3.04688,-5.506117 0,-3.308165 0.42,-4.4583781 1.92136,-5.2618844 3.24777,-1.7381514 6.82601,-0.7478419 8.27587,2.2904164 1.84569,3.867734 0.46553,7.273082 -3.39665,8.380739 -2.51966,0.722628 -2.93234,1.217066 -2.48929,2.982361 0.46581,1.855894 -0.0836,2.344986 -4.46821,3.977211 -2.74963,1.0236 -8.16339,2.584265 -12.03058,3.468145 -3.86719,0.883879 -7.55859,1.764 -8.20313,1.955823 -0.75359,0.224282 -1.17187,2.193344 -1.17187,5.516582 0,4.805773 0.17369,5.211405 2.47923,5.790058 1.36357,0.342236 7.6917,0.34359 14.0625,0.003 l 11.58327,-0.619229 0,3.764853 0,3.764853 -15.34232,0 c -14.10186,0 -15.54204,-0.157101 -17.8125,-1.943044 z M 485.317,6.5625 c 0,-0.515625 -0.65771,-0.9375 -1.46158,-0.9375 -0.80387,0 -1.20084,0.421875 -0.88217,0.9375 0.31867,0.515625 0.97639,0.9375 1.46158,0.9375 0.48519,0 0.88217,-0.421875 0.88217,-0.9375 z m 5.54688,34.453125 c -0.70527,-2.115819 -0.23756,-4.719948 0.96316,-5.362549 0.83402,-0.446355 5.6167,-0.775894 10.62817,-0.732309 5.01148,0.04358 9.37797,-0.186947 9.70331,-0.512291 0.32535,-0.325346 0.80391,-3.559723 1.06348,-7.187506 l 0.47193,-6.59597 -8.93057,0 c -8.87435,0 -8.93451,-0.01562 -9.55288,-2.479355 -0.34225,-1.363644 -0.24868,-2.85295 0.20794,-3.309569 0.45662,-0.456619 6.49169,-0.712003 13.41128,-0.567521 l 12.58105,0.262695 -0.10579,2.34375 c -0.0582,1.289062 -0.43524,5.824219 -0.83791,10.078125 -0.80306,8.483646 -1.21934,7.815902 5.05063,8.101471 2.61027,0.118885 4.41237,2.470967 3.57169,4.661726 -0.51776,1.349275 -2.84649,1.533678 -19.36795,1.533678 -10.32868,0 -18.81458,-0.105469 -18.85754,-0.234375 z M 190.0045,23.90625 l 0,-3.315807 21.79687,0.251654 21.79688,0.251653 0,2.8125 0,2.8125 -21.79688,0.251653 -21.79687,0.251654 0,-3.315807 z m 338.14216,2.673407 c -0.35319,-0.353186 -0.64216,-1.81162 -0.64216,-3.240964 0,-2.34264 0.39275,-2.655222 3.98437,-3.171148 2.19141,-0.314787 12,-0.446106 21.79688,-0.291817 l 17.8125,0.280522 0,3.28125 0,3.28125 -21.15472,0.251532 c -11.63509,0.138342 -21.44369,-0.03743 -21.79687,-0.390625 z M 237.89915,15.442559 c -3.42833,-7.689111 -3.3471,-8.153488 1.6591,-9.483983 2.55898,-0.680099 2.85207,-0.316103 6.36319,7.902432 2.72707,6.383286 2.49348,7.323538 -2.03999,8.211439 -2.70054,0.528915 -2.87821,0.332016 -5.9823,-6.629888 z m 174.52722,-1.979781 c -3.22265,-2.343732 -5.8442,-4.538687 -5.82566,-4.877679 0.0186,-0.338992 1.00757,-1.806548 2.19783,-3.261237 l 2.16412,-2.644888 4.59904,3.03068 c 2.52948,1.666874 5.5341,3.866527 6.67695,4.888116 l 2.07791,1.857434 -1.90738,2.678648 c -1.04904,1.473256 -2.40598,2.65876 -3.01539,2.634452 -0.60942,-0.02431 -3.74476,-1.961794 -6.96742,-4.305526 z M 180.40801,11.953125 c -2.87996,-2.224219 -2.15577,-8.304123 1.20325,-10.1018094 4.01257,-2.1474692 8.39324,0.9782674 8.39324,5.9888374 0,4.535855 -5.81946,7.030022 -9.59649,4.112972 z m 5.31703,-4.551361 C 185.07069,6.343015 182.5045,6.296788 182.5045,7.34375 c 0,1.319291 1.05537,1.927173 2.43002,1.399669 0.72006,-0.276315 1.0758,-0.880059 0.79052,-1.341655 z"
     id="path3346"
     inkscape:connector-curvature="0" />
</svg>
