<?xml version="1.0" encoding="UTF-8" standalone="no"?>
<!-- Created with Inkscape (http://www.inkscape.org/) -->

<svg
   id="svg3336"
   version="1.1"
   inkscape:version="1.3.2 (091e20e, 2023-11-25, custom)"
   width="1219.3757"
   height="303.95889"
   viewBox="0 0 1219.3757 303.95889"
   sodipodi:docname="pc98.svg"
   xmlns:inkscape="http://www.inkscape.org/namespaces/inkscape"
   xmlns:sodipodi="http://sodipodi.sourceforge.net/DTD/sodipodi-0.dtd"
   xmlns="http://www.w3.org/2000/svg"
   xmlns:svg="http://www.w3.org/2000/svg"
   xmlns:rdf="http://www.w3.org/1999/02/22-rdf-syntax-ns#"
   xmlns:cc="http://creativecommons.org/ns#"
   xmlns:dc="http://purl.org/dc/elements/1.1/">
  <metadata
     id="metadata3342">
    <rdf:RDF>
      <cc:Work
         rdf:about="">
        <dc:format>image/svg+xml</dc:format>
        <dc:type
           rdf:resource="http://purl.org/dc/dcmitype/StillImage" />
        <dc:title />
      </cc:Work>
    </rdf:RDF>
  </metadata>
  <defs
     id="defs3340" />
  <sodipodi:namedview
     pagecolor="#ffffff"
     bordercolor="#666666"
     borderopacity="1"
     objecttolerance="10"
     gridtolerance="10"
     guidetolerance="10"
     inkscape:pageopacity="0"
     inkscape:pageshadow="2"
     inkscape:window-width="1920"
     inkscape:window-height="997"
     id="namedview3338"
     showgrid="false"
     inkscape:zoom="1.269179"
     inkscape:cx="200.12938"
     inkscape:cy="234.40351"
     inkscape:window-x="-8"
     inkscape:window-y="-8"
     inkscape:window-maximized="1"
     inkscape:current-layer="svg3336"
     fit-margin-top="0"
     fit-margin-left="0"
     fit-margin-right="0"
     fit-margin-bottom="0"
     inkscape:showpageshadow="2"
     inkscape:pagecheckerboard="0"
     inkscape:deskcolor="#d1d1d1" />
  <path
     style="fill:#666666"
     d="m 660.93039,303.03726 c -5.8712,-0.97649 -17.44543,-5.62133 -21.39624,-8.5865 -7.51549,-5.64055 -11.88814,-9.998 -14.97766,-14.92557 -1.86513,-2.97477 -3.82714,-5.13922 -4.36002,-4.80987 -0.53287,0.32933 -0.69747,0.15965 -0.36576,-0.37706 0.3317,-0.53671 -0.61108,-3.66049 -2.09509,-6.94173 -9.4175,-20.82277 -13.31143,-51.87123 -10.03878,-80.04471 3.82343,-32.91491 13.47993,-52.02113 32.83483,-64.96647 10.21931,-6.8351 19.76253,-9.70531 31.95439,-9.6106 15.43859,0.11993 22.94459,1.78068 32.5265,7.19669 3.0923,1.74788 5.77302,3.17796 5.95713,3.17796 0.18412,0 2.51595,2.00391 5.18183,4.45312 11.66366,10.7157 19.08871,26.89921 23.97962,52.26563 2.30414,11.95027 2.29789,45.12704 -0.0109,57.65625 -3.36397,18.25574 -7.59622,29.47373 -15.22942,40.36713 -9.18666,13.11034 -20.45808,21.19168 -34.55487,24.77503 -6.10978,1.55308 -21.15595,1.74276 -29.40558,0.3707 z m 21.2024,-38.2395 c 6.69096,-3.44167 10.61062,-9.31416 14.14412,-21.19095 5.21951,-17.54381 5.02645,-46.00438 -0.47301,-69.73001 -3.32504,-14.34482 -12.34034,-24.53028 -21.6471,-24.45681 -6.34847,0.0502 -13.93009,5.91332 -18.0246,13.93924 -5.71524,11.20276 -8.62755,36.13553 -6.73362,57.64746 2.36743,26.89018 8.06151,40.47551 18.52866,44.20695 5.09989,1.81806 10.14997,1.67021 14.20555,-0.41588 z m 122.45148,37.96371 c -12.06452,-2.76605 -20.65776,-7.49798 -28.97321,-15.9543 -6.16287,-6.26727 -7.36972,-8.0502 -12.243,-18.08708 -14.12877,-29.0993 -16.48851,-77.56682 -5.34831,-109.85123 6.28329,-18.20902 17.38863,-31.6897 32.70789,-39.70381 8.70728,-4.55512 16.1514,-6.39049 26.82847,-6.61466 27.17058,-0.57045 49.8063,14.78503 59.64796,40.4636 1.5107,3.94166 4.13815,13.07291 5.83877,20.29166 2.99803,12.7258 3.093,13.75232 3.12375,33.75 0.0234,15.1638 -0.40247,23.39167 -1.608,31.07371 -1.62281,10.34106 -5.54891,23.36443 -9.20256,30.52615 -3.21867,6.30912 -10.22053,16.01501 -14.73928,20.43139 -2.37409,2.32031 -4.21504,4.56652 -4.091,4.99156 0.12403,0.42504 -0.19934,0.51023 -0.71862,0.1893 -0.51928,-0.32093 -2.53364,0.5022 -4.47635,1.82917 -1.94273,1.32699 -6.90722,3.48539 -11.03222,4.79648 -9.428,2.99658 -26.82353,3.90647 -35.71429,1.86806 z m 24.22464,-38.70038 c 4.37896,-2.53524 9.35311,-10.48092 12.38019,-19.77605 2.20883,-6.78257 2.73197,-10.40758 3.33443,-23.10578 2.15825,-45.4904 -9.59537,-74.93825 -28.4952,-71.39262 -6.92726,1.29956 -14.04471,8.92176 -17.49344,18.73401 -7.35924,20.93836 -6.299,63.95881 2.0654,83.80663 1.77685,4.21629 8.8287,11.86135 12.33415,13.37176 3.08331,1.3285 12.41351,0.3658 15.87447,-1.63795 z m -451.1666,37.33248 c 0,-1.94055 1.94812,-6.6697 7.96608,-19.33792 7.86142,-16.54888 10.72083,-22.8919 14.99895,-33.27223 2.38476,-5.78631 4.14551,-10.71099 3.91278,-10.94372 -0.23274,-0.23273 -4.5806,-1.27246 -9.66192,-2.31051 -5.08132,-1.03804 -11.13908,-2.84566 -13.4617,-4.01694 -23.42935,-11.81521 -37.50419,-32.97547 -37.50419,-56.3842 0,-10.86421 1.20609,-16.77628 5.20095,-25.49428 1.713,-3.73828 2.96298,-6.79687 2.77774,-6.79687 -1.52653,0 12.94099,-15.10386 17.33381,-18.09622 2.32031,-1.58058 4.5287,-3.3235 4.90752,-3.87315 0.37883,-0.54966 0.69523,-0.63132 0.70313,-0.18147 0.007,0.44986 0.54169,0.40137 1.18622,-0.10774 0.64454,-0.50912 4.75782,-2.3339 9.14063,-4.05507 7.657,-3.00695 8.48222,-3.13111 21.09375,-3.17349 10.34827,-0.0348 14.21586,0.32134 18.28125,1.68329 8.25211,2.76456 16.91149,7.3999 20.05687,10.73641 1.79834,1.90761 3.53977,2.92695 4.5538,2.66556 0.90306,-0.2328 1.43808,-0.0935 1.18893,0.30969 -0.24914,0.40312 0.91043,2.53419 2.57683,4.73571 6.62157,8.7479 7.45987,9.98741 9.71752,14.36825 5.9485,11.54268 7.65838,29.43354 4.10838,42.98702 -1.87916,7.17443 -14.48719,37.64924 -23.33529,56.40364 -2.6425,5.60103 -4.80454,10.39566 -4.80454,10.65474 0,0.25908 -2.28857,5.16861 -5.0857,10.91006 -2.79714,5.74146 -7.20114,15.29058 -9.78667,21.22027 -3.18328,7.30057 -5.4004,11.15512 -6.86743,11.93931 -1.50663,0.80535 -7.80561,1.16226 -20.68208,1.17187 -17.47664,0.013 -18.51562,-0.0847 -18.51562,-1.74201 z m 38.39767,-105.21163 c 15.40767,-6.81301 19.01435,-26.80801 7.00234,-38.82002 -5.22288,-5.22288 -8.45568,-6.52903 -15.95116,-6.44472 -11.46188,0.12892 -20.42623,6.653 -23.48016,17.08842 -3.64193,12.44459 3.10175,24.84605 15.99784,29.41965 5.46832,1.93934 10.01091,1.5956 16.43115,-1.24333 z m 112.22085,105.98531 c -17.23727,-2.89313 -30.04109,-10.15538 -39.13101,-22.19488 -8.09279,-10.71883 -12.08426,-22.41286 -12.10138,-35.45413 -0.0175,-13.34684 2.58122,-21.06136 11.61814,-34.48908 2.36953,-3.52082 4.30823,-6.74302 4.30823,-7.16043 0,-0.41741 -1.52898,-2.98168 -3.39773,-5.69837 -11.60464,-16.87018 -12.97301,-36.61715 -3.82719,-55.23061 6.14954,-12.51548 21.6535,-24.78391 34.43451,-27.24833 16.74032,-3.22785 31.80199,-2.45269 44.38739,2.28444 6.16805,2.32165 16.15289,9.1388 18.68943,12.7602 0.70841,1.0114 1.56659,1.63066 1.90705,1.37613 0.34047,-0.25453 0.42057,-0.19401 0.17799,0.13451 -0.45036,0.60992 2.96094,5.96933 4.46033,7.00751 0.4556,0.31547 0.805,0.83738 0.77644,1.15981 -0.0286,0.32245 0.81675,2.59558 1.87847,5.05144 7.20137,16.65743 5.66356,36.24773 -4.02168,51.2327 -1.97451,3.05493 -3.59001,6.3948 -3.59001,7.4219 0,1.02712 1.41093,3.59843 3.13539,5.71404 8.02702,9.84767 11.61491,18.40234 12.50866,29.82468 0.87061,11.12653 -2.73333,26.15012 -8.22502,34.28726 -1.51743,2.2484 -2.47667,4.54477 -2.13164,5.10304 0.36364,0.58839 0.19216,0.74608 -0.408,0.37516 -0.57245,-0.35379 -1.54631,0.31495 -2.17827,1.49578 -0.62863,1.1746 -0.9662,2.20594 -0.75016,2.29188 0.21603,0.086 0.008,0.50781 -0.46064,0.9375 -0.50161,0.45919 -0.55372,0.26304 -0.1264,-0.47581 0.39986,-0.69138 -1.95828,1.31473 -5.24032,4.458 -13.48112,12.91118 -32.6912,18.39271 -52.69258,15.03566 z m 18.88694,-40.17498 c 15.68492,-8.00185 15.09657,-31.30479 -0.95972,-38.01189 -4.44076,-1.85501 -11.99777,-1.86678 -16.40442,-0.0256 -9.24173,3.86144 -13.93861,16.78083 -10.07838,27.72189 1.5587,4.41785 4.71015,8.34769 6.69423,8.34769 0.68356,0 1.24283,0.37675 1.24283,0.83724 0,0.46047 1.58203,1.51794 3.51562,2.34991 4.36278,1.87722 10.89686,1.37896 15.98984,-1.21928 z m -0.66973,-77.9491 c 11.95476,-6.09886 12.56287,-24.70223 1.02959,-31.49717 -5.5902,-3.29353 -12.05765,-3.42735 -17.48966,-0.36193 -6.57154,3.70851 -9.27396,9.02208 -8.71829,17.14206 0.43673,6.38192 3.97636,12.15118 9.1405,14.89815 4.36688,2.32288 11.28271,2.24478 16.03786,-0.18111 z M 206.54856,301.19883 c -14.0669,-1.65012 -27.46319,-6.27519 -37.70631,-13.01808 -5.06343,-3.33319 -21.62326,-17.84385 -20.36371,-17.84385 0.31423,0 -0.63835,-1.58203 -2.11684,-3.51563 -14.18028,-18.5452 -20.944,-38.62085 -20.87418,-61.95747 0.0572,-19.12807 4.05662,-33.5631 13.16466,-47.51522 2.55946,-3.9207 4.40262,-7.53457 4.09591,-8.03084 -0.30671,-0.49626 -0.12972,-0.78637 0.39331,-0.6447 0.52303,0.14169 4.14032,-3.23356 8.03844,-7.50056 3.8981,-4.26699 7.08747,-7.53934 7.08747,-7.27186 0,0.26747 2.84766,-1.47575 6.32812,-3.87382 13.74438,-9.47 30.74919,-15.56262 43.82813,-15.7031 14.23021,-0.15284 22.92783,0.6641 24.40096,2.29188 1.08879,1.20311 1.42324,5.29762 1.61149,19.72913 l 0.23755,18.21094 -11.30146,-0.33544 c -8.17724,-0.24272 -12.90047,0.0742 -17.08564,1.1464 -16.96587,4.34644 -30.28157,16.63592 -36.00404,33.22925 -2.90863,8.43408 -3.13676,27.80219 -0.42173,35.80354 4.29986,12.67192 9.8513,20.99981 18.20093,27.30385 9.77421,7.37959 26.11274,12.88334 34.71733,11.69477 2.41704,-0.33387 5.66023,-0.69087 7.20711,-0.79333 l 2.8125,-0.18629 -0.35731,19.19363 c -0.23736,12.74989 -0.70946,19.42485 -1.40625,19.88239 -1.342,0.88121 -15.95874,0.70476 -24.48644,-0.29559 z M 37.798558,298.4619 c -0.35224,-0.56995 -7.33116,-0.9375 -17.800858,-0.9375 -13.1254258,0 -17.5195958,-0.29814 -18.4749758,-1.25352 -1.02515998,-1.02516 -1.29519998,-17.20808 -1.48223998,-88.82813 -0.14525,-55.61839 0.10437,-88.08774 0.68409,-88.98085 0.78367998,-1.20732 5.59239998,-1.40123 33.99339378,-1.37075 28.66916,0.0307 34.08074,0.26516 40.58059,1.75757 4.125,0.94713 8.51389,1.71004 9.75308,1.69535 1.67072,-0.0198 1.91304,0.18858 0.9375,0.8062 -1.09352,0.69233 -1.06891,0.83534 0.14582,0.84728 0.80377,0.008 3.86236,1.46013 6.79688,3.2272 2.9345,1.76707 5.33547,3.05471 5.33547,2.86142 0,-0.1933 2.888472,2.70029 6.418822,6.43017 10.72762,11.33396 15.46083,23.90497 15.41199,40.93306 -0.0233,8.10068 -0.44916,11.03131 -2.40546,16.55035 -6.55044,18.47989 -22.562502,32.94073 -41.280402,37.28123 -6.69021,1.55139 -22.75262,1.99863 -24.81344,0.69089 -0.85424,-0.54207 -1.36742,-5.22182 -1.78202,-16.2505 -0.68395,-18.19395 -0.42702,-18.81544 8.27039,-20.0052 6.61089,-0.90435 9.16032,-1.9276 12.37535,-4.96704 8.09613,-7.65393 9.09774,-20.9749 2.15635,-28.67855 -4.91246,-5.45192 -9.23854,-7.12118 -18.45539,-7.12118 -12.93703,0 -11.67137,-5.79101 -11.71398,53.59707 -0.0427,59.44632 -0.97241,87.4342 -2.97098,89.43278 -0.73193,0.73192 -1.06804,1.75588 -0.74692,2.27546 0.32112,0.51958 0.37291,0.94469 0.1151,0.94469 -0.25781,0 -0.72948,-0.42188 -1.04816,-0.9375 z M 237.05456,217.86329 c -3.99635,-0.47321 -4.21549,-0.65974 -4.94911,-4.21237 -0.42219,-2.04448 -0.64989,-8.79448 -0.506,-15 l 0.26161,-11.28277 6.09375,-0.64449 c 3.35156,-0.35448 24.54748,-0.61262 47.10203,-0.57366 35.41228,0.0611 41.1692,0.26447 42.1875,1.48983 0.78825,0.94853 1.28551,5.85258 1.49982,14.7914 0.29917,12.47888 0.19838,13.43782 -1.50835,14.35124 -1.93248,1.03423 -82.42742,1.99896 -90.18125,1.08082 z m 667.69712,-24.1527 c -0.81815,-0.28272 -1.17187,-2.89773 -1.17187,-8.66401 0,-6.66636 0.28594,-8.36882 1.48294,-8.82813 0.81562,-0.31298 10.63078,-0.56905 21.81145,-0.56905 30.7546,0 29.5672,1.28257 30.562,-33.01174 0.4716,-16.25945 1.0289,-23.92397 1.7748,-24.41181 0.5982,-0.39112 4.6735,-0.60347 9.0563,-0.47191 l 7.9688,0.23921 -0.024,27.1875 c -0.021,23.21145 -0.2495,27.66737 -1.5629,30.46875 -4.6952,10.0145 -12.3713,15.92977 -23.0947,17.79717 -5.6864,0.99025 -44.07401,1.20679 -46.80232,0.26402 z m 80.58822,-0.2915 c -2.0392,-0.81857 -2.1326,-1.27055 -1.875,-9.08119 l 0.2712,-8.21975 16.4061,-0.48132 c 18.223,-0.53463 21.1819,-1.40135 23.8196,-6.97749 1.4361,-3.03565 3.8167,-47.80994 2.7575,-51.86051 -0.3383,-1.29358 -0.063,-2.23708 0.7384,-2.5274 2.1753,-0.78832 18.5557,-1.14824 18.0918,-0.39751 -0.2409,0.38963 0,0.97766 0.5302,1.30673 0.5324,0.32907 0.6448,1.0965 0.2497,1.70541 -0.3952,0.60889 -0.7184,13.13053 -0.7184,27.82584 0,25.85345 -0.069,26.85631 -2.116,30.96628 -4.721,9.47653 -11.7062,15.10475 -21.6521,17.44575 -6.0741,1.42968 -33.1315,1.64846 -36.503,0.29516 z m 126.564,-7.69157 0.2696,-8.67187 5.625,-0.5415 c 3.0937,-0.29783 6.4687,-1.00555 7.5,-1.57272 2.51,-1.38049 40.7851,-39.93247 40.7669,-41.06176 -0.05,-3.07748 -1.5067,-3.27261 -26.3041,-3.52347 l -24.7753,-0.25064 -0.2738,-7.78769 c -0.1649,-4.69137 0.1361,-8.28159 0.7572,-9.02991 0.8276,-0.99731 6.1491,-1.15155 26.9925,-0.78235 14.2788,0.25291 27.2857,0.87001 28.904,1.37131 10.1279,3.13725 15.4533,18.53889 10.0999,29.21051 -0.8362,1.6669 -4.0933,5.66008 -7.238,8.87374 l -5.7177,5.843 2.4376,2.5945 c 5.9248,6.30602 17.632,27.9972 17.632,32.66871 0,1.05592 -1.8143,1.33202 -8.7528,1.33202 l -8.7528,0 -2.403,-5.56923 c -3.0137,-6.98482 -10.1086,-17.86827 -11.6481,-17.86827 -0.6374,0 -5.0831,4.02707 -9.8793,8.94904 -11.5072,11.80904 -16.6215,14.48846 -27.6551,14.48846 l -7.8543,0 0.2696,-8.67188 z m -61.2106,-25.30109 c -0.2037,-5.8511 0.2763,-14.38273 0.8413,-14.95365 0.3514,-0.35495 15.7393,-0.82023 34.1953,-1.03396 30.0945,-0.3485 33.6395,-0.23339 34.3616,1.11589 0.4429,0.82748 0.7409,4.8787 0.6623,9.00272 l -0.1428,7.49822 -34.9219,0.24578 -34.9219,0.24579 -0.074,-2.12079 z m -143.83224,-3.40838 -3.75,-0.5874 0.31031,-7.96875 c 0.17063,-4.38281 0.5925,-8.25681 0.9375,-8.60887 0.34491,-0.35206 9.06469,-0.75044 19.37714,-0.88526 l 18.74999,-0.24514 0.2716,8.77567 c 0.189,6.10632 -0.073,8.98868 -0.8615,9.47601 -1.3613,0.84128 -29.71754,0.87668 -35.03504,0.0438 z M 984.931,153.0872 c -1.4765,-0.86041 -1.5684,-2.55587 -1.0533,-19.42462 0.3675,-12.03688 0.9316,-18.72881 1.6176,-19.18989 0.5793,-0.38937 4.6392,-0.60031 9.022,-0.46875 l 7.9687,0.23921 0.1904,17.8125 c 0.1046,9.79688 -0.01,18.76172 -0.2523,19.92187 -0.4163,1.98375 -0.9022,2.10768 -8.1591,2.08087 -4.244,-0.0157 -8.4443,-0.45272 -9.334,-0.97119 z m -77.74978,-21.24062 -3.42985,-0.36264 0.1486,-8.36555 c 0.0816,-4.60105 0.57046,-8.51577 1.08609,-8.69937 0.51562,-0.18361 9.375,-0.29829 19.68744,-0.25485 l 18.75,0.0789 -0.3389,8.4375 c -0.1865,4.64063 -0.5279,8.75391 -0.7585,9.14063 -0.4168,0.69861 -28.58473,0.71889 -35.14488,0.0253 z m 283.03328,-5.10127 c -1.4212,-0.51895 -2.3635,-1.30024 -2.0941,-1.7362 0.2695,-0.43596 0.061,-1.05764 -0.4629,-1.38151 -1.8878,-1.16668 -1.0492,-7.02954 1.3483,-9.42706 4.8081,-4.80806 12.6989,-1.34719 12.6989,5.56967 0,1.79769 -0.4287,3.53352 -0.9528,3.85739 -0.524,0.32387 -0.7036,0.99203 -0.3991,1.4848 0.3046,0.49278 0.206,0.81738 -0.2191,0.72134 -0.425,-0.096 -1.9604,0.31538 -3.4119,0.91427 -3.0373,1.25315 -3.0682,1.25314 -6.5073,-0.003 z m 17.1728,-1.48653 c -1.8494,-1.49829 -4.567,-9.25184 -2.8765,-8.20707 0.4019,0.24838 0.9488,-0.38233 1.2153,-1.40157 0.665,-2.5426 4.5144,-3.86056 8.1937,-2.80535 4.8256,1.38399 5.7037,2.6128 5.4032,7.56122 -0.1491,2.4548 -0.4829,4.43006 -0.7416,4.38944 -0.2588,-0.0406 -1.6581,0.41617 -3.1096,1.01506 -3.6503,1.50606 -5.7187,1.3649 -8.0845,-0.55173 z M 0.39176422,70.800194 c -0.26742,-0.4327 1.39517998,-9.95889 3.69466998,-21.16932 2.29949,-11.21043 4.18088,-21.21326 4.18088,-22.2285 0,-1.01525 -1.46654,-3.35596 -3.25899,-5.20159 l -3.259,-3.35568 1.82106,-2.45723 C 7.0168542,11.737434 16.447744,2.2119039 17.605514,2.2119039 c 1.330336,0 1.651186,0.33365 19.228454,19.9961801 7.20385,8.05846 13.38736,14.34425 13.74115,13.96841 0.35377,-0.37584 2.23008,-8.00122 4.16954,-16.9453 2.30332,-10.6220101 3.98875,-16.4394201 4.85969,-16.7736301 2.61307,-1.00273 15.47258,6.45702 14.68208,8.5170101 -0.2688,0.7005 -2.59023,2.25792 -5.15871,3.46094 -2.56849,1.20301 -5.09639,2.7011 -5.61757,3.32907 -0.52117,0.62798 -3.25651,12.04568 -6.07851,25.37267 -6.10863,28.84816 -5.72381,27.51215 -7.92443,27.51215 -1.92119,0 -5.16205,-3.29093 -22.46499,-22.81198 -6.322088,-7.13253 -11.818214,-12.6169 -12.213634,-12.1875 -0.72155,0.78356 -4.68627,18.01719 -4.68627,20.37004 0,0.6904 1.6875,2.37201 3.75,3.73691 5.674456,3.75518 5.050106,5.48883 -3.21607,8.93004 -7.2048398,2.99938 -9.4515198,3.46104 -10.28447978,2.11328 z M 153.92173,70.624624 c -5.3584,-1.66002 -11.98245,-6.8889 -15.58219,-12.30021 -5.83148,-8.76621 -6.58387,-18.36777 -2.33421,-29.78742 5.27319,-14.17003 28.41866,-27.96170008 45.43915,-27.0757801 l 5.41658,0.28194 2.94603,6.09375 c 4.4389,9.1817101 4.55947,9.9585401 1.82381,11.7510101 -1.29506,0.84856 -4.00925,1.76476 -6.03153,2.036 -3.62261,0.48589 -3.73433,0.40856 -7.57065,-5.24067 -2.58355,-3.80446 -4.52343,-5.73384 -5.765,-5.73384 -3.46284,0 -10.88483,4.5481 -15.13345,9.27359 -6.74372,7.50065 -7.81493,14.62958 -3.39858,22.61752 4.95678,8.96542 14.62569,10.43769 27.80671,4.23407 6.2601,-2.9463 7.95915,-3.41841 8.59568,-2.38849 1.13803,1.84137 -9.5894,22.93919 -12.70002,24.97734 -2.84554,1.86447 -18.80221,2.72038 -23.51233,1.26119 z m 688.75473,-0.8489 c -1.1219,-2.0963 -1.31872,-10.98866 -0.25773,-11.64438 0.39265,-0.24268 7.64606,-0.75181 16.11869,-1.13141 14.3613,-0.64342 15.55125,-0.83666 17.56733,-2.85274 2.34519,-2.34519 3.07208,-9.07502 1.11111,-10.28697 -0.57831,-0.35741 -6.00055,-0.58062 -12.04944,-0.49603 -12.9121,0.18058 -13.3933,-0.1 -12.96636,-7.56056 l 0.286,-4.99798 11.83342,-0.57382 c 6.50839,-0.3156 12.30917,-0.86784 12.89063,-1.2272 1.3256,-0.81926 1.38652,-8.48816 0.0867,-10.91686 -0.88275,-1.64942 -2.06743,-1.81337 -13.10339,-1.81337 -14.08082,0 -13.76219,-0.20095 -16.35123,10.3125 -2.48842,10.10491 -2.64616,10.31433 -7.75793,10.2997 -6.57405,-0.0188 -8.69197,-0.79946 -8.69197,-3.2038 0,-3.2424 6.25481,-24.7679201 7.94776,-27.3517001 0.83891,-1.28034 2.50974,-2.70218 3.71295,-3.15963 1.20321,-0.45747 10.98974,-0.94249 21.74784,-1.07785 21.39733,-0.26921 23.2532,0.0821 26.97592,5.10637 1.83619,2.4782 1.97709,4.0372601 2.24325,24.8131201 0.32512,25.38697 -0.174,27.95243 -6.49069,33.35926 -5.043,4.31659 -8.94234,5.11928 -27.7435,5.71101 -15.28197,0.48097 -16.18924,0.41163 -17.10938,-1.30766 z m -776.987272,0.24328 c -4.07651,-0.56982 -3.84239,-1.87899 0.65806,-3.67971 4.18798,-1.67569 4.64402,-2.66631 7.07931,-15.37739 0.83969,-4.38281 1.73819,-8.7067 1.99668,-9.60864 0.32518,-1.1347 -0.27147,-1.92179 -1.93674,-2.55493 -3.15241,-1.19854 -3.01087,-2.06377 0.61735,-3.77393 2.82299,-1.33061 3.09722,-1.9357 5.09838,-11.25 2.76101,-12.85083 2.73339,-14.0265701 -0.38805,-16.5213801 -1.41796,-1.1333 -2.22698,-2.41477 -1.79781,-2.84771 0.42916,-0.43294 13.40067,-0.93013 28.825572,-1.10486 24.59148,-0.27857 28.11356,-0.13975 28.59976,1.12728 0.30497,0.79474 -0.22123,5.15122 -1.16932,9.6810601 -1.31006,6.25921 -2.11829,8.31177 -3.36728,8.55138 -0.957,0.1836 -1.87126,-0.39891 -2.18885,-1.3946 -3.31452,-10.39162 -5.8126,-12.4961801 -14.80975,-12.4768201 -3.66874,0.008 -7.26107,0.38833 -7.98296,0.84538 -1.53255,0.9703401 -5.847352,21.7114601 -4.76394,22.9000601 1.09816,1.20477 8.53942,-2.51854 11.64248,-5.82541 5.14298,-5.48077 7.17761,-3.60436 5.26287,4.8536 -0.48943,2.16192 -1.57289,7.2003 -2.4077,11.1964 -1.82647,8.74298 -3.30758,9.29205 -7.48369,2.77426 -2.85107,-4.44974 -7.14813,-7.02047 -8.860272,-5.30069 -1.08467,1.08953 -5.6966,22.11714 -5.0724,23.12712 0.62068,1.00427 12.848402,0.91777 15.512262,-0.10974 3.04908,-1.17609 10.48997,-8.43392 12.36601,-12.06177 1.52553,-2.95006 3.67257,-3.9324 4.7576,-2.17678 0.29293,0.47397 -0.37068,5.10384 -1.4747,10.2886 -1.42931,6.71247 -2.44405,9.54823 -3.52414,9.84845 -2.16772,0.60253 -51.535292,1.38144 -55.188732,0.87077 z m 130.703122,0.006 c -0.84678,-0.84677 -0.7697,-11.76273 0.0924,-13.09775 0.37883,-0.58658 2.20808,-1.69901 4.06503,-2.47206 1.85694,-0.77305 4.28272,-2.67856 5.39062,-4.23446 1.91513,-2.68955 2.01437,-3.85251 2.01437,-23.6052 0,-12.5288 0.38525,-21.4961401 0.97048,-22.5896601 0.80115,-1.49695 1.98714,-1.81087 6.79688,-1.79902 3.20451,0.008 6.44238,0.40399 7.19525,0.8802 1.13839,0.72006 1.37515,4.78201 1.40625,24.1262701 l 0.0374,23.26021 -2.64196,5.38017 c -3.00261,6.11461 -8.60837,11.21995 -14.66676,13.35746 -4.17838,1.47423 -9.57748,1.87618 -10.66003,0.79362 z m 57.91662,-1.60034 c -2.6068,-1.21386 -6.27531,-4.00112 -8.15224,-6.19389 -5.96596,-6.96988 -6.58833,-10.00963 -7.03734,-34.37155 -0.28113,-15.25411 -0.08,-22.2948701 0.67761,-23.7103401 0.98071,-1.83247 1.72534,-1.98881 8.28955,-1.74048 l 7.21205,0.27263 0.46875,22.1998101 c 0.55961,26.50299 0.27462,25.72318 11.25,30.78256 1.50941,0.6958 2.43178,8.89036 1.44377,12.8269 -0.4707,1.87544 -1.12538,2.15828 -4.97725,2.15032 -2.67353,-0.006 -6.31791,-0.88582 -9.1749,-2.21618 z m 212.78915,0.96046 c -0.26696,-0.69569 -0.35919,-4.14006 -0.20495,-7.65415 0.27511,-6.268 0.33768,-6.40858 3.29711,-7.40699 6.3605,-2.14581 6.30932,-1.9394 6.82707,-27.53357 l 0.46875,-23.1716601 6.4361,-0.8646 c 10.01584,-1.34548 9.45978,-2.70647998 9.75283,23.8707001 0.20392,18.49472 -0.0263,23.75859 -1.21891,27.86078 -1.98148,6.81607 -7.8031,12.68213 -14.58467,14.69604 -6.0715,1.80304 -10.1301,1.87968 -10.77333,0.20345 z m 73.41196,0.69512 c -1.23961,-1.23961 -0.79461,-14.41763 0.49164,-14.55945 0.64454,-0.0711 9.82032,-0.38747 20.39063,-0.70313 l 19.21875,-0.57391 0,-17.8125 0,-17.8125 -20.15625,-0.46875 -20.15625,-0.46875 -0.28043,-6.46956 c -0.15424,-3.5582701 0.0573,-6.8072701 0.47,-7.2200101 0.41275,-0.41274 11.75287,-0.81902 25.20027,-0.90285 26.76284,-0.16684 27.05234,-0.11562 30.4846,5.39271 1.68368,2.7021001 1.91643,5.2586901 2.43416,26.7381201 0.64919,26.93324 0.33661,28.95714 -5.03772,32.61784 -3.42225,2.33106 -3.57344,2.34532 -27.91002,2.63336 -13.45803,0.15929 -24.77525,-0.0165 -25.14938,-0.39062 z m 61.89498,0.02 c -0.38512,-0.38574 -0.70021,-3.73449 -0.70021,-7.44229 l 0,-6.74145 5.76252,-0.60229 c 3.16939,-0.33127 11.81117,-0.60231 19.20396,-0.60231 l 13.44144,0 3.06166,-2.73346 3.06167,-2.73345 0.46875,-20.27152 c 0.38478,-16.6401 0.72067,-20.4304001 1.875,-21.1584501 1.81071,-1.142 13.78439,-1.18657 14.48441,-0.0539 0.29291,0.47395 0.60318,10.2825501 0.68948,21.7968901 0.14403,19.21805 6.4e-4,21.28508 -1.74818,25.20153 -2.7514,6.16172 -7.08026,10.64822 -12.71576,13.1788 -4.60724,2.06884 -6.2741,2.23433 -25.55662,2.53734 -11.34534,0.17829 -20.943,0.009 -21.32812,-0.37606 z m 78.22044,-0.8747 c -5.25457,-2.28232 -8.55893,-5.12186 -10.70755,-9.20134 -1.96937,-3.73915 -2.05827,-4.99457 -2.08815,-29.4865 -0.0265,-21.7332001 0.18033,-25.7178701 1.37505,-26.4904501 0.77344,-0.50015 4.57031,-0.80117 8.4375,-0.66893 l 7.03125,0.24045 0.24498,4.6875 c 0.51001,9.7585601 -1.40108,8.9062601 19.9702,8.9062601 l 18.77321,0 -0.27544,6.79687 -0.27545,6.79688 -18.75,0.5386 c -10.3125,0.29623 -18.89387,0.61264 -19.06971,0.70312 -0.17584,0.0905 -0.17584,4.58012 0,9.97695 0.44919,13.78625 -0.77877,13.04648 22.6163,13.62508 l 18.95341,0.46875 0.28064,6.47857 c 0.19705,4.54899 -0.0822,6.70872 -0.9375,7.25127 -0.66997,0.42498 -10.49939,0.76264 -21.84314,0.75036 -15.85581,-0.0172 -21.34428,-0.33476 -23.7356,-1.37344 z m 52.56372,0.8036 c -1.30034,-0.5247 -1.63939,-10.31708 -0.42345,-12.23027 0.45141,-0.71027 3.85352,-1.23449 9.12627,-1.40625 l 8.40656,-0.27384 0.28239,-4.89379 c 0.41927,-7.26594 -0.69567,-8.70018 -6.76308,-8.70018 -5.95164,0 -7.3652,-1.26502 -7.01875,-6.28122 0.43561,-6.30698 1.09055,-6.852 8.1418,-6.77534 11.64386,0.12659 16.15727,1.18625 19.10516,4.4855 2.49804,2.7958 2.65873,3.48007 2.65873,11.32168 0,11.17434 0.0749,11.31188 6.16107,11.31188 4.00657,0 5.21934,0.36694 5.99345,1.81337 1.32641,2.47843 1.22549,9.74412 -0.15452,11.12413 -0.81442,0.81442 -7.09086,1.10456 -22.73438,1.05098 -11.88515,-0.0407 -22.13671,-0.2868 -22.78125,-0.54687 z m -396.09375,-0.85114 c -1.21037,-1.23164 -0.81021,-13.20952 0.47701,-14.27782 0.66072,-0.54834 7.23074,-1.11465 14.92734,-1.28666 13.15495,-0.29401 13.8565,-0.40821 16.28444,-2.65099 3.96205,-3.65991 4.85678,-6.87344 7.60243,-27.30495 1.41179,-10.50572 3.01014,-19.4112501 3.5519,-19.7900801 0.54175,-0.37882 4.25454,-0.69523 8.25063,-0.70312 l 7.26563,-0.0146 0,2.63773 c 0,1.45075 -0.64687,7.4624701 -1.43749,13.3593801 -0.79062,5.8969 -2.06033,15.6678 -2.82158,21.71309 -0.76125,6.0453 -1.88403,12.16248 -2.49506,13.59375 -2.054,4.81125 -7.25544,10.37799 -11.75194,12.5773 -4.083,1.99704 -5.93827,2.21166 -21.80643,2.52248 -9.53906,0.18685 -17.66016,0.0177 -18.04688,-0.37576 z m 69.60938,-6.83147 0,-7.63463 5.65511,0 c 3.11031,0 7.06299,-0.58824 8.78373,-1.30722 5.46687,-2.2842 6.18616,-4.2821 6.18616,-17.18263 l 0,-11.51015 -12.24913,0 c -6.73703,0 -13.06515,-0.43672 -14.0625,-0.97048 -1.52182,-0.81445 -1.81337,-2.00272 -1.81337,-7.39066 0,-7.7974201 -0.53199,-7.5455801 15.978,-7.5635601 l 11.75926,-0.0128 0.89699,-3.04688 0.897,-3.04687 7.41636,0 7.41635,0 1.10267,3.28125 1.10267,3.28125 13.04348,0.46875 13.04347,0.4687501 0,7.03125 0,7.03125 -12.81211,0 c -7.04666,0 -13.08236,0.27007 -13.41267,0.60017 -0.3303,0.33008 -0.77821,6.15448 -0.99535,12.9431 -0.4562,14.26225 -1.72874,18.2181 -7.81997,24.30933 -5.33942,5.33942 -9.29428,6.76001 -20.50677,7.36604 l -9.60938,0.51939 0,-7.63465 z m 99.30404,4.94735 -2.27279,-2.41803 -0.27105,-30.34186 C 503.1941,4.2067839 503.19495,4.1915939 505.23293,3.1009039 c 1.91436,-1.02454 13.30891,-0.92697 14.35883,0.12294 0.25241,0.25242 0.53872,9.5147001 0.63624,20.5828801 0.0975,11.06816 0.43455,22.2333 0.74894,24.81143 0.64724,5.30757 0.67993,5.31832 11.58724,3.81044 l 5.39063,-0.74524 0,7.02448 c 0,4.79174 -0.40678,7.36208 -1.27977,8.08661 -1.60715,1.33381 -13.03222,2.85043 -21.75994,2.88851 -5.93696,0.0259 -6.87209,-0.22493 -8.90625,-2.38907 z m 263.88068,-25.28907 c -0.69942,-2.78668 -0.0217,-11.39303 0.97573,-12.39165 0.84362,-0.84459 52.28343,-1.54117 55.4331,-0.75065 2.15827,0.5417 2.28145,0.94495 2.28145,7.46881 l 0,6.89621 -2.92969,0.58593 c -1.61133,0.32227 -14.68142,0.58594 -29.04464,0.58594 l -26.11495,0 -0.601,-2.39459 z m -483.92682,0.75587 -13.39833,-0.28824 0.27333,-7.20391 0.27335,-7.2039 2.91837,-0.59418 c 1.60511,-0.3268 14.57777,-0.39021 28.82813,-0.14092 l 25.90975,0.45326 0,7.2705 c 0,5.76492 -0.30709,7.38835 -1.48293,7.83956 -1.41258,0.54206 -13.72694,0.50448 -43.32167,-0.13217 z m 49.13595,-8.4394 c -0.96055,-3.26617 -3.53477,-26.3023201 -3.23375,-28.9381201 0.3075,-2.69239 0.33593,-2.70354 7.58847,-2.97658 5.29873,-0.19948 7.40097,0.0556 7.72504,0.9375 0.70234,1.91131 4.21389,26.7916701 4.21389,29.8567401 l 0,2.76108 -7.90557,0 c -6.72031,0 -7.97792,-0.24597 -8.38808,-1.64062 z m 395.33869,-11.86834 c -9.78762,-4.42315 -6.4398,-19.6730901 4.59181,-20.9165101 7.99201,-0.90081998 13.65472,4.58051 12.62939,12.2248801 -1.01649,7.57852 -9.83527,12.02941 -17.2212,8.69163 z m 8.89083,-9.54183 c 0.15379,-1.07636 -0.36819,-2.49466 -1.15994,-3.1517501 -2.85777,-2.37175 -6.60022,1.3707001 -4.22847,4.2284701 1.66261,2.00332 5.0449,1.32746 5.38841,-1.07672 z m -476.06087,8.33631 c -4.11468,-2.12147 -6.97109,-7.54101 -6.08967,-11.5540701 2.72969,-12.42822 20.75723,-13.10354 23.44237,-0.87817 2.09665,9.5459501 -8.38532,17.0556901 -17.3527,12.4322401 z m 7.96875,-10.12927 c 0,-2.1334701 -0.42802,-2.8125001 -1.77282,-2.8125001 -2.21705,0 -3.88065,2.5082701 -3.06807,4.6258201 0.38504,1.0034 1.40139,1.48759 2.72732,1.29931 1.65672,-0.23525 2.11357,-0.90806 2.11357,-3.11263 z m 331.23786,6.72893 c -0.84072,-0.84072 -1.25084,-3.33994 -1.18912,-7.24631 0.0929,-5.8789801 0.13599,-5.9738101 3.06059,-6.7316501 1.6315,-0.42276 9.40403,-0.65218 17.27228,-0.50982 l 14.30589,0.25885 0,7.5000001 0,7.5 -16.08315,0.25613 c -12.62667,0.20109 -16.35896,-0.0197 -17.36649,-1.0272 z"
     id="path3346"
     inkscape:connector-curvature="0" />
</svg>
