<?xml version="1.0"?>
<svg width="1098.1" height="72.638" xmlns="http://www.w3.org/2000/svg" xmlns:svg="http://www.w3.org/2000/svg" version="1.0">

 <g class="layer">
  <title>Layer 1</title>
  <rect fill="#000000" height="63" id="svg_17" stroke="#000000" stroke-width="5" width="1090" x="3.9" y="4.99"/>
  <g id="svg_1" transform="matrix(1, 0, 0, 1, 0, 0)">
   <g fill="#231f20" id="svg_2" transform="translate(17.752, 17.665)">
    <path d="m589.99,8.74c6.16,0 11.28,0.21 17.47,0.73c-0.24,0.7 -1.73,4.76 -1.85,5.15l-35.76,0c0.27,-0.75 1.73,-4.76 1.88,-5.12c6.7,-0.55 12.01,-0.76 18.26,-0.76zm20.78,-7.55c-5.58,-0.55 -10.74,-0.91 -17.96,-0.91c-7.22,0 -12.65,0.36 -18.59,0.91c-4.43,0.39 -8.77,0.91 -12.89,1.57l-0.19,0.03l-12.31,33.86l13.04,0s4.95,-13.62 5.1,-14.05l35.73,0c-0.3,0.85 -5.1,14.05 -5.1,14.05l13.02,0l12.28,-33.79l-0.39,-0.1c-3.64,-0.63 -7.62,-1.18 -11.74,-1.57" fill="#ffffff" id="svg_3"/>
    <path d="m824.54,27.73c-6.37,0.52 -12.98,0.76 -19.65,0.76c-6.59,0 -12.93,-0.24 -18.81,-0.76c0.3,-0.79 6.46,-17.83 6.61,-18.23c6.31,-0.52 12.92,-0.76 19.63,-0.76c6.64,0 12.98,0.24 18.83,0.73c-0.27,0.82 -6.46,17.87 -6.61,18.26zm10.37,6.73l0.22,-0.03l11.46,-31.57l-0.39,-0.09c-3.64,-0.64 -7.62,-1.19 -11.77,-1.58c-6.13,-0.61 -12.62,-0.91 -19.29,-0.91c-6.64,0 -13.38,0.3 -19.93,0.91c-4.46,0.39 -8.8,0.91 -12.89,1.58l-0.21,0.03l-11.47,31.6l0.4,0.06c3.67,0.64 7.61,1.19 11.73,1.58c6.16,0.58 12.65,0.88 19.33,0.88c6.64,0 13.37,-0.3 19.92,-0.88c4.43,-0.39 8.77,-0.94 12.9,-1.58" fill="#ffffff" id="svg_4"/>
    <path d="m224.41,8.74c6.17,0 11.28,0.21 17.46,0.73c-0.24,0.7 -1.71,4.76 -1.85,5.15l-35.74,0c0.27,-0.75 1.74,-4.76 1.86,-5.12c6.7,-0.55 12.02,-0.76 18.27,-0.76zm20.77,-7.55c-5.57,-0.55 -10.75,-0.91 -17.96,-0.91c-7.2,0 -12.63,0.36 -18.57,0.91c-4.46,0.39 -8.79,0.91 -12.9,1.57l-0.19,0.03l-12.29,33.86l13.01,0s4.95,-13.62 5.1,-14.05l35.74,0c-0.31,0.85 -5.11,14.05 -5.11,14.05l13.02,0l12.28,-33.79l-0.39,-0.1c-3.64,-0.63 -7.59,-1.18 -11.74,-1.57" fill="#ffffff" id="svg_5"/>
    <path d="m148.7,27.7c-6.42,0.55 -13.1,0.79 -19.85,0.79c-6.6,0 -12.92,-0.24 -18.83,-0.76c0.3,-0.82 10.07,-27.72 10.07,-27.72l-13.02,0l-12.48,34.39l0.4,0.06c3.64,0.64 7.59,1.19 11.75,1.58c6.15,0.58 12.64,0.88 19.29,0.88c6.66,0 13.38,-0.3 19.95,-0.88c4.42,-0.39 8.76,-0.94 12.9,-1.58l0.19,-0.03l3,-8.28l-0.57,0.09c-3.97,0.61 -8.28,1.1 -12.8,1.46" fill="#ffffff" id="svg_6"/>
    <path d="m523.81,1.19c-6.13,-0.61 -12.62,-0.91 -19.29,-0.91c-6.67,0 -13.38,0.3 -19.96,0.91c-4.43,0.39 -8.77,0.91 -12.89,1.58l-0.18,0.03l-3.01,8.28l0.58,-0.09c3.94,-0.61 8.25,-1.12 12.8,-1.49c4.16,-0.33 8.61,-0.54 13.16,-0.67c-0.33,0.91 -10.25,28.21 -10.25,28.21l13.05,0s10.07,-27.75 10.22,-28.21c4.58,0.09 8.95,0.34 12.95,0.67c4.25,0.37 8.19,0.88 11.71,1.49l0.3,0.03l2.97,-8.16l-0.42,-0.09c-3.61,-0.64 -7.58,-1.19 -11.74,-1.58" fill="#ffffff" id="svg_7"/>
    <path d="m434.12,1.19c-6.13,-0.61 -12.62,-0.91 -19.29,-0.91c-6.67,0 -13.38,0.3 -19.96,0.91c-4.43,0.39 -8.77,0.91 -12.89,1.58l-0.18,0.03l-7.19,19.8l51.47,0c-0.27,0.76 -1.73,4.77 -1.85,5.13c-6.37,0.52 -12.95,0.76 -19.65,0.76c-6.74,0 -13.23,-0.24 -19.26,-0.79c-4.25,-0.36 -8.19,-0.85 -11.74,-1.46l-0.28,-0.06l-2.97,8.22l0.4,0.06c3.64,0.64 7.61,1.19 11.73,1.58c6.16,0.58 12.65,0.88 19.3,0.88c6.67,0 13.37,-0.3 19.95,-0.88c4.43,-0.39 8.77,-0.94 12.9,-1.58l0.21,-0.03l7.19,-19.8l-51.51,0c0.31,-0.76 1.76,-4.77 1.88,-5.13c6.28,-0.51 12.89,-0.76 19.63,-0.76c6.82,0 13.28,0.25 19.29,0.76c4.25,0.36 8.19,0.88 11.71,1.49l0.3,0.03l2.97,-8.16l-0.39,-0.09c-3.67,-0.64 -7.61,-1.19 -11.77,-1.58" fill="#ffffff" id="svg_8"/>
    <path d="m335.02,13.41c-4.49,0.33 -8.01,0.58 -12.83,0.7c0.21,-0.7 1,-3.22 1,-3.22l-13.01,0s-0.85,2.73 -0.97,3.16c-4.1,-0.12 -9.16,-0.34 -12.65,-0.64c0.27,-0.79 4.76,-13.13 4.76,-13.13l-13.01,0l-7.19,19.77l0.39,0.06c3.61,0.64 7.59,1.19 11.74,1.61c3.64,0.33 8.8,0.58 12.89,0.73c-0.27,0.82 -5.28,14.59 -5.28,14.59l13.02,0s5.12,-14.11 5.28,-14.5c4.94,-0.12 9.46,-0.39 14.19,-0.82c4.49,-0.42 7.98,-0.97 12.04,-1.61l0.22,-0.03l7.18,-19.8l-13.01,0s-4.61,12.71 -4.76,13.13" fill="#ffffff" id="svg_9"/>
    <path d="m929.84,1.19c-6.16,-0.61 -12.65,-0.91 -19.32,-0.91c-6.46,0 -13.01,0.3 -19.38,0.88c0.09,-0.3 0.36,-1.06 0.36,-1.06l-13.01,0l-13.35,36.73l13.01,0s9.77,-26.93 9.92,-27.33c6.31,-0.51 12.92,-0.76 19.63,-0.76c6.67,0 12.98,0.25 18.83,0.73c-0.27,0.85 -9.91,27.36 -9.91,27.36l13.01,0l12.34,-33.97l-0.39,-0.09c-3.64,-0.64 -7.59,-1.19 -11.74,-1.58" fill="#ffffff" id="svg_10"/>
    <path d="m1062.14,2.76c-3.61,-0.64 -7.58,-1.18 -11.74,-1.58c-6.13,-0.6 -12.65,-0.91 -19.29,-0.91c-6.67,0 -13.37,0.31 -19.96,0.91c-4.43,0.4 -8.76,0.91 -12.89,1.58l-0.18,0.03l-3.03,8.28l0.6,-0.09c3.95,-0.61 8.25,-1.12 12.77,-1.49c6.37,-0.51 13.05,-0.75 19.87,-0.75c6.64,0 12.95,0.24 18.84,0.72c-0.28,0.73 -1.73,4.77 -1.88,5.16l-39.19,0l-2.88,7.98l39.18,0c-0.27,0.76 -1.72,4.76 -1.88,5.12c-6.34,0.52 -12.95,0.76 -19.62,0.76c-6.74,0 -13.26,-0.24 -19.29,-0.79c-4.25,-0.36 -8.19,-0.85 -11.71,-1.45l-0.27,-0.06l-2.98,8.22l0.4,0.06c3.64,0.63 7.58,1.18 11.74,1.57c6.15,0.58 12.65,0.88 19.29,0.88c6.67,0 13.37,-0.3 19.96,-0.88c4.43,-0.39 8.76,-0.94 12.89,-1.57l0.21,-0.03l11.43,-31.58l-0.39,-0.09" fill="#ffffff" id="svg_11"/>
    <path d="m700.55,1.19c-6.16,-0.61 -12.65,-0.91 -19.32,-0.91c-6.68,0 -13.38,0.3 -19.93,0.91c-4.46,0.39 -8.8,0.91 -12.89,1.58l-0.21,0.03l-3.01,8.28l0.58,-0.09c3.97,-0.61 8.28,-1.12 12.8,-1.49c4.19,-0.33 8.61,-0.54 13.2,-0.67c-0.37,0.91 -10.26,28.21 -10.26,28.21l13.02,0s10.07,-27.75 10.25,-28.21c4.55,0.09 8.92,0.34 12.92,0.67c4.25,0.37 8.19,0.88 11.74,1.49l0.27,0.03l2.97,-8.16l-0.39,-0.09c-3.64,-0.64 -7.58,-1.19 -11.74,-1.58" fill="#ffffff" id="svg_12"/>
    <path d="m725.52,37.04l13.01,0l13.35,-36.73l-13.01,0l-13.35,36.73" fill="#ffffff" id="svg_13"/>
    <path d="m59.92,14.05c-5.81,0.36 -13,0.58 -21.38,0.58l-17.27,0c0.26,-0.76 1.72,-4.77 1.85,-5.13c6.3,-0.52 12.9,-0.76 19.63,-0.76c6.65,0 12.97,0.24 18.84,0.73c-0.26,0.7 -1.54,4.25 -1.67,4.58zm16.7,-11.28c-3.64,-0.64 -7.59,-1.19 -11.75,-1.58c-6.15,-0.61 -12.64,-0.91 -19.3,-0.91c-6.49,0 -14.1,0.51 -19.13,0.85l-0.81,0.06c-4.05,0.27 -11.84,0.97 -16.57,1.61l-2.84,7.82c1.37,-0.09 3.07,-0.18 3.55,-0.18c-0.34,0.91 -9.77,26.87 -9.77,26.87l13.02,0s5.19,-14.28 5.34,-14.71l17.44,0c27,0 34.47,-2.33 34.78,-2.42l0.16,-0.06l6.28,-17.26l-0.4,-0.09" fill="#ffffff" id="svg_14"/>
   </g>
  </g>
 </g>
</svg>