<?xml version="1.0" encoding="UTF-8" standalone="no"?>
<svg
   width="400"
   height="120"
   xmlns="http://www.w3.org/2000/svg"
   xmlns:svg="http://www.w3.org/2000/svg">
	<defs>
		<linearGradient id="A" x1="25%" x2="75%" y1="0%" y2="75%">
			<stop offset="0%" stop-color="#111d2e"/>
			<stop offset="1.2%" stop-color="#051839"/>
			<stop offset="20.7%" stop-color="#0a1b48"/>
			<stop offset="38.1%" stop-color="#132e62"/>
			<stop offset="53.8%" stop-color="#144b7e"/>
			<stop offset="67.3%" stop-color="#136497"/>
			<stop offset="100%" stop-color="#1387b8"/>
		</linearGradient>
	</defs>
	<path style="stroke:none;fill:url(#A)"
	   d="M 189.57031 8.0292969 A 28.75 28.75 0 0 0 160.82031 36.779297 A 28.75 28.75 0 0 0 161.12305 40.240234 L 142.70117 67.480469 A 17.623 17.623 0 0 0 135.17578 69.568359 C 105.94689 57.607767 76.699651 45.689782 47.460938 33.751953 A 17.6235 17.6235 0 0 0 30.251953 21.357422 A 17.6235 17.6235 0 0 0 29.318359 21.402344 A 17.6235 17.6235 0 0 0 13.011719 38.976562 A 17.624023 17.624023 0 0 0 38.525391 54.683594 C 68.082546 66.771167 97.649938 78.840601 127.23047 90.871094 A 17.623 17.623 0 0 0 160.86719 87.125 L 189.74219 65.513672 A 28.75 28.75 0 0 0 218.32031 36.779297 A 28.75 28.75 0 0 0 189.57031 8.0292969 z M 187.92578 14.830078 A 22.011 22.011 0 0 1 211.58008 36.779297 A 22.010745 22.010745 0 0 1 167.55859 36.779297 A 22.011 22.011 0 0 1 187.92578 14.830078 z M 189.57031 19.234375 A 17.555 17.555 0 0 0 172.01562 36.789062 A 17.555 17.555 0 0 0 207.125 36.789062 A 17.555 17.555 0 0 0 189.57031 19.234375 z M 30.634766 26.146484 A 13.23 12.83 0 0 1 41.125 31.164062 C 40.183744 30.779586 39.242006 30.396269 38.300781 30.011719 L 37.712891 29.779297 L 37.136719 29.572266 C 31.033554 26.822516 22.966908 29.74299 20.976562 36.357422 C 18.672455 42.569171 23.749994 48.497988 29.158203 50.855469 C 29.921119 51.167518 30.684342 51.478973 31.447266 51.791016 A 13.2305 12.830485 0 0 1 17.404297 38.976562 A 13.23 12.83 0 0 1 30.634766 26.146484 z M 239.95117 26.277344 C 236.43584 26.277344 233.74057 27.139856 231.86523 28.867188 C 229.99057 30.595186 229.05469 33.064727 229.05469 36.275391 C 229.05469 38.838721 229.72379 40.87734 231.06445 42.388672 C 232.41912 43.90067 234.55599 45.002027 237.47266 45.693359 L 240.38281 46.404297 C 242.15281 46.836963 243.3313 47.326381 243.91797 47.873047 C 244.51663 48.42038 244.81445 49.197746 244.81445 50.205078 C 244.81445 51.32841 244.37981 52.194162 243.50781 52.798828 C 242.63515 53.403494 241.37828 53.705078 239.73828 53.705078 C 238.12295 53.705078 236.44193 53.431432 234.69727 52.884766 C 232.96527 52.322766 231.16864 51.495056 229.30664 50.400391 L 229.30664 57.421875 C 231.16864 58.185208 233.03058 58.759771 234.89258 59.148438 C 236.75458 59.537104 238.61161 59.732422 240.46094 59.732422 C 244.38027 59.732422 247.29007 58.868623 249.19141 57.140625 C 251.10474 55.398627 252.06055 52.748069 252.06055 49.191406 C 252.06055 46.484742 251.37838 44.398353 250.01172 42.929688 C 248.64439 41.461022 246.33965 40.366484 243.09766 39.646484 L 239.89258 38.933594 C 238.36991 38.588261 237.31518 38.177791 236.72852 37.703125 C 236.15518 37.213125 235.86914 36.537161 235.86914 35.673828 C 235.86914 34.521163 236.2982 33.669713 237.1582 33.123047 C 238.01754 32.575714 239.34591 32.302734 241.14258 32.302734 C 242.49724 32.302734 243.93761 32.50487 245.46094 32.908203 C 246.98427 33.311536 248.54515 33.909173 250.14648 34.701172 L 250.14648 27.876953 L 250.14648 27.875 C 248.33715 27.342334 246.58591 26.946833 244.89258 26.6875 C 243.19991 26.414167 241.5525 26.277344 239.95117 26.277344 z M 257.86523 26.859375 L 257.86523 33.146484 L 267.55273 33.146484 L 267.55273 59.105469 L 275.07227 59.105469 L 275.07227 33.146484 L 284.74023 33.146484 L 284.74023 26.859375 L 257.86523 26.859375 z M 291.26758 26.859375 L 291.26758 59.105469 L 311.99023 59.105469 L 311.99023 52.820312 L 298.78711 52.820312 L 298.78711 45.435547 L 310.79883 45.435547 L 310.79883 39.150391 L 298.78711 39.150391 L 298.78711 33.146484 L 311.56055 33.146484 L 311.56055 26.859375 L 291.26758 26.859375 z M 354.86914 26.859375 L 354.86914 59.105469 L 361.99805 59.105469 L 361.99805 35.519531 L 368.7168 52.90625 L 373.48242 52.90625 L 380.20117 35.519531 L 380.20117 59.105469 L 387.31055 59.105469 L 387.31055 26.861328 L 377.75977 26.861328 L 371.08008 44.117188 L 364.43945 26.859375 L 354.86914 26.859375 z M 328.59766 26.861328 L 317.79688 59.105469 L 325.35547 59.105469 L 327.21094 53.230469 L 338.9668 53.230469 L 338.96875 53.230469 L 340.80469 59.105469 L 348.36133 59.105469 L 337.5625 26.861328 L 328.59766 26.861328 z M 333.08789 34.419922 L 337.07227 47.248047 L 329.08398 47.248047 L 333.08789 34.419922 z M 143.48242 71.458984 A 13.1575 13.557515 0 0 1 156.63867 85.015625 L 156.64062 85.015625 A 13.158203 13.55824 0 0 1 133.22656 93.316406 C 134.39189 93.790033 135.55532 94.26873 136.7207 94.742188 C 142.82389 97.491939 150.89052 94.569513 152.88086 87.955078 C 155.18498 81.74333 150.10741 75.814508 144.69922 73.457031 C 143.37366 72.913956 142.04637 72.374865 140.7207 71.832031 A 13.1575 13.557515 0 0 1 143.48242 71.458984 z " />
</svg>
