<?xml version="1.0"?>
<svg width="210" height="65" xmlns="http://www.w3.org/2000/svg" xmlns:svg="http://www.w3.org/2000/svg" xmlns:xlink="http://www.w3.org/1999/xlink">
	<defs>
		<linearGradient id="A" x1="50%" x2="50%" y1="0%" y2="100%">
			<stop offset="0%" stop-color="#111d2e"/>
			<stop offset="1.2%" stop-color="#051839"/>
			<stop offset="20.7%" stop-color="#0a1b48"/>
			<stop offset="38.1%" stop-color="#132e62"/>
			<stop offset="53.8%" stop-color="#144b7e"/>
			<stop offset="67.3%" stop-color="#136497"/>
			<stop offset="100%" stop-color="#1387b8"/>
		</linearGradient>
	</defs>
	<g class="layer" fill="url(#A)">
		<g id="text4156" transform="translate(65,0)">
			<path d="m24.43,22.05l0,5.13q-1.99,-0.89 -3.89,-1.35q-1.9,-0.45 -3.59,-0.45q-2.24,0 -3.31,0.62q-1.07,0.62 -1.07,1.91q0,0.98 0.71,1.52q0.73,0.54 2.63,0.92l2.66,0.54q4.04,0.81 5.74,2.46q1.71,1.66 1.71,4.71q0,4 -2.38,5.97q-2.37,1.94 -7.25,1.94q-2.31,0 -4.63,-0.43q-2.31,-0.44 -4.64,-1.3l0,-5.28q2.32,1.23 4.48,1.86q2.17,0.62 4.19,0.62q2.05,0 3.13,-0.68q1.09,-0.68 1.09,-1.94q0,-1.14 -0.75,-1.75q-0.73,-0.62 -2.93,-1.11l-2.42,-0.54q-3.64,-0.77 -5.32,-2.48q-1.67,-1.71 -1.67,-4.59q0,-3.62 2.34,-5.57q2.34,-1.94 6.71,-1.94q2,0 4.11,0.31q2.11,0.29 4.36,0.89z" id="path4150"/>
			<path d="m30.84,21.28l22.32,0l0,4.72l-8.02,0l0,19.5l-6.25,0l0,-19.5l-8.05,0l0,-4.72z" id="path4152"/>
			<path d="m58.59,21.28l16.84,0l0,4.72l-10.61,0l0,4.51l9.97,0l0,4.72l-9.97,0l0,5.54l10.97,0l0,4.72l-17.21,0l0,-24.22z" id="path4154"/>
			<path d="m98.19,41.08l-9.76,0l-1.54,4.41l-6.28,0l8.97,-24.22l7.44,0l8.97,24.22l-6.28,0l-1.52,-4.41zm-8.2,-4.49l6.63,0l-3.31,-9.63l-3.32,9.63z" id="path4156"/>
			<path d="m111.4,21.28l7.94,0l5.51,12.96l5.55,-12.96l7.93,0l0,24.22l-5.91,0l0,-17.71l-5.58,13.05l-3.96,0l-5.58,-13.05l0,17.71l-5.91,0l0,-24.22z" id="path4158"/>
		</g>
		<g id="svg_1">
			<path d="m1.3,41.2c3.96,13.19 16.19,22.8 30.66,22.8c17.67,0 32,-14.33 32,-32s-14.33,-32 -32,-32c-16.96,0 -30.84,13.19 -31.93,29.87c2.07,3.48 2.88,5.63 1.27,11.33z" id="svg_2"/>
			<path d="m30.31,23.98l0,0.16l-7.83,11.38c-1.27,-0.06 -2.54,0.16 -3.75,0.66a8.14,8.14 0 0 0 -1.49,0.8l-17.2,-7.09s-0.4,6.55 1.26,11.43l12.16,5.01c0.6,2.73 2.48,5.12 5.24,6.27a8.88,8.88 0 0 0 11.6,-4.78a8.89,8.89 0 0 0 0.69,-3.66l11.19,-8l0.27,0c6.71,0 12.16,-5.46 12.16,-12.18s-5.44,-12.16 -12.16,-12.17c-6.7,0 -12.15,5.46 -12.15,12.17l0.01,0zm-1.88,23.05c-1.45,3.5 -5.47,5.15 -8.95,3.7a6.84,6.84 0 0 1 -3.53,-3.36l3.96,1.64a5.04,5.04 0 0 0 6.59,-2.72a5.05,5.05 0 0 0 -2.71,-6.6l-4.1,-1.7c1.57,-0.6 3.37,-0.62 5.05,0.08c1.7,0.7 3,2.03 3.69,3.72s0.69,3.56 -0.01,5.24m14.05,-14.93a8.12,8.12 0 0 1 -8.1,-8.11a8.12,8.12 0 0 1 8.1,-8.11a8.12,8.12 0 0 1 8.1,8.11a8.12,8.12 0 0 1 -8.1,8.11m-6.07,-8.13a6.09,6.09 0 0 1 6.08,-6.09c3.35,0 6.08,2.73 6.08,6.09a6.09,6.09 0 0 1 -6.08,6.1a6.09,6.09 0 0 1 -6.08,-6.1z" fill="#ffffff" id="svg_3"/>
		</g>
	</g>
</svg>