<?xml version="1.0" encoding="UTF-8" standalone="no"?>
<svg
   xmlns:dc="http://purl.org/dc/elements/1.1/"
   xmlns:cc="http://creativecommons.org/ns#"
   xmlns:rdf="http://www.w3.org/1999/02/22-rdf-syntax-ns#"
   xmlns:svg="http://www.w3.org/2000/svg"
   xmlns="http://www.w3.org/2000/svg"
   xmlns:sodipodi="http://sodipodi.sourceforge.net/DTD/sodipodi-0.dtd"
   xmlns:inkscape="http://www.inkscape.org/namespaces/inkscape"
   version="1.1"
   width="400"
   height="120"
   id="svg2"
   inkscape:version="0.91 r13725"
   sodipodi:docname="system.svg">
	<metadata
	   id="metadata26">
		<rdf:RDF>
			<cc:Work
			   rdf:about="">
				<dc:format>image/svg+xml</dc:format>
				<dc:type
				   rdf:resource="http://purl.org/dc/dcmitype/StillImage" />
				<dc:title></dc:title>
				<cc:license
				   rdf:resource="http://creativecommons.org/licenses/by-nc-sa/3.0/" />
				<dc:creator>
					<cc:Agent>
						<dc:title>https://github.com/sirskunkalot</dc:title>
					</cc:Agent>
				</dc:creator>
			</cc:Work>
			<cc:License
			   rdf:about="http://creativecommons.org/licenses/by-nc-sa/3.0/">
				<cc:permits
				   rdf:resource="http://creativecommons.org/ns#Reproduction" />
				<cc:permits
				   rdf:resource="http://creativecommons.org/ns#Distribution" />
				<cc:requires
				   rdf:resource="http://creativecommons.org/ns#Notice" />
				<cc:requires
				   rdf:resource="http://creativecommons.org/ns#Attribution" />
				<cc:prohibits
				   rdf:resource="http://creativecommons.org/ns#CommercialUse" />
				<cc:permits
				   rdf:resource="http://creativecommons.org/ns#DerivativeWorks" />
				<cc:requires
				   rdf:resource="http://creativecommons.org/ns#ShareAlike" />
			</cc:License>
		</rdf:RDF>
	</metadata>
	<defs>
		<linearGradient id="A" x1="50%" x2="50%" y1="0%" y2="100%">
			<stop offset="0%" stop-color="#111d2e"/>
			<stop offset="1.2%" stop-color="#051839"/>
			<stop offset="20.7%" stop-color="#0a1b48"/>
			<stop offset="38.1%" stop-color="#132e62"/>
			<stop offset="53.8%" stop-color="#144b7e"/>
			<stop offset="67.3%" stop-color="#136497"/>
			<stop offset="100%" stop-color="#1387b8"/>
		</linearGradient>
	</defs>
	<g style="stroke:none;fill:url(#A)">
		<g
		   id="g4215">
			<g
			   id="g4199">
				<path
				   d="M 163.29998,37.018991 140.29172,71.041865 159.13891,88.420476 199.03624,58.558668 163.29998,37.018991 Z"
				   id="path8078"
				   inkscape:connector-curvature="0" />
				<g
				   id="g4186">
					<circle
					   r="28.75"
					   cy="36.779259"
					   cx="189.56975"
					   id="path4144"/>
					</g>
			</g>
			<g
			   id="g4206">
				<g
				   id="g4191">
					<path
					   inkscape:connector-curvature="0"
					   id="path5167"
					   d="m 161.10529,85.015903 a 17.623371,17.623371 0 1 1 -35.24674,0 17.623371,17.623371 0 1 1 35.24674,0 z" />
				</g>
				<g
				   id="g4195">
					<path
					   inkscape:connector-curvature="0"
					   id="path2252"
					   d="m 48.258612,38.977203 a 17.623371,17.623371 0 1 1 -35.246741,0 17.623371,17.623371 0 1 1 35.246741,0 z" />
				</g>
				<line x1="143.5" y1="85" x2="30" y2="38" style="stroke:url(#A);stroke-width:20" />
			</g>
		</g>
		<g
		   transform="scale(0.95096987,1.051558)"
		   id="text4156">
			<path
			   d="m 263.04439,26.509251 0,6.490086 q -2.5262,-1.129603 -4.92918,-1.704674 -2.40297,-0.575071 -4.53895,-0.575071 -2.83428,0 -4.1898,0.780453 -1.35553,0.780454 -1.35553,2.423513 0,1.232295 0.90369,1.930596 0.92422,0.677762 3.32719,1.17068 l 3.36828,0.677762 q 5.11402,1.026913 7.27054,3.121814 2.15651,2.094901 2.15651,5.956092 0,5.072947 -3.01912,7.558075 -2.99858,2.46459 -9.1806,2.46459 -2.91643,0 -5.8534,-0.554533 -2.93697,-0.554533 -5.87394,-1.64306 l 0,-6.67493 q 2.93697,1.560907 5.66856,2.361898 2.75213,0.780454 5.29887,0.780454 2.58782,0 3.96388,-0.862607 1.37606,-0.862606 1.37606,-2.46459 0,-1.437677 -0.94476,-2.21813 -0.92422,-0.780454 -3.71742,-1.396601 l -3.0602,-0.677762 q -4.60057,-0.985836 -6.73654,-3.142352 -2.11544,-2.156516 -2.11544,-5.812325 0,-4.580029 2.9575,-7.044619 2.95751,-2.464589 8.50284,-2.464589 2.5262,0 5.19618,0.390226 2.66997,0.369689 5.52478,1.129604 z"
			   id="path4150" />
			<path
			   d="m 271.16095,25.543953 28.26062,0 0,5.97663 -10.16643,0 0,24.686975 -7.90722,0 0,-24.686975 -10.18697,0 0,-5.97663 z"
			   id="path4152" />
			<path
			   d="m 306.28529,25.543953 21.33924,0 0,5.97663 -13.43201,0 0,5.709633 12.63102,0 0,5.976631 -12.63102,0 0,7.02408 13.88385,0 0,5.976631 -21.79108,0 0,-30.663605 z"
			   id="path4154" />
			<path
			   d="m 356.44364,50.621154 -12.36403,0 -1.95113,5.586404 -7.94831,0 11.35766,-30.663605 9.42705,0 11.35765,30.663605 -7.9483,0 -1.93059,-5.586404 z m -10.39236,-5.689095 8.40015,0 -4.18981,-12.199719 -4.21034,12.199719 z"
			   id="path4156" />
			<path
			   d="m 373.16571,25.543953 10.06374,0 6.98301,16.41006 7.02408,-16.41006 10.0432,0 0,30.663605 -7.47592,0 0,-22.427767 -7.06516,16.533289 -5.01133,0 -7.06516,-16.533289 0,22.427767 -7.49646,0 0,-30.663605 z"
			   id="path4158" />
		</g>
	</g>
</svg>
