<?xml version="1.0"?>
<svg width="210" height="65" xmlns="http://www.w3.org/2000/svg" xmlns:svg="http://www.w3.org/2000/svg" xmlns:xlink="http://www.w3.org/1999/xlink">
	<defs>
		<linearGradient id="A" x1="50%" x2="50%" y1="0%" y2="100%">
			<stop offset="0%" stop-color="#111d2e"/>
			<stop offset="1.2%" stop-color="#051839"/>
			<stop offset="20.7%" stop-color="#0a1b48"/>
			<stop offset="38.1%" stop-color="#132e62"/>
			<stop offset="53.8%" stop-color="#144b7e"/>
			<stop offset="67.3%" stop-color="#136497"/>
			<stop offset="100%" stop-color="#1387b8"/>
		</linearGradient>
	</defs>
	<symbol id="B">
		<g id="svg_1">
			<path d="m1.3,41.2c3.96,13.19 16.19,22.8 30.66,22.8c17.67,0 32,-14.33 32,-32s-14.33,-32 -32,-32c-16.96,0 -30.84,13.19 -31.93,29.87c2.07,3.48 2.88,5.63 1.27,11.33z" fill="url(#A)" id="svg_2"/>
			<path d="m30.31,23.98l0,0.16l-7.83,11.38c-1.27,-0.06 -2.54,0.16 -3.75,0.66a8.14,8.14 0 0 0 -1.49,0.8l-17.2,-7.09s-0.4,6.55 1.26,11.43l12.16,5.01c0.6,2.73 2.48,5.12 5.24,6.27a8.88,8.88 0 0 0 11.6,-4.78a8.89,8.89 0 0 0 0.69,-3.66l11.19,-8l0.27,0c6.71,0 12.16,-5.46 12.16,-12.18s-5.44,-12.16 -12.16,-12.17c-6.7,0 -12.15,5.46 -12.15,12.17l0.01,0zm-1.88,23.05c-1.45,3.5 -5.47,5.15 -8.95,3.7a6.84,6.84 0 0 1 -3.53,-3.36l3.96,1.64a5.04,5.04 0 0 0 6.59,-2.72a5.05,5.05 0 0 0 -2.71,-6.6l-4.1,-1.7c1.57,-0.6 3.37,-0.62 5.05,0.08c1.7,0.7 3,2.03 3.69,3.72s0.69,3.56 -0.01,5.24m14.05,-14.93a8.12,8.12 0 0 1 -8.1,-8.11a8.12,8.12 0 0 1 8.1,-8.11a8.12,8.12 0 0 1 8.1,8.11a8.12,8.12 0 0 1 -8.1,8.11m-6.07,-8.13a6.09,6.09 0 0 1 6.08,-6.09c3.35,0 6.08,2.73 6.08,6.09a6.09,6.09 0 0 1 -6.08,6.1a6.09,6.09 0 0 1 -6.08,-6.1z" id="svg_3"/>
		</g>
	</symbol>
	<g class="layer">
		<title>Layer 1</title>
		<use fill="#ffffff" id="svg_4" x="143.63" xlink:href="#B" y="0.5"/>
		<text fill="url(#A)" font-family="Helvetica" font-weight="bold" font-size="40" id="svg_8" stroke="#c8f4f3" stroke-dasharray="null" stroke-linecap="null" stroke-linejoin="null" stroke-width="0" text-anchor="middle" x="72.19" xml:space="preserve" y="47.5">STEAM</text>
	</g>
</svg>