<?xml version="1.0" encoding="UTF-8" standalone="no"?>
<!-- Created with Inkscape (http://www.inkscape.org/) -->

<svg
   sodipodi:docname="amigacd32.svg"
   inkscape:version="1.2.2 (b0a8486541, 2022-12-01)"
   xml:space="preserve"
   id="svg5"
   version="1.1"
   viewBox="0 0 317.50005 148.16669"
   height="560"
   width="1200"
   xmlns:inkscape="http://www.inkscape.org/namespaces/inkscape"
   xmlns:sodipodi="http://sodipodi.sourceforge.net/DTD/sodipodi-0.dtd"
   xmlns="http://www.w3.org/2000/svg"
   xmlns:svg="http://www.w3.org/2000/svg"
   xmlns:rdf="http://www.w3.org/1999/02/22-rdf-syntax-ns#"
   xmlns:cc="http://creativecommons.org/ns#"
   xmlns:dc="http://purl.org/dc/elements/1.1/"><title
     id="title164">SVG Wireframe of Amiga CD32 Controller</title><sodipodi:namedview
     id="namedview7"
     pagecolor="#ffffff"
     bordercolor="#666666"
     borderopacity="1.0"
     inkscape:showpageshadow="2"
     inkscape:pageopacity="0.0"
     inkscape:pagecheckerboard="0"
     inkscape:deskcolor="#d1d1d1"
     inkscape:document-units="px"
     showgrid="false"
     inkscape:zoom="1.9214296"
     inkscape:cx="366.65408"
     inkscape:cy="329.4422"
     inkscape:window-width="2229"
     inkscape:window-height="1853"
     inkscape:window-x="26"
     inkscape:window-y="23"
     inkscape:window-maximized="0"
     inkscape:current-layer="layer2"
     showguides="true" /><defs
     id="defs2"><inkscape:path-effect
       effect="bspline"
       id="path-effect1648"
       is_visible="true"
       lpeversion="1"
       weight="33.333333"
       steps="2"
       helper_size="0"
       apply_no_weight="true"
       apply_with_weight="true"
       only_selected="false" /><inkscape:path-effect
       effect="bspline"
       id="path-effect1522"
       is_visible="true"
       lpeversion="1"
       weight="33.333333"
       steps="2"
       helper_size="0"
       apply_no_weight="true"
       apply_with_weight="true"
       only_selected="false" /><inkscape:path-effect
       effect="bspline"
       id="path-effect3438"
       is_visible="true"
       lpeversion="1"
       weight="33.333333"
       steps="2"
       helper_size="0"
       apply_no_weight="true"
       apply_with_weight="true"
       only_selected="false" /><inkscape:path-effect
       effect="bspline"
       id="path-effect3438-9"
       is_visible="true"
       lpeversion="1"
       weight="33.333333"
       steps="2"
       helper_size="0"
       apply_no_weight="true"
       apply_with_weight="true"
       only_selected="false" /><inkscape:path-effect
       effect="bspline"
       id="path-effect1522-3"
       is_visible="true"
       lpeversion="1"
       weight="33.333333"
       steps="2"
       helper_size="0"
       apply_no_weight="true"
       apply_with_weight="true"
       only_selected="false" /><inkscape:path-effect
       effect="bspline"
       id="path-effect1648-7"
       is_visible="true"
       lpeversion="1"
       weight="33.333333"
       steps="2"
       helper_size="0"
       apply_no_weight="true"
       apply_with_weight="true"
       only_selected="false" /></defs><g
     inkscape:groupmode="layer"
     id="layer2"
     inkscape:label="Layer1"
     transform="translate(250.83127,-93.868484)"><g
       id="g8318"
       transform="matrix(0.64478316,0,0,0.64478316,-36.556748,61.189623)"
       style="stroke:#f6f6f6;stroke-opacity:1"><path
         style="display:inline;fill:none;stroke:#f6f6f6;stroke-opacity:1"
         d="m -131.29636,307.11503 c 1.19161,-0.10073 3.98929,-0.27589 6.21708,-0.38922 2.22778,-0.11332 4.64396,-0.29008 5.36929,-0.39279 0.72532,-0.10273 3.01433,-0.25919 5.08669,-0.34774 2.07236,-0.0886 4.70049,-0.29203 5.84028,-0.45215 1.13979,-0.16013 3.04731,-0.37609 4.23892,-0.47993 1.1916,-0.10385 3.22628,-0.28171 4.5215,-0.39527 1.295221,-0.11357 3.202733,-0.32851 4.238908,-0.47764 1.036175,-0.14913 2.392632,-0.31855 3.014343,-0.37647 0.621701,-0.0579 2.105324,-0.26469 3.296933,-0.45949 2.577235,-0.42131 4.541995,-0.69249 6.970657,-0.96212 0.98436,-0.10932 2.658589,-0.36285 3.720465,-0.56346 1.061887,-0.20062 2.206399,-0.36577 2.543347,-0.367 0.336958,-10e-4 1.063649,-0.12228 1.61485,-0.269 0.551212,-0.14672 1.568547,-0.32305 2.260758,-0.39184 0.6922,-0.0688 1.724827,-0.23844 2.294724,-0.37699 0.569897,-0.13855 1.544842,-0.30824 2.166554,-0.37708 0.6217,-0.0688 1.596656,-0.23652 2.166553,-0.37262 0.569897,-0.13609 1.544853,-0.30377 2.166554,-0.37261 0.621712,-0.0688 1.596657,-0.2392 2.166554,-0.37857 0.569896,-0.13937 1.502464,-0.30868 2.072361,-0.37623 0.569896,-0.0676 1.417686,-0.23839 1.883964,-0.37963 0.466278,-0.14123 1.229279,-0.31084 1.695557,-0.37691 0.466289,-0.066 1.22929,-0.23385 1.695568,-0.3728 0.466278,-0.13897 1.271679,-0.30263 1.789761,-0.36369 0.923297,-0.10887 2.165839,-0.36985 4.9925,-1.04882 1.369341,-0.32892 3.254588,-0.74604 6.970658,-1.54231 2.884086,-0.618 4.90712,-1.09675 6.217072,-1.47127 1.236127,-0.35341 3.169442,-0.85908 5.934482,-1.55217 3.16507,-0.79337 8.824247,-2.41269 10.130094,-2.89863 0.390681,-0.14538 0.856959,-0.26395 1.036175,-0.26348 0.351549,9.4e-4 2.39725,-0.61173 5.429128,-1.62588 1.045278,-0.34965 2.0185937,-0.63571 2.1629174,-0.63571 0.241672,0 0.9394385,-0.24765 3.189833,-1.13211 3.1404056,-1.23428 5.38098367,-2.64447 7.5358469,-4.74297 2.4141607,-2.35103 4.7201516,-5.80447 5.4494642,-8.1611 0.096044,-0.31049 0.4239004,-1.25227 0.728476,-2.09285 0.3045644,-0.84058 0.6136577,-1.9427 0.6869124,-2.44915 0.073288,-0.50646 0.2690805,-1.38711 0.4352562,-1.957 0.4193492,-1.43831 0.4115072,-7.89672 -0.012494,-10.17339 -0.1639782,-0.88075 -0.3529658,-2.23721 -0.4199515,-3.01434 -0.067041,-0.77714 -0.2333733,-1.92164 -0.3696983,-2.54335 -0.1363139,-0.62171 -0.3056353,-1.63905 -0.376224,-2.26076 -0.070611,-0.6217 -0.2415946,-1.59665 -0.3799944,-2.16655 -0.1383999,-0.5699 -0.3065166,-1.54484 -0.3736249,-2.16656 -0.067041,-0.62171 -0.2337638,-1.55425 -0.3703453,-2.07235 -0.1366151,-0.51808 -0.3044417,-1.40826 -0.3729333,-1.97815 -0.068492,-0.5699 -0.2446733,-1.54486 -0.3914729,-2.16656 -0.3080224,-1.30455 -1.0944708,-5.00171 -2.1738043,-10.21936 -0.2091225,-1.0109 -0.5483677,-2.55861 -0.753887,-3.43936 -0.2055417,-0.88075 -0.3714832,-1.73545 -0.3687725,-1.89933 0.00223,-0.16389 -0.1539945,-0.84211 -0.3482139,-1.50717 -0.1942082,-0.66506 -0.4484525,-1.67549 -0.5649774,-2.24538 -0.2053186,-1.00425 -0.55201537,-2.46833 -1.34954066,-5.69898 -0.2110187,-0.85485 -0.49838217,-2.02055 -0.63858907,-2.59045 -0.98798537,-4.01639 -1.76741727,-6.90606 -2.64238047,-9.7966 -0.1411439,-0.46628 -0.4473146,-1.48362 -0.6803422,-2.26076 -1.1820151,-3.94165 -2.7357699,-8.33924 -3.5611938,-10.07919 -3.7863112,-7.98128 -7.9725762,-12.23801 -14.7413032,-16.74342 0,0 -1.169752,-0.66954 -2.216864,-1.24795 -2.656213,-1.46726 -3.067839,-1.52115 -5.217859,-1.81257 -0.386319,-0.0349 -0.420041,-0.0868 -0.825779,-0.40025 -0.649452,-0.50166 0.204151,-2.23651 -0.953759,-2.3192 -0.839477,-0.06 -45.069274,-0.73752 -48.343975,-0.27016 -0.816678,0.11657 -1.217055,1.95057 -1.217055,2.50672 0,0.615 -2.056887,0.76515 -3.12376,0.9739 -3.363628,0.65813 -6.281938,2.88151 -8.101616,6.17238 -2.103183,3.80362 -2.193047,10.75349 -0.211287,16.34329 0.110211,0.31085 0.313232,0.94669 0.451152,1.41297 0.248533,0.84016 0.39695,1.28668 1.033275,3.10853 0.180945,0.5181 1.417385,4.24834 2.747627,8.28943 1.330254,4.0411 2.479027,7.47462 2.552829,7.63004 0.940978,1.98152 1.024105,3.51024 0.200466,3.68739 -0.278027,0.0598 -0.9718,0.26299 -1.541696,0.45154 -1.559812,0.51601 -3.176872,0.93333 -4.333119,1.11825 -0.569897,0.0911 -1.587231,0.29412 -2.260746,0.45107 -1.403475,0.32707 -4.175331,0.82256 -5.557693,0.9935 -0.518077,0.064 -1.408254,0.22777 -1.978144,0.36381 -0.5699,0.13603 -1.62964,0.30258 -2.35495,0.3701 -0.72533,0.0675 -2.03939,0.23785 -2.92014,0.37853 -0.88076,0.14066 -2.32199,0.31209 -3.20274,0.38095 -0.88076,0.0688 -2.02526,0.20523 -2.54335,0.30304 -0.51809,0.0978 -1.95932,0.26037 -3.20273,0.36125 -1.24342,0.10096 -3.15092,0.30612 -4.23891,0.45606 -3.80516,0.52442 -11.19268,1.11088 -20.62938,1.63769 -4.43075,0.24735 -26.53923,0.24443 -30.89697,-0.004 -10.32216,-0.58863 -15.31835,-0.98691 -20.53518,-1.637 -1.24341,-0.15494 -3.25315,-0.36244 -4.46607,-0.46113 -1.21293,-0.0987 -2.56939,-0.25845 -3.01435,-0.35506 -0.44495,-0.0966 -1.57201,-0.23038 -2.50457,-0.29727 -0.93257,-0.0669 -2.37379,-0.23663 -3.20274,-0.3772 -0.82894,-0.14056 -2.10062,-0.31089 -2.82595,-0.3785 -0.72531,-0.0676 -1.78505,-0.23681 -2.35495,-0.376 -0.56989,-0.13919 -1.50245,-0.30768 -2.07235,-0.37442 -1.3326,-0.15604 -3.90038,-0.61828 -5.46349,-0.98351 -0.67352,-0.15737 -1.69085,-0.36071 -2.26076,-0.45184 -1.38177,-0.22098 -4.68759,-1.1297 -6.16996,-1.69602 -0.50577,-0.19322 -0.57727,-1.11237 -0.16296,-2.09469 0.40785,-0.96696 1.47261,-4.01512 1.89424,-5.42278 0.13967,-0.46628 0.51907,-1.61078 0.84311,-2.54335 0.32404,-0.93255 0.67716,-1.9499 0.78472,-2.26074 0.10753,-0.31086 0.6489,-1.92165 1.203,-3.57954 0.55412,-1.65788 1.09303,-3.22627 1.1976,-3.48532 0.27436,-0.67964 1.47666,-4.44515 1.9998,-6.26321 2.99343,-10.40295 -0.93409,-19.27762 -9.1943,-20.77557 -1.70942,-0.31 -2.08441,-0.40594 -2.24007,-1.86799 -0.26117,-2.453 0.90447,-1.70059 -25.74819,-1.75942 -25.93201,-0.0572 -24.44627,-0.3806 -25.6677,0.88353 -0.61438,0.63586 -0.71803,1.22247 -0.72626,2.50053 0,0 -1.30441,-0.0372 -2.12498,0.095 -1.94943,0.31407 -4.10804,1.5935 -4.63085,1.90386 -1.99306,1.18313 -2.7892,1.71457 -4.23245,3.06922 -5.21718,4.89692 -8.93066,8.81497 -12.18885,17.59838 -0.23062,0.62171 -0.57727,1.52759 -0.77032,2.01308 -0.19304,0.4855 -0.351,1.01248 -0.351,1.1711 0,0.1586 -0.12101,0.56677 -0.26889,0.90704 -0.14789,0.34028 -0.49519,1.38169 -0.77179,2.31425 -0.27659,0.93256 -0.67028,2.24662 -0.87487,2.92014 -0.2046,0.67352 -0.48951,1.64847 -0.63314,2.16656 -0.14363,0.51808 -0.42617,1.53543 -0.62787,2.26075 -0.85644,3.07993 -0.99871,3.62192 -1.16212,4.42731 -0.0946,0.46628 -0.29559,1.27168 -0.44663,1.78976 -0.15102,0.51809 -0.44283,1.62021 -0.64844,2.44915 -0.2056,0.82894 -0.55074,2.19559 -0.76698,3.037 -0.21623,0.84141 -0.39313,1.69612 -0.39313,1.89934 0,0.20322 -0.15935,0.91363 -0.3541,1.57871 -0.35149,1.20032 -0.57176,2.15315 -1.0417,4.50613 -0.13452,0.67351 -0.38718,1.8604 -0.56146,2.63754 -0.17427,0.77713 -0.48508,2.21837 -0.69069,3.20274 -0.20561,0.98437 -0.49623,2.34081 -0.64583,3.01434 -0.1496,0.67352 -0.35732,1.86936 -0.46159,2.65744 -0.1043,0.78808 -0.26558,1.63586 -0.35845,1.88395 -0.0928,0.24811 -0.22717,0.95977 -0.29846,1.58148 -0.0713,0.62171 -0.24396,1.55427 -0.3837,2.07236 -0.13975,0.51808 -0.31074,1.45064 -0.37999,2.07234 -0.0693,0.62171 -0.23915,1.59665 -0.37755,2.16656 -0.13839,0.5699 -0.30793,1.54484 -0.37677,2.16656 -0.0688,0.6217 -0.23765,1.59665 -0.3751,2.16655 -0.13746,0.5699 -0.30389,1.62963 -0.36985,2.35495 -0.0659,0.72533 -0.25877,2.03939 -0.42844,2.92014 -0.8117,4.21306 -0.34473,10.97902 1.0402,15.07169 0.85989,2.54116 1.07905,3.09049 1.80389,4.52151 3.07536,6.07159 7.84709,9.59667 16.31694,12.05401 0.77713,0.22548 1.62491,0.49889 1.88396,0.60758 0.25904,0.10865 1.0439,0.3537 1.7441,0.54445 0.70023,0.19075 1.88713,0.52105 2.63756,0.73399 0.75042,0.21295 1.78831,0.50629 2.3064,0.65189 0.51809,0.14558 1.66259,0.48813 2.54335,0.76121 0.88075,0.27308 2.06765,0.61444 2.63755,0.7586 2.32938,0.5892 3.33899,0.86046 4.14471,1.11357 0.46627,0.14649 1.1869,0.3213 1.60136,0.38849 0.41448,0.0671 1.13509,0.23672 1.60138,0.37674 3.62539,1.08868 4.52776,1.30591 12.15155,2.92541 1.03619,0.22011 2.5198,0.55619 3.29693,0.74684 2.62269,0.64341 4.04624,0.94452 4.9925,1.05605 0.5181,0.061 1.32349,0.22472 1.78976,0.36369 0.46628,0.13897 1.22929,0.30673 1.69557,0.3728 0.46628,0.066 1.22928,0.23569 1.69557,0.37692 0.46628,0.14124 1.31406,0.31206 1.88395,0.37963 0.5699,0.0676 1.50247,0.23578 2.07236,0.37383 0.56989,0.13804 1.50246,0.30725 2.07235,0.37602 0.5699,0.0687 1.37529,0.21214 1.78977,0.31862 0.41447,0.10642 1.55897,0.30498 2.54334,0.44112 0.98437,0.13614 2.25604,0.3363 2.82595,0.4448 2.79946,0.53297 5.41253,0.96859 5.79353,0.96584 0.23334,-0.002 1.29306,0.16017 2.35496,0.35967 1.06189,0.1995 2.6937,0.45341 3.62626,0.56425 3.4642,0.41174 4.95241,0.61332 7.06486,0.95699 2.40535,0.3913 4.43069,0.65936 7.25326,0.95995 7.43904,0.79226 8.8098,0.92474 9.62858,0.93058 0.50688,0.003 1.59982,0.1315 2.42877,0.28417 0.82894,0.15268 3.32989,0.35892 5.55768,0.4583 2.22778,0.0994 4.64396,0.26437 5.36929,0.36665 0.72533,0.10229 3.14151,0.27491 5.36929,0.3836 2.22779,0.10865 4.38963,0.25144 4.8041,0.31721 2.64958,0.42044 45.36987,0.48564 50.20758,0.0766 z"
         id="path440"
         sodipodi:nodetypes="ssscsssssssscssssssscscscssssssssssssscccsssccsssscssscsccsscsssssssssscsccscssscscsscsssssssssssssssssssssscsssssssssssssssssssssscssssssscsssssssssscssscscssscssscsssscsssssss"
         transform="translate(69.527457,-70.233995)" /><g
         id="g3378"
         style="fill:none;stroke:#f6f6f6;stroke-opacity:1"
         transform="translate(66.908982,-69.545488)"><ellipse
           style="fill:none;fill-opacity:0.358231;fill-rule:evenodd;stroke:#f6f6f6;stroke-opacity:1;stop-color:#000000"
           id="path1366-5"
           cx="-271.76385"
           cy="222.01042"
           rx="24.239351"
           ry="24.341463" /><ellipse
           style="fill:none;fill-opacity:0.358231;fill-rule:evenodd;stroke:#f6f6f6;stroke-opacity:1;stop-color:#000000"
           id="path1366-5-3"
           cx="-288.75623"
           cy="217.76749"
           rx="3.7890465"
           ry="3.805476" /><ellipse
           style="fill:none;fill-opacity:0.358231;fill-rule:evenodd;stroke:#f6f6f6;stroke-opacity:1;stop-color:#000000"
           id="path1366-5-3-5"
           cx="-267.33334"
           cy="205.52808"
           rx="3.7890465"
           ry="3.805476" /><ellipse
           style="fill:none;fill-opacity:0.358231;fill-rule:evenodd;stroke:#f6f6f6;stroke-opacity:1;stop-color:#000000"
           id="path1366-5-3-5-6"
           cx="-255.02536"
           cy="227.40739"
           rx="3.7890465"
           ry="3.805476" /><ellipse
           style="display:inline;fill:none;fill-opacity:0.358231;fill-rule:evenodd;stroke:#f6f6f6;stroke-opacity:1;stop-color:#000000"
           id="path1366-5-3-5-6-2"
           cx="-276.7998"
           cy="239.6954"
           rx="3.7890465"
           ry="3.805476" /></g><g
         id="g3371"
         transform="translate(69.527457,-70.233995)"
         style="stroke:#f6f6f6;stroke-opacity:1"><circle
           style="fill:none;fill-opacity:0.358231;fill-rule:evenodd;stroke:#f6f6f6;stroke-opacity:1;stop-color:#000000"
           id="path1366"
           cx="-55.400497"
           cy="213.78976"
           r="10.392489" /><circle
           style="fill:none;fill-opacity:0.358231;fill-rule:evenodd;stroke:#f6f6f6;stroke-opacity:1;stop-color:#000000"
           id="path1366-3"
           cx="-24.066544"
           cy="204.86638"
           r="10.392489" /><circle
           style="fill:none;fill-opacity:0.358231;fill-rule:evenodd;stroke:#f6f6f6;stroke-opacity:1;stop-color:#000000"
           id="path1366-3-6"
           cx="-14.493952"
           cy="236.30208"
           r="10.392489" /><circle
           style="fill:none;fill-opacity:0.358231;fill-rule:evenodd;stroke:#f6f6f6;stroke-opacity:1;stop-color:#000000"
           id="path1366-3-6-7"
           cx="-46.047714"
           cy="245.14665"
           r="13.270206" /></g><path
         style="fill:none;stroke:#f6f6f6;stroke-opacity:1"
         d="m -246.12395,299.60536 c 0.0602,-6.75162 0.12038,-13.50337 0.43782,-20.17871 0.31744,-6.67534 0.89211,-13.2736 1.70726,-19.55247 0.81514,-6.27887 1.87067,-12.23757 2.88392,-16.93919 1.01325,-4.70161 1.98409,-8.14552 2.79364,-11.78869 0.80955,-3.64316 1.45768,-7.48515 3.41743,-10.37715 1.95975,-2.89201 5.23082,-4.83344 8.5019,-6.77488"
         id="path3436"
         inkscape:path-effect="#path-effect3438"
         inkscape:original-d="m -246.12395,299.60536 c 0.0605,-6.75162 0.12065,-13.50337 0.18058,-20.25565 0.57497,-6.59838 1.14964,-13.19664 1.72408,-19.79555 1.05586,-5.9588 2.11139,-11.9175 3.16673,-17.87683 0.97117,-3.44386 1.94202,-6.88777 2.91266,-10.33217 0.64844,-3.84197 1.29657,-7.68396 1.94448,-11.52645 3.27148,-1.94125 6.54255,-3.88269 9.81344,-5.82444"
         sodipodi:nodetypes="ccccccc"
         transform="translate(69.527457,-70.233995)" /><path
         style="fill:none;stroke:#f6f6f6;stroke-opacity:1"
         d="m -64.920824,299.84288 c -0.0914,-7.08143 -0.182805,-14.16298 -0.515852,-21.00322 -0.333047,-6.84024 -0.907718,-13.4385 -1.722861,-19.71737 -0.815143,-6.27887 -1.870676,-12.23757 -2.883922,-16.93919 -1.013246,-4.70161 -1.984092,-8.14552 -2.79364,-11.78869 -0.809548,-3.64316 -1.457681,-7.48515 -3.444861,-10.30697 -1.98718,-2.82182 -5.3131,-4.6229 -8.639015,-6.42398"
         id="path3436-1"
         inkscape:path-effect="#path-effect3438-9"
         inkscape:original-d="m -64.920824,299.84288 c -0.09114,-7.08143 -0.182544,-14.16298 -0.274215,-21.24506 -0.57497,-6.59838 -1.14964,-13.19664 -1.72408,-19.79555 -1.05586,-5.9588 -2.11139,-11.9175 -3.16673,-17.87683 -0.97117,-3.44386 -1.94202,-6.88777 -2.91266,-10.33217 -0.64844,-3.84197 -1.29657,-7.68396 -1.94448,-11.52645 -3.326202,-1.80111 -6.652121,-3.60219 -9.977986,-5.40336"
         sodipodi:nodetypes="ccccccc"
         transform="translate(69.527457,-70.233995)" /><path
         style="fill:#000000;stroke:#f6f6f6;stroke-opacity:1"
         d="m -281.82967,167.72813 52.78081,-0.19928"
         id="path1351"
         sodipodi:nodetypes="cc"
         transform="translate(69.527457,-70.233995)" /><path
         style="fill:none;stroke:#f6f6f6;stroke-opacity:1"
         d="m -81.490773,167.33351 c 0.09699,0.0361 51.645419,0.078 51.645419,0.078"
         id="path1461"
         sodipodi:nodetypes="cc"
         transform="translate(69.527457,-70.233995)" /><path
         style="fill:none;stroke:#f6f6f6;stroke-opacity:1"
         d="m -128.87338,266.50293 c -19.7267,0.75165 -39.453,1.50328 -58.64649,0.48413 -19.19349,-1.01915 -37.85335,-3.80913 -56.5133,-6.59913"
         id="path1520"
         inkscape:path-effect="#path-effect1522"
         inkscape:original-d="m -128.87338,266.50293 c -19.72669,0.75192 -39.45299,1.50356 -59.18021,2.25495 -18.6598,-2.78975 -37.31966,-5.57973 -55.97958,-8.36995"
         sodipodi:nodetypes="ccc"
         transform="translate(69.527457,-70.233995)" /><path
         style="fill:none;stroke:#f6f6f6;stroke-opacity:1"
         d="m -127.32348,275.72366 c -20.16269,0.75165 -40.32497,1.50328 -59.94266,0.48413 -19.61769,-1.01915 -38.68996,-3.80913 -57.76232,-6.59913"
         id="path1520-6"
         inkscape:path-effect="#path-effect1522-3"
         inkscape:original-d="m -127.32348,275.72366 c -20.16268,0.75192 -40.32496,1.50356 -60.48817,2.25495 -19.07221,-2.78975 -38.14448,-5.57973 -57.21681,-8.36995"
         sodipodi:nodetypes="ccc"
         transform="translate(69.527457,-70.233995)" /><path
         style="fill:none;stroke:#f6f6f6;stroke-opacity:1"
         d="m -95.04711,263.49523 c 4.89695,-0.60005 9.793846,-1.20009 14.445508,-1.90131 4.651662,-0.70122 9.057462,-1.5035 13.463525,-2.30582"
         id="path1646"
         inkscape:path-effect="#path-effect1648"
         inkscape:original-d="m -95.04711,263.49523 c 4.896986,-0.59976 9.793882,-1.1998 14.690689,-1.80013 4.406536,-0.8021 8.812337,-1.60437 13.218344,-2.407"
         sodipodi:nodetypes="ccc"
         transform="translate(69.527457,-70.233995)" /><path
         style="fill:none;stroke:#f6f6f6;stroke-opacity:1"
         d="m -93.966603,272.8107 c 4.89695,-0.60005 9.793846,-1.20009 14.445508,-1.90131 4.651662,-0.70122 9.057462,-1.5035 13.463525,-2.30582"
         id="path1646-5"
         inkscape:path-effect="#path-effect1648-7"
         inkscape:original-d="m -93.966603,272.8107 c 4.896986,-0.59976 9.793882,-1.1998 14.690689,-1.80013 4.406536,-0.8021 8.812337,-1.60437 13.218344,-2.407"
         sodipodi:nodetypes="ccc"
         transform="translate(69.527457,-70.233995)" /><path
         d="m -209.78783,246.9633 c 0.008,-0.089 -0.013,-0.159 -0.064,-0.204 -0.052,-0.045 -0.119,-0.074 -0.207,-0.082 -0.3,-0.031 -0.6,-0.058 -0.902,-0.08 -0.303,-0.023 -0.605,-0.05 -0.902,-0.081 -0.157,-0.025 -0.393,-0.061 -0.71,-0.106 -0.314,-0.045 -0.531,-0.032 -0.647,0.038 -0.025,0.028 -0.047,0.058 -0.067,0.092 -0.02,0.035 -0.045,0.065 -0.067,0.093 l -4.609,5.296 0.635,-5.739 c 0.022,-0.109 0.03,-0.203 0.027,-0.283 -0.005,-0.082 -0.071,-0.133 -0.198,-0.153 -0.326,-0.043 -0.655,-0.081 -0.985,-0.117 -0.329,-0.037 -0.658,-0.082 -0.982,-0.141 -0.183,-0.034 -0.365,-0.071 -0.545,-0.11 -0.181,-0.039 -0.36,-0.071 -0.536,-0.098 -0.119,-0.021 -0.237,-0.021 -0.353,0.001 -0.116,0.021 -0.186,0.1 -0.212,0.233 0.014,0.228 0.179,0.363 0.491,0.404 0.315,0.041 0.478,0.175 0.491,0.403 -0.026,0.154 -0.08,0.31 -0.163,0.464 -0.082,0.154 -0.161,0.299 -0.234,0.433 -0.475,0.896 -0.95,1.795 -1.423,2.694 -0.472,0.899 -0.956,1.791 -1.451,2.678 -0.194,0.38 -0.367,0.643 -0.521,0.785 -0.153,0.141 -0.449,0.219 -0.887,0.231 -0.12,0.002 -0.229,0.022 -0.326,0.062 -0.098,0.04 -0.157,0.125 -0.179,0.253 -0.011,0.115 0.02,0.196 0.094,0.238 0.075,0.043 0.162,0.072 0.267,0.082 0.248,0.032 0.498,0.059 0.752,0.082 0.254,0.024 0.504,0.051 0.752,0.083 0.233,0.034 0.46,0.078 0.686,0.13 0.224,0.052 0.451,0.095 0.675,0.128 0.107,0.015 0.21,0.003 0.312,-0.036 0.102,-0.04 0.164,-0.119 0.187,-0.235 0.011,-0.199 -0.083,-0.319 -0.287,-0.361 -0.201,-0.042 -0.402,-0.102 -0.599,-0.183 -0.196,-0.078 -0.282,-0.274 -0.256,-0.585 0.082,-0.438 0.329,-1.07 0.743,-1.898 0.414,-0.827 0.842,-1.625 1.28,-2.396 0.439,-0.771 0.734,-1.289 0.889,-1.556 l -0.764,6.673 c -0.033,0.205 -0.032,0.371 -0.002,0.496 0.032,0.125 0.16,0.206 0.391,0.24 0.234,0.023 0.428,-0.032 0.583,-0.164 0.153,-0.132 0.301,-0.282 0.439,-0.449 l 5.386,-5.968 -2.219,5.364 c -0.079,0.234 -0.179,0.465 -0.303,0.697 -0.124,0.229 -0.323,0.356 -0.594,0.376 -0.154,-0.009 -0.326,-0.01 -0.521,0.003 -0.195,0.013 -0.313,0.113 -0.358,0.302 -0.012,0.103 0.015,0.182 0.079,0.235 0.063,0.05 0.142,0.082 0.236,0.095 0.327,0.04 0.658,0.068 0.99,0.081 0.333,0.013 0.664,0.04 0.991,0.081 0.339,0.052 0.811,0.132 1.146,0.202 0.337,0.071 0.676,0.128 1.014,0.17 0.125,0.02 0.241,0.009 0.346,-0.026 0.105,-0.034 0.169,-0.12 0.189,-0.254 0.007,-0.171 -0.068,-0.277 -0.225,-0.323 -0.157,-0.043 -0.31,-0.1 -0.465,-0.166 -0.154,-0.066 -0.224,-0.218 -0.209,-0.453 0.021,-0.17 0.062,-0.339 0.119,-0.512 0.056,-0.17 0.117,-0.335 0.182,-0.492 l 2.095,-5.572 c 0.079,-0.246 0.167,-0.436 0.264,-0.569 0.097,-0.133 0.281,-0.2 0.556,-0.204 0.145,0.007 0.289,-0.004 0.43,-0.04 0.141,-0.023 0.225,-0.121 0.255,-0.282 z m 22.851,10.885 c 0.004,-0.115 -0.025,-0.195 -0.085,-0.24 -0.061,-0.042 -0.146,-0.072 -0.255,-0.089 -0.363,-0.078 -0.575,-0.228 -0.634,-0.448 -0.059,-0.222 -0.08,-0.503 -0.058,-0.843 l -0.014,-7.05 c 0.015,-0.254 0.001,-0.467 -0.04,-0.64 -0.04,-0.173 -0.201,-0.271 -0.485,-0.29 -0.259,-0.006 -0.452,0.058 -0.576,0.195 -0.126,0.137 -0.253,0.299 -0.387,0.491 l -4.949,6.042 -0.849,1.011 c -0.169,0.216 -0.35,0.415 -0.545,0.6 -0.194,0.181 -0.431,0.286 -0.713,0.309 -0.16,10e-4 -0.311,0.02 -0.454,0.058 -0.144,0.037 -0.227,0.147 -0.25,0.328 -0.003,0.108 0.028,0.182 0.1,0.22 0.07,0.038 0.155,0.058 0.251,0.061 0.263,0.015 0.532,0.022 0.801,0.019 0.272,-0.005 0.543,0.002 0.813,0.02 0.242,0.021 0.483,0.051 0.724,0.09 0.24,0.039 0.481,0.069 0.723,0.089 0.112,0.011 0.216,-0.006 0.313,-0.047 0.097,-0.044 0.152,-0.123 0.165,-0.24 -0.003,-0.176 -0.102,-0.283 -0.298,-0.328 -0.195,-0.045 -0.393,-0.097 -0.587,-0.16 -0.194,-0.064 -0.29,-0.214 -0.289,-0.45 0.054,-0.248 0.249,-0.594 0.585,-1.036 0.333,-0.442 0.576,-0.752 0.726,-0.931 l 2.907,0.181 c 0.001,0.298 0,0.596 0.001,0.896 0.001,0.3 -0.007,0.6 -0.02,0.895 -0.037,0.412 -0.159,0.651 -0.365,0.712 -0.207,0.061 -0.414,0.09 -0.617,0.088 -0.203,-0.001 -0.319,0.111 -0.346,0.334 -0.003,0.097 0.024,0.165 0.083,0.205 0.056,0.04 0.13,0.062 0.218,0.064 0.392,0.015 0.789,0.022 1.187,0.019 0.397,-0.005 0.792,0.001 1.186,0.019 0.263,0.015 0.526,0.038 0.788,0.067 0.263,0.03 0.526,0.052 0.789,0.068 0.119,0.011 0.222,-0.002 0.311,-0.04 0.085,-0.034 0.134,-0.117 0.145,-0.249 z m -3.339,-3.77 -2.42,-0.144 2.474,-3.131 z m -4.288,-5.591 c -0.009,-0.153 -0.157,-0.273 -0.443,-0.357 -0.286,-0.087 -0.591,-0.147 -0.911,-0.183 -0.32,-0.036 -0.536,-0.057 -0.646,-0.063 -1.189,-0.088 -2.387,0.032 -3.73,0.385 -1.343,0.353 -2.469,0.95 -3.485,1.757 -1.016,0.807 -1.62,1.867 -1.81,3.178 -0.079,0.839 0.089,1.556 0.498,2.155 0.41,0.599 1.062,1.093 1.758,1.426 0.696,0.333 1.425,0.534 2.185,0.604 0.465,0.043 0.932,0.059 1.404,0.047 0.472,-0.012 0.938,-0.05 1.398,-0.114 0.175,-0.019 0.413,-0.04 0.54,-0.084 0.128,-0.043 0.232,-0.147 0.309,-0.31 0.153,-0.342 0.292,-0.69 0.417,-1.046 0.125,-0.354 0.255,-0.707 0.387,-1.058 0.211,-0.5 0.436,-0.783 0.678,-0.855 0.242,-0.072 0.455,-0.098 0.636,-0.079 0.181,0.018 0.285,-0.087 0.312,-0.317 0.002,-0.097 -0.03,-0.168 -0.099,-0.215 -0.069,-0.047 -0.149,-0.074 -0.237,-0.079 -0.357,-0.022 -0.714,-0.033 -1.072,-0.032 -0.36,0 -0.742,-0.005 -1.104,-0.036 -0.342,-0.037 -0.682,-0.082 -1.019,-0.136 -0.339,-0.057 -0.68,-0.102 -1.019,-0.136 -0.114,-0.012 -0.225,-0.002 -0.333,0.032 -0.109,0.034 -0.173,0.116 -0.194,0.246 -0.001,0.16 0.086,0.258 0.259,0.291 0.175,0.034 0.346,0.085 0.518,0.152 0.172,0.067 0.251,0.229 0.241,0.488 -0.041,0.262 -0.155,0.615 -0.347,1.061 -0.191,0.446 -0.346,0.804 -0.467,1.074 -0.075,0.21 -0.164,0.355 -0.265,0.438 -0.101,0.081 -0.268,0.11 -0.5,0.086 -0.831,-0.095 -1.436,-0.42 -1.816,-0.974 -0.378,-0.553 -0.531,-1.23 -0.459,-2.027 0.074,-0.735 0.294,-1.433 0.66,-2.096 0.366,-0.664 0.831,-1.235 1.397,-1.711 0.559,-0.46 1.231,-0.836 2.017,-1.127 0.786,-0.291 1.489,-0.412 2.223,-0.372 0.349,0.021 0.558,0.107 0.627,0.249 0.069,0.144 0.084,0.374 0.046,0.693 -0.009,0.085 -0.02,0.167 -0.034,0.252 -0.015,0.084 -0.026,0.166 -0.033,0.252 -0.015,0.139 -0.001,0.268 0.041,0.387 0.042,0.119 0.143,0.186 0.3,0.205 0.176,0 0.31,-0.076 0.406,-0.228 0.096,-0.152 0.168,-0.302 0.219,-0.446 0.045,-0.105 0.143,-0.336 0.292,-0.695 0.147,-0.364 0.234,-0.589 0.255,-0.682 z m -9.209,-0.902 c 0.007,-0.085 -0.014,-0.15 -0.062,-0.2 -0.049,-0.047 -0.114,-0.078 -0.193,-0.087 -0.127,-0.014 -0.253,-0.021 -0.377,-0.024 -0.124,-0.002 -0.251,-0.005 -0.38,-0.003 -0.317,-0.001 -0.637,-0.016 -0.96,-0.046 -0.324,-0.029 -0.644,-0.064 -0.964,-0.1 -0.234,-0.028 -0.467,-0.064 -0.699,-0.107 -0.233,-0.042 -0.466,-0.078 -0.7,-0.106 -0.111,-0.013 -0.215,0.008 -0.31,0.06 -0.095,0.052 -0.151,0.136 -0.17,0.257 0.016,0.215 0.167,0.334 0.449,0.352 0.282,0.018 0.431,0.158 0.442,0.415 -0.01,0.071 -0.025,0.141 -0.05,0.215 -0.025,0.071 -0.054,0.142 -0.083,0.211 l -2.48,5.925 c -0.1,0.279 -0.204,0.518 -0.314,0.719 -0.107,0.201 -0.318,0.319 -0.627,0.354 -0.141,0.005 -0.307,0.019 -0.498,0.046 -0.191,0.025 -0.305,0.121 -0.343,0.286 -0.005,0.097 0.024,0.17 0.091,0.219 0.067,0.05 0.144,0.079 0.234,0.087 0.307,0.03 0.615,0.046 0.929,0.049 0.315,0.003 0.628,0.02 0.941,0.051 0.334,0.04 0.669,0.089 1.003,0.148 0.336,0.059 0.669,0.108 1.002,0.148 0.136,0.024 0.294,0.038 0.476,0.035 0.18,0 0.289,-0.088 0.325,-0.258 0.006,-0.18 -0.074,-0.287 -0.244,-0.318 -0.17,-0.031 -0.336,-0.077 -0.503,-0.138 -0.167,-0.063 -0.24,-0.229 -0.223,-0.505 0.015,-0.113 0.042,-0.226 0.083,-0.339 0.041,-0.114 0.087,-0.225 0.136,-0.333 l 2.483,-5.953 c 0.094,-0.245 0.194,-0.421 0.297,-0.526 0.103,-0.104 0.289,-0.167 0.559,-0.187 0.136,-0.001 0.284,-0.022 0.444,-0.062 0.16,-0.042 0.255,-0.136 0.286,-0.286 z m -21.627,6.304 c 0.013,-0.114 -0.008,-0.197 -0.065,-0.246 -0.057,-0.048 -0.139,-0.085 -0.246,-0.111 -0.355,-0.11 -0.554,-0.277 -0.593,-0.501 -0.04,-0.227 -0.036,-0.508 0.015,-0.846 l 0.596,-7.025 c 0.037,-0.251 0.04,-0.465 0.015,-0.64 -0.025,-0.176 -0.177,-0.288 -0.458,-0.331 -0.258,-0.029 -0.455,0.018 -0.59,0.144 -0.138,0.125 -0.279,0.276 -0.428,0.455 l -5.394,5.667 -0.909,0.957 c -0.182,0.205 -0.375,0.393 -0.58,0.565 -0.205,0.169 -0.448,0.259 -0.732,0.264 -0.159,-0.008 -0.311,0.002 -0.456,0.03 -0.145,0.029 -0.235,0.133 -0.269,0.313 -0.01,0.108 0.017,0.184 0.086,0.226 0.068,0.042 0.151,0.067 0.247,0.076 0.261,0.031 0.529,0.054 0.798,0.068 0.272,0.012 0.542,0.035 0.81,0.07 0.241,0.035 0.479,0.08 0.717,0.134 0.238,0.054 0.476,0.098 0.717,0.134 0.11,0.017 0.215,0.006 0.314,-0.029 0.1,-0.037 0.16,-0.113 0.181,-0.229 0.007,-0.176 -0.085,-0.289 -0.278,-0.345 -0.192,-0.057 -0.386,-0.121 -0.576,-0.196 -0.19,-0.076 -0.277,-0.232 -0.261,-0.467 0.07,-0.245 0.285,-0.578 0.647,-0.998 0.36,-0.421 0.622,-0.716 0.782,-0.885 l 2.827,0.391 c -0.024,0.297 -0.051,0.594 -0.076,0.893 -0.025,0.299 -0.059,0.597 -0.097,0.89 -0.073,0.407 -0.215,0.634 -0.426,0.677 -0.21,0.043 -0.419,0.054 -0.622,0.035 -0.202,-0.018 -0.327,0.083 -0.374,0.303 -0.011,0.096 0.01,0.166 0.065,0.211 0.053,0.045 0.125,0.073 0.213,0.083 0.389,0.049 0.784,0.09 1.18,0.121 0.396,0.029 0.789,0.07 1.18,0.121 0.261,0.038 0.521,0.084 0.78,0.136 0.259,0.052 0.519,0.097 0.78,0.136 0.117,0.021 0.221,0.016 0.312,-0.013 0.089,-0.03 0.145,-0.108 0.168,-0.238 z m -2.999,-4.045 -2.361,-0.326 2.695,-2.932 z m 75.437,3.941 c 0.001,-0.24 -0.017,-0.492 -0.016,-0.732 0.002,-0.5 -0.004,-1.001 0.081,-1.492 0.173,-1.028 1.074,-1.153 1.975,-1.224 l 2.365,-0.174 c 0.301,-0.027 0.628,-0.025 0.92,-0.126 0.274,-0.091 0.274,-0.247 0.275,-0.508 0.001,-0.175 0.002,-0.372 -0.156,-0.483 -0.233,-0.176 -1.246,-0.134 -1.519,-0.135 -0.572,-0.003 -1.19,-0.033 -1.762,0.057 -0.432,0.063 -0.387,0.37 -0.389,0.739 v 0.203 l -1.849,-0.008 0.001,-0.252 c 0.002,-0.509 0.014,-1.213 0.401,-1.61 0.432,-0.444 1.389,-0.458 1.961,-0.484 0.403,-0.016 0.805,-0.015 1.209,-0.013 l 0.177,0.001 1.547,0.015 c 0.6,0.003 1.37,0.015 1.819,0.472 0.346,0.354 0.343,1.057 0.341,1.512 -0.002,0.464 -0.013,0.955 -0.279,1.362 -0.35,0.545 -1.335,0.615 -1.916,0.65 -0.451,0.025 -0.892,0.051 -1.343,0.077 -0.357,0.017 -0.712,0.043 -1.069,0.069 -0.158,0.009 -0.562,0.035 -0.712,0.09 -0.301,0.109 -0.302,0.314 -0.303,0.582 l 5.71,0.024 -0.006,1.419 z m -0.876,-0.984 c -0.133,0.536 -0.612,0.795 -1.128,0.894 -0.47,0.091 -0.958,0.116 -1.436,0.124 -0.6,0.016 -1.191,0.022 -1.793,0.02 -0.73,-0.003 -2.072,0.028 -2.651,-0.484 -0.458,-0.41 -0.408,-1.273 -0.406,-1.829 l 1.821,0.008 -0.001,0.11 c -0.001,0.203 -0.03,0.464 0.147,0.612 0.158,0.13 0.674,0.114 0.872,0.115 0.292,0.001 0.591,0.011 0.883,0.012 0.338,0.002 0.674,-0.006 1.013,-0.014 0.478,-0.007 0.91,0.023 0.912,-0.543 0,-0.101 0.001,-0.23 -0.064,-0.316 -0.13,-0.204 -0.636,-0.187 -0.844,-0.197 -0.609,-0.021 -1.209,-0.033 -1.82,-0.026 l 0.005,-1.327 1.445,0.006 c 0.263,0.001 0.581,0.003 0.845,-0.061 0.264,-0.063 0.321,-0.229 0.322,-0.481 0,-0.129 -0.018,-0.249 -0.12,-0.344 -0.196,-0.176 -1.528,-0.145 -1.811,-0.146 -0.291,-0.001 -0.581,0.007 -0.873,0.005 -0.224,0 -0.581,-0.011 -0.761,0.145 -0.159,0.138 -0.123,0.454 -0.124,0.648 l -1.82,-0.008 0.001,-0.321 c 0.001,-0.288 0.011,-0.592 0.088,-0.871 0.151,-0.546 0.659,-0.796 1.184,-0.886 0.86,-0.144 1.854,-0.14 2.724,-0.136 0.395,0.002 0.78,0.003 1.172,0.023 0.609,0.021 1.36,0.034 1.827,0.49 0.328,0.318 0.363,0.846 0.362,1.273 -0.004,0.798 -0.22,1.138 -1.028,1.303 0.168,0.047 0.347,0.076 0.506,0.141 0.608,0.233 0.634,0.792 0.631,1.357 -0.003,0.23 -0.023,0.47 -0.08,0.703 z m -18.855,-0.13 0.02,-1.165 c 0.024,-1.451 -1.139,-2.652 -2.607,-2.688 l -4.603,-0.115 c -1.477,-0.037 -2.619,1.053 -2.693,2.509 l -0.238,4.697 c -0.074,1.459 1.209,2.741 2.683,2.777 l 4.613,0.115 c 1.477,0.037 2.7,-1.117 2.737,-2.574 l 0.028,-1.144 -2.443,-0.061 -0.015,0.598 c -0.01,0.428 -0.369,0.766 -0.803,0.755 l -3.502,-0.087 c -0.434,-0.011 -0.852,-0.372 -0.83,-0.801 l 0.183,-3.603 c 0.022,-0.429 0.342,-0.763 0.776,-0.753 l 3.501,0.087 c 0.434,0.011 0.776,0.366 0.765,0.795 l -0.015,0.597 z m 10.622,-0.989 c 0.001,-1.458 -1.189,-2.642 -2.664,-2.648 l -4.741,-0.049 -1.369,-0.034 -1.074,-0.027 -0.248,9.983 1.074,0.027 1.369,0.034 4.961,0.052 c 1.48,0.006 2.684,-1.177 2.686,-2.639 z m -7.593,4.871 0.128,-5.154 4.256,0.048 c 0.435,0.002 0.786,0.352 0.784,0.781 l -0.015,3.603 c -0.002,0.429 -0.356,0.776 -0.79,0.774 l -4.363,-0.049 z"
         style="fill:none;stroke:#f6f6f6;stroke-opacity:1"
         id="path8391"
         transform="translate(69.527457,-70.233995)" /><rect
         style="fill:none;fill-opacity:0.358231;fill-rule:evenodd;stroke:#f6f6f6;stroke-opacity:1;stop-color:#000000"
         id="rect3147"
         width="42.671852"
         height="9.3797045"
         x="-80.097954"
         y="190.30556"
         ry="4.6898522"
         transform="rotate(-4.9861052)" /></g></g><style
     type="text/css"
     id="style1834">
	.st0{fill:#FF001F;}
	.st1{fill:url(#SVGID_1_);}
	.st2{fill:url(#SVGID_00000130606512212214315220000008846499915659980450_);}
	.st3{clip-path:url(#SVGID_00000140736035392270600020000013711345569853377666_);}
	.st4{fill:url(#SVGID_00000119832586673770508320000013100347455236559295_);}
	.st5{fill:url(#SVGID_00000086676042941363961300000007836202702428108215_);}
	.st6{fill:url(#SVGID_00000138566712955593781750000007796203761371047098_);}
	.st7{fill:#FFFFFF;}
</style><metadata
     id="metadata162"><rdf:RDF><cc:Work
         rdf:about=""><dc:title>SVG Wireframe of Amiga CD32 Controller</dc:title><cc:license
           rdf:resource="http://creativecommons.org/licenses/by-nc-sa/4.0/" /><dc:creator><cc:Agent><dc:title>Gemba @ Github</dc:title></cc:Agent></dc:creator><dc:rights><cc:Agent><dc:title>(c) 2025</dc:title></cc:Agent></dc:rights></cc:Work><cc:License
         rdf:about="http://creativecommons.org/licenses/by-nc-sa/4.0/"><cc:permits
           rdf:resource="http://creativecommons.org/ns#Reproduction" /><cc:permits
           rdf:resource="http://creativecommons.org/ns#Distribution" /><cc:requires
           rdf:resource="http://creativecommons.org/ns#Notice" /><cc:requires
           rdf:resource="http://creativecommons.org/ns#Attribution" /><cc:prohibits
           rdf:resource="http://creativecommons.org/ns#CommercialUse" /><cc:permits
           rdf:resource="http://creativecommons.org/ns#DerivativeWorks" /><cc:requires
           rdf:resource="http://creativecommons.org/ns#ShareAlike" /></cc:License></rdf:RDF></metadata></svg>
