<?xml version="1.0"?>
<svg width="598.189" height="350.26" xmlns="http://www.w3.org/2000/svg" xmlns:svg="http://www.w3.org/2000/svg" version="1.2" xml:space="preserve">
 <metadata id="metadata55">image/svg+xml</metadata>

 <g class="layer">
  <title>Layer 1</title>
  <path d="m107.53,166.1c-49.13,0 -88.97,39.83 -88.97,88.96c0,49.12 39.84,88.96 88.97,88.96c49.12,0 88.96,-39.84 88.96,-88.96c0,-49.13 -39.84,-88.97 -88.96,-88.97l0,0.01zm0,1.84c48.13,0 87.11,38.99 87.11,87.12c0,48.13 -38.98,87.12 -87.11,87.12c-48.14,0 -87.13,-38.99 -87.13,-87.12c0,-48.13 38.99,-87.12 87.12,-87.12l0.01,0z" fill="#F4F4F4" id="circle3"/>
  <path d="m107.53,217.53c-20.72,0 -37.54,16.82 -37.54,37.53c0,20.72 16.82,37.54 37.54,37.54c20.71,0 37.53,-16.82 37.53,-37.54s-16.82,-37.53 -37.53,-37.53zm0,1.85c19.72,0 35.69,15.96 35.69,35.68c0,19.72 -15.97,35.69 -35.69,35.69c-19.72,0 -35.69,-15.97 -35.69,-35.69s15.97,-35.68 35.69,-35.68z" fill="#F4F4F4" id="circle5"/>
  <path d="m107.53,195.93l0,0l4.52,17.19l-9.05,0l4.53,-17.19z" fill="#F4F4F4" id="polygon7"/>
  <path d="m65.7,213.23l15.36,8.97l-6.37,6.4l-8.99,-15.37l0,0z" fill="#F4F4F4" id="polygon9"/>
  <path d="m65.58,250.54l0,9.05l-17.21,-4.53l17.21,-4.52l0,0z" fill="#F4F4F4" id="polygon11"/>
  <path d="m74.69,281.53l6.37,6.4l-15.36,8.96l8.99,-15.36l0,0z" fill="#F4F4F4" id="polygon13"/>
  <path d="m103,297l9.05,0l-4.52,17.18l-4.53,-17.18l0,0z" fill="#F4F4F4" id="polygon15"/>
  <path d="m140.39,281.53l8.94,15.33l-15.34,-8.93l6.4,-6.4z" fill="#F4F4F4" id="polygon17"/>
  <path d="m149.47,250.54l17.24,4.52l-17.24,4.53l0,-9.05l0,0z" fill="#F4F4F4" id="polygon19"/>
  <path d="m149.33,213.26l-8.94,15.34l-6.4,-6.4l15.34,-8.94z" fill="#F4F4F4" id="polygon21"/>
  <g id="g23">
   <path d="m299.87,226.58c-18.16,0 -32.89,14.73 -32.89,32.89c0,18.16 14.73,32.92 32.89,32.92c18.16,0 32.92,-14.76 32.92,-32.92c0,-18.16 -14.76,-32.89 -32.92,-32.89l0,0zm0,1.84c17.16,0 31.07,13.89 31.07,31.05c0,17.17 -13.91,31.08 -31.07,31.08c-17.17,0 -31.05,-13.91 -31.05,-31.08c0,-17.16 13.88,-31.05 31.05,-31.05z" fill="#F4F4F4" id="circle25"/>
   <path d="m299.87,237.1c-12.35,0 -22.37,10.03 -22.37,22.37s10.02,22.37 22.37,22.37c12.34,0 22.37,-10.02 22.37,-22.37s-10.03,-22.37 -22.37,-22.37zm0,1.84c11.34,0 20.52,9.18 20.52,20.53s-9.18,20.53 -20.52,20.53c-11.35,0 -20.53,-9.18 -20.53,-20.53s9.18,-20.53 20.53,-20.53z" fill="#F4F4F4" id="circle27"/>
  </g>
  <g id="g29">
   <path d="m383.35,197.58c-18.16,0 -32.89,14.73 -32.89,32.89c0,18.16 14.73,32.89 32.89,32.89c18.16,0 32.93,-14.73 32.93,-32.89c0,-18.16 -14.76,-32.89 -32.93,-32.89zm0,1.84c17.17,0 31.08,13.89 31.08,31.05c0,17.17 -13.91,31.05 -31.08,31.05c-17.16,0 -31.04,-13.89 -31.04,-31.05c0,-17.16 13.88,-31.05 31.04,-31.05z" fill="#F4F4F4" id="circle31"/>
   <path d="m383.35,208.1c-12.34,0 -22.37,10.03 -22.37,22.37s10.03,22.37 22.37,22.37c12.35,0 22.37,-10.02 22.37,-22.37s-10.02,-22.37 -22.37,-22.37zm0,1.84c11.35,0 20.53,9.18 20.53,20.53s-9.18,20.53 -20.53,20.53c-11.34,0 -20.52,-9.18 -20.52,-20.53s9.18,-20.53 20.52,-20.53z" fill="#F4F4F4" id="circle33"/>
  </g>
  <g id="g35">
   <path d="m466.84,210.58c-18.16,0 -32.89,14.73 -32.89,32.89c0,18.16 14.73,32.89 32.89,32.89s32.92,-14.73 32.92,-32.89c0,-18.16 -14.76,-32.89 -32.92,-32.89zm0,1.84c17.16,0 31.08,13.89 31.08,31.05c0,17.17 -13.92,31.05 -31.08,31.05s-31.05,-13.89 -31.05,-31.05c0,-17.16 13.89,-31.05 31.05,-31.05z" fill="#F4F4F4" id="circle37"/>
   <path d="m466.84,221.1c-12.35,0 -22.37,10.03 -22.37,22.37s10.02,22.37 22.37,22.37c12.34,0 22.37,-10.02 22.37,-22.37s-10.03,-22.37 -22.37,-22.37zm0,1.84c11.35,0 20.52,9.18 20.52,20.53s-9.17,20.53 -20.52,20.53s-20.53,-9.18 -20.53,-20.53s9.18,-20.53 20.53,-20.53z" fill="#F4F4F4" id="circle39"/>
  </g>
  <g fill="#000000" id="svg_1" transform="matrix(0.0589827, 0, 0, -0.0589827, -171.292, 327.824)">
   <path d="m2964.92,4245.36l0,-1250l5000,0l5000,0l0,1250l0,1250l-5000,0l-5000,0l0,-1250zm4713,310c47,0 48,-1 45,-27c-3,-28 -4,-28 -88,-33l-85,-5l-3,-40c-5,-54 14,-65 105,-65l73,0l0,-30l0,-30l-108,0c-147,0 -152,4 -152,115c0,77 2,85 22,96c39,21 72,28 108,24c19,-3 57,-5 83,-5zm182,-31c10,-18 15,-58 15,-114l0,-86l-47,3l-48,3l-3,109c-2,72 1,112 8,116c22,13 61,-3 75,-31zm412,-1c39,-38 40,-47 9,-77l-25,-23l-32,36c-29,34 -36,37 -78,34l-46,-3l-3,-82l-3,-83l-49,0l-50,0l0,85l0,85l-34,0c-34,0 -66,27 -66,55c0,6 59,9 172,8l172,-3l33,-32zm219,26c-3,-8 -42,-62 -87,-120l-82,-104l-50,0c-38,0 -47,3 -40,13c5,6 46,58 91,114c78,97 84,102 125,106c23,2 44,4 46,5c2,1 0,-5 -3,-14zm-1308,-101l-3,-78l-1287,-3c-1027,-2 -1288,0 -1288,10c0,7 9,38 20,68c12,30 23,61 25,68c3,9 266,12 1270,12l1266,0l-3,-77zm4138,12c13,-33 23,-68 23,-77c1,-17 -69,-18 -1286,-15l-1288,2l-3,78l-3,77l1267,-2l1267,-3l23,-60zm-5276,-320c0,-13 -92,-15 -765,-15c-421,0 -765,4 -765,8c0,5 3,12 7,15c3,4 348,7 765,7c667,0 758,-2 758,-15zm5388,-2c3,-10 -153,-13 -757,-13c-671,0 -761,2 -761,15c0,13 88,15 757,13c594,-2 757,-6 761,-15zm-4690,-19c13,-9 71,-113 137,-245l115,-229l-109,0l-110,0l-68,132c-37,72 -73,133 -79,135c-11,4 -74,-104 -74,-126c0,-6 11,-11 25,-11c20,0 30,-11 55,-60c16,-33 30,-62 30,-65c0,-3 -94,-5 -210,-5c-115,0 -210,2 -210,4c0,2 16,33 36,68c20,34 69,129 109,209c40,80 85,160 100,177l27,32l102,0c76,0 107,-4 124,-16zm1382,-44c16,-33 30,-62 30,-65c0,-3 -25,-5 -55,-5l-55,0l0,-180l0,-180l-105,0l-105,0l-2,178l-3,177l-332,0c-182,0 -335,-3 -339,-8c-4,-4 -2,-13 5,-20c8,-8 69,-13 209,-15c211,-3 246,-8 283,-48c19,-21 24,-38 27,-98c4,-70 3,-74 -28,-109c-18,-21 -47,-41 -68,-47c-21,-5 -148,-10 -287,-10l-251,0l-32,65l-32,65l239,0c132,0 246,3 255,6c9,3 16,12 16,19c0,22 -26,25 -221,25c-170,0 -194,2 -229,20c-53,27 -63,50 -61,139c2,83 11,100 71,132c33,17 68,18 537,19l503,0l30,-60zm720,38c57,-26 72,-50 77,-121c7,-82 -12,-121 -70,-148c-37,-16 -67,-19 -232,-19c-135,0 -195,-4 -203,-12c-7,-7 -12,-43 -12,-90l0,-78l-95,0l-95,0l0,106c0,128 11,154 81,184c43,18 69,20 239,20c166,0 191,2 197,16c3,9 0,20 -8,25c-8,5 -127,9 -265,9l-250,0l-25,57c-13,32 -26,61 -28,66c-1,4 145,7 325,5c279,-3 334,-6 364,-20zm759,-4c83,-42 91,-62 91,-231l0,-142l-33,-34c-18,-20 -50,-40 -72,-46c-53,-14 -409,-14 -477,0c-37,8 -63,22 -85,44l-33,33l0,151c0,150 0,151 28,182c50,56 110,68 333,69c191,0 196,-1 248,-26zm-3559,-119c0,-13 -95,-15 -795,-15c-702,0 -794,2 -789,15c5,13 103,15 795,15c695,0 789,-2 789,-15zm5444,0c5,-13 -87,-15 -789,-15c-702,0 -794,2 -789,15c5,13 102,15 789,15c687,0 784,-2 789,-15zm-5444,-150c0,-13 -98,-15 -820,-15c-451,0 -820,4 -820,8c0,5 3,12 7,15c3,4 372,7 820,7c716,0 813,-2 813,-15zm5498,-2c3,-10 -165,-13 -817,-13c-727,0 -820,2 -815,15c5,13 102,15 817,13c638,-2 811,-6 815,-15zm-2643,-95c15,-29 37,-63 48,-75l20,-23l-119,0l-120,0l-32,65c-18,36 -32,70 -32,75c0,6 42,10 103,10l104,0l28,-52zm-2860,-46c0,-10 -172,-13 -843,-15c-818,-2 -862,-1 -835,26c3,4 382,6 842,4c666,-2 836,-5 836,-15zm5553,-2c2,-13 -96,-15 -835,-15c-519,0 -841,4 -845,10c-4,5 -4,13 -2,17c3,5 382,7 842,6c734,-3 837,-5 840,-18zm-5558,-145c0,-13 -107,-15 -870,-17c-479,-2 -870,-2 -870,-1c0,1 3,8 6,17c6,14 92,16 870,16c759,0 864,-2 864,-15zm5610,11c0,-2 3,-13 6,-23c5,-13 4,-15 -4,-8c-7,7 -305,8 -871,5c-815,-5 -861,-4 -861,13c0,16 48,17 865,17c476,0 865,-2 865,-4zm-5315,-96c19,-38 35,-72 35,-75c0,-14 -31,-3 -40,15c-8,15 -21,20 -50,20c-30,0 -40,-5 -45,-20c-3,-11 -15,-20 -25,-20c-18,0 -18,3 5,48c13,26 28,60 34,75c19,49 47,35 86,-43zm227,62c-7,-5 -32,-7 -57,-6c-42,3 -45,1 -45,-22c0,-21 5,-24 38,-25c20,-1 43,-1 50,0c6,1 12,-3 12,-9c0,-5 -22,-10 -51,-10c-49,0 -50,-1 -47,-27c3,-26 5,-27 56,-24c32,1 52,-2 52,-8c0,-7 -27,-11 -70,-11l-70,0l0,75l0,75l73,0c40,0 66,-4 59,-8zm199,-2c27,-15 24,-48 -6,-62l-26,-11l33,-34c26,-27 28,-33 14,-33c-10,0 -27,12 -39,26c-11,15 -34,32 -51,40l-31,13l32,1c44,0 63,9 63,30c0,11 -10,20 -30,23c-57,12 -65,0 -60,-95c1,-29 -2,-38 -14,-38c-13,0 -16,13 -16,75l0,75l56,0c30,0 64,-5 75,-10zm222,-1c30,-16 37,-28 37,-65c0,-47 -20,-66 -78,-72c-44,-4 -54,-1 -76,21c-35,35 -35,79 0,106c30,23 83,27 117,10zm382,-14c14,-13 25,-36 25,-50c0,-14 -11,-37 -25,-50c-20,-21 -34,-25 -80,-25l-55,0l0,75l0,75l55,0c46,0 60,-4 80,-25zm115,18c0,-5 9,-19 20,-33l19,-25l29,34c15,19 34,32 40,30c8,-3 2,-17 -17,-39c-22,-25 -30,-46 -31,-72c0,-27 -4,-38 -15,-38c-10,0 -15,10 -15,29c0,16 -10,42 -23,58c-52,65 -51,63 -28,63c11,0 21,-3 21,-7zm238,-43c19,-25 38,-46 43,-48c5,-2 9,19 9,47c0,38 4,51 15,51c11,0 14,-15 12,-75c-2,-93 -17,-98 -73,-25c-43,56 -58,53 -52,-9c2,-29 0,-41 -9,-41c-9,0 -13,21 -13,76c0,66 2,75 17,72c9,-2 32,-23 51,-48zm273,-25c30,-61 33,-75 20,-75c-9,0 -21,8 -27,18c-8,12 -26,19 -52,20c-33,2 -42,-1 -47,-18c-3,-11 -13,-20 -22,-20c-17,0 -17,-1 22,88c40,87 59,85 106,-13zm154,20c10,-30 21,-55 25,-55c3,0 14,25 24,55c14,47 21,55 42,55c23,0 24,-2 24,-75c0,-53 -4,-75 -12,-75c-9,0 -12,16 -10,56c6,83 -12,88 -34,10c-25,-89 -46,-89 -69,-1c-10,35 -22,62 -26,59c-5,-3 -9,-32 -9,-65c0,-40 -4,-59 -12,-59c-10,0 -12,20 -10,75c3,71 5,75 27,75c19,0 26,-9 40,-55zm203,-20c0,-57 -4,-75 -14,-75c-11,0 -14,18 -14,75c0,58 3,75 14,75c11,0 14,-17 14,-75zm195,61c21,-16 22,-26 2,-26c-8,0 -15,4 -15,9c0,5 -12,12 -26,15c-38,10 -74,-17 -74,-54c0,-54 61,-91 90,-55c14,17 40,20 40,5c0,-15 -36,-30 -75,-30c-51,0 -90,39 -81,83c3,18 16,40 27,50c25,20 86,22 112,3zm372,1c27,-21 1,-31 -29,-12c-29,20 -69,11 -64,-13c2,-10 20,-20 47,-27c83,-20 82,-77 -1,-83c-33,-2 -51,2 -69,17c-21,18 -22,20 -6,21c10,0 25,-7 33,-15c20,-19 48,-19 68,1c22,21 14,30 -37,43c-55,13 -73,32 -57,60c8,16 20,21 53,21c24,0 51,-6 62,-13zm107,-17c-4,-30 -4,-30 42,-30c44,0 46,1 46,30c0,20 5,30 15,30c12,0 15,-15 15,-75c0,-60 -3,-75 -15,-75c-10,0 -15,11 -15,35c0,35 0,35 -46,35l-46,0l4,-35c3,-27 0,-35 -12,-35c-12,0 -15,14 -15,75c0,62 3,75 16,75c12,0 14,-7 11,-30zm313,-42c19,-42 30,-75 24,-77c-6,-2 -17,6 -25,18c-21,30 -104,31 -104,1c0,-13 -7,-20 -20,-20c-18,0 -17,6 17,75c49,98 63,98 108,3zm216,62c11,-6 19,-21 19,-35c0,-29 -26,-45 -74,-45c-33,0 -36,-2 -36,-30c0,-20 -5,-30 -15,-30c-12,0 -15,15 -15,75l0,75l51,0c28,0 59,-5 70,-10zm209,2c0,-5 -24,-8 -52,-8c-50,1 -53,-1 -53,-23c0,-23 3,-25 48,-24c26,1 47,-3 47,-8c0,-5 -23,-9 -51,-9c-49,0 -50,-1 -47,-27c3,-26 6,-28 55,-28c28,0 55,-4 59,-8c4,-4 -27,-7 -69,-7l-77,0l0,75l0,75l70,0c39,0 70,-4 70,-8zm-3710,-127c0,-13 -107,-15 -900,-15c-793,0 -900,2 -900,15c0,13 107,15 900,15c793,0 900,-2 900,-15zm5658,-2c3,-10 -180,-13 -891,-13c-788,0 -896,2 -901,15c-5,13 96,15 891,13c706,-2 897,-6 901,-15z" fill="#f4f4f4" id="svg_2" stroke="#f4f4f4"/>
   <path d="m9227.92,4008.36c-38,-8 -53,-41 -53,-119c0,-57 4,-77 21,-98c20,-26 22,-26 149,-26c122,0 130,1 157,24c26,22 28,30 27,95c0,64 -3,75 -27,99c-26,26 -32,27 -140,29c-61,0 -122,-1 -134,-4z" fill="#f4f4f4" id="svg_3" stroke="#f4f4f4"/>
   <path d="m6259.92,3482.36c-20,-48 -20,-47 16,-47c28,0 31,3 25,23c-4,12 -8,27 -10,34c-5,28 -17,24 -31,-10z" fill="#f4f4f4" id="svg_4" stroke="#f4f4f4"/>
   <path d="m6894.92,3512.36c-38,-18 -41,-79 -6,-102c27,-18 74,-14 88,8c16,25 8,76 -14,91c-26,19 -35,19 -68,3z" fill="#f4f4f4" id="svg_5" stroke="#f4f4f4"/>
   <path d="m7258.92,3511.36c-3,-7 -4,-35 -2,-62c3,-48 3,-49 36,-47c44,2 62,19 62,58c0,38 -12,50 -58,58c-23,5 -34,3 -38,-7z" fill="#f4f4f4" id="svg_6" stroke="#f4f4f4"/>
   <path d="m7916.92,3509.36c4,-3 1,-19 -7,-34c-8,-15 -11,-30 -8,-34c8,-8 48,-8 55,0c9,9 -15,63 -31,69c-9,3 -12,3 -9,-1z" fill="#f4f4f4" id="svg_7" stroke="#f4f4f4"/>
   <path d="m9255.92,3474.36c-6,-18 -11,-34 -11,-35c0,-2 14,-4 30,-4c33,0 36,7 18,45c-15,33 -24,32 -37,-6z" fill="#f4f4f4" id="svg_8" stroke="#f4f4f4"/>
   <path d="m9460.92,3513.36c-15,-50 -14,-54 18,-52c54,3 56,4 56,24c0,30 -66,54 -74,28z" fill="#f4f4f4" id="svg_9" stroke="#f4f4f4"/>
  </g>
 </g>
 <g class="layer">
  <title>Layer 2</title>
 </g>
</svg>