<?xml version="1.0" encoding="UTF-8" standalone="no"?>
<!-- Generator: Adobe Illustrator 13.0.0, SVG Export Plug-In . SVG Version: 6.00 Build 14948)  -->

<svg
   version="1.2"
   id="Layer_3"
   x="0px"
   y="0px"
   width="598.189px"
   height="350.26px"
   viewBox="0 0 598.189 350.26"
   xml:space="preserve"
   sodipodi:docname="naomi.svg"
   inkscape:version="1.3.2 (091e20e, 2023-11-25, custom)"
   xmlns:inkscape="http://www.inkscape.org/namespaces/inkscape"
   xmlns:sodipodi="http://sodipodi.sourceforge.net/DTD/sodipodi-0.dtd"
   xmlns="http://www.w3.org/2000/svg"
   xmlns:svg="http://www.w3.org/2000/svg"
   xmlns:rdf="http://www.w3.org/1999/02/22-rdf-syntax-ns#"
   xmlns:cc="http://creativecommons.org/ns#"
   xmlns:dc="http://purl.org/dc/elements/1.1/"
   xmlns:ns="&amp;ns_sfw;"><defs
   id="defs1" /><sodipodi:namedview
   id="namedview1"
   pagecolor="#ffffff"
   bordercolor="#000000"
   borderopacity="0.25"
   inkscape:showpageshadow="2"
   inkscape:pageopacity="0.0"
   inkscape:pagecheckerboard="0"
   inkscape:deskcolor="#d1d1d1"
   inkscape:zoom="1.0414768"
   inkscape:cx="299.09451"
   inkscape:cy="174.75185"
   inkscape:window-width="1280"
   inkscape:window-height="650"
   inkscape:window-x="1274"
   inkscape:window-y="-6"
   inkscape:window-maximized="1"
   inkscape:current-layer="Layer_3" />
<metadata
   id="metadata55">
	<rdf:RDF>
		<cc:Work
   rdf:about="">
			<dc:format>image/svg+xml</dc:format>
			<dc:type
   rdf:resource="http://purl.org/dc/dcmitype/StillImage" />
			
		</cc:Work>
	</rdf:RDF>
	<ns:sfw>
		<ns:slices />
		<ns:sliceSourceBounds
   x="679.97"
   y="-7652"
   width="562.29"
   height="16383"
   bottomLeftOrigin="true" />
	</ns:sfw>
</metadata>
<path
   id="circle3"
   fill="#F4F4F4"
   d="M107.527,100.097c-49.126,0-88.963,39.837-88.963,88.959c0,49.126,39.837,88.963,88.963,88.963  c49.125,0,88.963-39.836,88.963-88.963c0-49.125-39.836-88.963-88.963-88.963V100.097z M107.527,101.942  c48.128,0,87.118,38.989,87.118,87.118c0,48.129-38.989,87.119-87.118,87.119c-48.133,0-87.122-38.984-87.122-87.12  c0-48.126,38.989-87.115,87.118-87.115L107.527,101.942z" />
<path
   id="circle5"
   fill="#F4F4F4"
   d="M107.527,151.53c-20.715,0-37.534,16.817-37.534,37.534c0,20.715,16.818,37.533,37.534,37.533  c20.716,0,37.534-16.817,37.534-37.533S128.244,151.53,107.527,151.53z M107.527,153.375c19.718,0,35.689,15.97,35.689,35.689  c0,19.718-15.97,35.688-35.689,35.688c-19.718,0-35.689-15.97-35.689-35.688S87.809,153.375,107.527,153.375z" />
<path
   id="polygon7"
   fill="#F4F4F4"
   d="M107.527,129.934L107.527,129.934l4.526,17.182h-9.052L107.527,129.934z" />
<path
   id="polygon9"
   fill="#F4F4F4"
   d="M65.698,147.231l15.365,8.965l-6.371,6.4L65.698,147.231L65.698,147.231z" />
<path
   id="polygon11"
   fill="#F4F4F4"
   d="M65.583,184.537v9.053l-17.21-4.526L65.583,184.537L65.583,184.537z" />
<path
   id="polygon13"
   fill="#F4F4F4"
   d="M74.692,215.528l6.371,6.398l-15.365,8.966L74.692,215.528L74.692,215.528z" />
<path
   id="polygon15"
   fill="#F4F4F4"
   d="M103.001,231.002h9.052l-4.526,17.182L103.001,231.002L103.001,231.002z" />
<path
   id="polygon17"
   fill="#F4F4F4"
   d="M140.39,215.528l8.937,15.335l-15.336-8.937L140.39,215.528z" />
<path
   id="polygon19"
   fill="#F4F4F4"
   d="M149.475,184.537l17.239,4.526l-17.239,4.526V184.537L149.475,184.537z" />
<path
   id="polygon21"
   fill="#F4F4F4"
   d="M149.326,147.26l-8.937,15.337l-6.4-6.4L149.326,147.26z" />
<g
   id="g23"
   transform="translate(0,38)">
	<path
   id="circle25"
   fill="#f4f4f4"
   d="m 299.868,115.579 c -18.162,0 -32.892,14.73 -32.892,32.892 0,18.162 14.73,32.922 32.892,32.922 18.161,0 32.922,-14.759 32.922,-32.922 0,-18.162 -14.759,-32.892 -32.922,-32.892 z m 0,1.845 c 17.165,0 31.076,13.882 31.076,31.047 0,17.165 -13.911,31.077 -31.076,31.077 -17.164,0 -31.047,-13.912 -31.047,-31.077 0,-17.165 13.883,-31.047 31.047,-31.047 z" />
	<path
   id="circle27"
   fill="#f4f4f4"
   d="m 299.868,126.101 c -12.345,0 -22.37,10.025 -22.37,22.37 0,12.345 10.025,22.371 22.37,22.371 12.346,0 22.37,-10.026 22.37,-22.371 0,-12.345 -10.024,-22.37 -22.37,-22.37 z m 0,1.844 c 11.347,0 20.525,9.178 20.525,20.525 0,11.347 -9.179,20.525 -20.525,20.525 -11.348,0 -20.525,-9.178 -20.525,-20.525 0,-11.347 9.178,-20.525 20.525,-20.525 z" />
</g>
<g
   id="g29"
   transform="translate(0,6)">
	<path
   id="circle31"
   fill="#f4f4f4"
   d="m 383.354,115.579 c -18.164,0 -32.894,14.731 -32.894,32.892 0,18.162 14.731,32.893 32.894,32.893 18.161,0 32.922,-14.731 32.922,-32.893 0,-18.162 -14.76,-32.892 -32.922,-32.892 z m 0,1.845 c 17.163,0 31.076,13.883 31.076,31.047 0,17.165 -13.913,31.047 -31.076,31.047 -17.166,0 -31.048,-13.883 -31.048,-31.047 0.001,-17.165 13.882,-31.047 31.048,-31.047 z" />
	<path
   id="circle33"
   fill="#f4f4f4"
   d="m 383.354,126.101 c -12.346,0 -22.371,10.025 -22.371,22.37 0,12.345 10.025,22.371 22.371,22.371 12.344,0 22.369,-10.026 22.369,-22.371 0,-12.345 -10.025,-22.37 -22.369,-22.37 z m 0,1.844 c 11.348,0 20.523,9.178 20.523,20.525 0,11.347 -9.178,20.525 -20.523,20.525 -11.348,0 -20.526,-9.178 -20.526,-20.525 0,-11.347 9.179,-20.525 20.526,-20.525 z" />
</g>
<g
   id="g35"
   transform="translate(0,54)">
	<path
   id="circle37"
   fill="#f4f4f4"
   d="m 466.839,115.579 c -18.162,0 -32.893,14.731 -32.893,32.892 0,18.162 14.73,32.893 32.893,32.893 18.163,0 32.922,-14.731 32.922,-32.893 0,-18.162 -14.76,-32.892 -32.922,-32.892 z m 0,1.845 c 17.165,0 31.077,13.883 31.077,31.047 0,17.165 -13.912,31.047 -31.077,31.047 -17.165,0 -31.048,-13.883 -31.048,-31.047 0,-17.165 13.884,-31.047 31.048,-31.047 z" />
	<path
   id="circle39"
   fill="#f4f4f4"
   d="m 466.839,126.101 c -12.346,0 -22.371,10.025 -22.371,22.37 0,12.345 10.025,22.371 22.371,22.371 12.344,0 22.371,-10.026 22.371,-22.371 0,-12.345 -10.027,-22.37 -22.371,-22.37 z m 0,1.844 c 11.348,0 20.525,9.178 20.525,20.525 0,11.347 -9.178,20.525 -20.525,20.525 -11.347,0 -20.525,-9.178 -20.525,-20.525 0,-11.347 9.177,-20.525 20.525,-20.525 z" />
</g>
<g
   id="g41">
	<path
   id="circle43"
   fill="#F4F4F4"
   d="M547.962,34.457c-18.162,0-32.892,14.731-32.892,32.892   c0,18.162,14.731,32.922,32.892,32.922c18.163,0,32.893-14.76,32.893-32.922c-0.009-18.161-14.742-32.892-32.896-32.892H547.962z    M547.962,36.302c17.165,0,31.048,13.884,31.048,31.047c0,17.165-13.883,31.077-31.048,31.077   c-17.164,0-31.047-13.912-31.047-31.077c0-17.164,13.883-31.047,31.052-31.047H547.962z" />
	<path
   id="circle45"
   fill="#F4F4F4"
   d="M547.962,44.979c-12.345,0-22.369,10.026-22.369,22.371s10.024,22.398,22.369,22.398   c12.346,0,22.37-10.054,22.37-22.398S560.308,44.979,547.962,44.979z M547.962,46.823c11.349,0,20.525,9.178,20.525,20.526   s-9.177,20.554-20.525,20.554c-11.348,0-20.524-9.206-20.524-20.554S536.614,46.823,547.962,46.823z" />
</g>






</svg>
